<?xml version="1.0" standalone="no"?>
<!DOCTYPE svg PUBLIC "-//W3C//DTD SVG 20010904//EN"
 "http://www.w3.org/TR/2001/REC-SVG-20010904/DTD/svg10.dtd">
<svg version="1.0" xmlns="http://www.w3.org/2000/svg"
 width="283.000000pt" height="283.000000pt" viewBox="0 0 283.000000 283.000000"
 preserveAspectRatio="xMidYMid meet">
<metadata>
Created by potrace 1.14, written by Peter Selinger 2001-2017
</metadata>
<g transform="translate(0.000000,283.000000) scale(0.100000,-0.100000)"
fill="#000000" stroke="none">
<path d="M19 2448 c-14 -49 -17 -245 -7 -358 11 -118 38 -233 73 -315 45 -106
190 -287 288 -359 80 -59 137 -77 259 -81 62 -2 127 -7 143 -10 93 -18 186
-50 264 -90 41 -20 50 -22 55 -9 5 12 -38 104 -95 204 -55 96 -160 208 -283
300 -98 73 -154 147 -135 181 14 28 46 32 97 13 161 -60 303 -214 445 -484 26
-50 39 -64 53 -62 30 6 35 23 30 98 -8 115 -71 284 -150 402 -118 178 -286
283 -546 343 -55 12 -121 36 -158 56 -71 39 -203 136 -246 182 -43 45 -72 42
-87 -11z"/>
<path d="M2677 2004 c-171 -69 -200 -75 -367 -68 -270 11 -332 11 -408 -1 -96
-16 -169 -43 -241 -91 -80 -53 -242 -220 -270 -278 -35 -72 -15 -75 83 -11
152 98 302 160 466 192 79 16 223 9 296 -14 91 -29 118 -50 109 -84 -11 -46
-83 -70 -330 -113 -313 -55 -469 -100 -582 -168 -78 -47 -194 -174 -242 -267
-64 -125 -70 -157 -77 -431 -5 -231 -4 -247 13 -262 35 -32 116 -61 165 -60
55 1 156 42 188 77 26 27 26 27 15 240 -12 240 -12 255 0 321 21 112 76 179
170 205 62 17 232 13 306 -8 99 -27 311 -25 406 5 100 31 190 86 251 152 73
80 161 354 187 585 4 33 9 69 11 79 4 22 -12 46 -30 45 -6 0 -60 -20 -119 -45z"/>
</g>
</svg>
