<svg xmlns="http://www.w3.org/2000/svg">
<defs>
<font id="Comfortaa-SemiBold" horiz-adv-x="676" >
  <font-face 
    font-family="Comfortaa SemiBold"
    font-weight="600"
    font-stretch="normal"
    units-per-em="1000"
    panose-1="0 0 0 0 0 0 0 0 0 0"
    ascent="800"
    descent="-200"
    x-height="544"
    cap-height="781"
    bbox="-212.999 -315.002 1279 1277"
    underline-thickness="50"
    underline-position="-75"
    unicode-range="U+000D-U+FB02"
  />
<missing-glyph horiz-adv-x="625" 
d="M75 0c-10 0 -18.667 3.66699 -26 11s-11 16 -11 26v707c0 10 3.66699 18.667 11 26s16 11 26 11h478c10 0 18.667 -3.66699 26 -11s11 -16 11 -26v-707c0 -10 -3.66699 -18.667 -11 -26s-16 -11 -26 -11h-478zM313 130c-12.667 0 -23.6689 4.5 -33.002 13.5
s-14 20.167 -14 33.5s4.66699 24.666 14 33.999s20.333 14 33 14s23.834 -4.66699 33.501 -14s14.5 -20.666 14.5 -33.999c0 -12.667 -4.66699 -23.667 -14 -33s-20.666 -14 -33.999 -14zM104.998 67h418v648h-418v-648zM312.998 255
c-10.667 0 -19.3311 3.49805 -25.998 10.498s-10 15.5 -10 25.5c0 19.333 4.83301 39 14.5 59s22.5 37.333 38.5 52l33.5 31c10.333 10 18.666 21.333 24.999 34s9.5 28.334 9.5 47.001c0 22 -7.5 40.333 -22.5 55s-34.167 22 -57.5 22c-28 0 -49.833 -7.83301 -65.5 -23.5
s-23.5 -37.5 -23.5 -65.5c0 -10.667 -3.5 -19.167 -10.5 -25.5s-15.5 -9.5 -25.5 -9.5s-18.333 3.16699 -25 9.5s-10 14.833 -10 25.5c0 30.667 6.66699 57.667 20 81s32 41.5 56 54.5s52 19.5 84 19.5c28.667 0 54.334 -6 77.001 -18s40.5 -29 53.5 -51s19.5 -47 19.5 -75
c0 -24.667 -4.16699 -45.834 -12.5 -63.501s-19.333 -33.667 -33 -48s-28.834 -28.5 -45.501 -42.5c-8.66699 -7.33301 -15.5 -17.166 -20.5 -29.499s-7.5 -25.166 -7.5 -38.499c0 -10 -3.33301 -18.5 -10 -25.5s-15.334 -10.5 -26.001 -10.5z" />
    <glyph glyph-name="fi" unicode="fi" horiz-adv-x="621" 
d="M154 0c-13.333 0 -24.334 4.5 -33.001 13.5s-13 19.833 -13 32.5v501c0 48 9 89.833 27 125.5s46.833 63.5 86.5 83.5s91.167 30 154.5 30c30 0 57 -3.33301 81 -10s42.833 -16 56.5 -28s20.5 -26.333 20.5 -43c0 -29.333 -17.333 -44 -52 -44
c-12.667 0 -24.167 3 -34.5 9s-20.666 12.833 -30.999 20.5s-21.333 14.5 -33 20.5s-25.5 9 -41.5 9c-25.333 0 -48.833 -5 -70.5 -15s-39 -27.667 -52 -53s-19.5 -60.333 -19.5 -105v-501c0 -12.667 -4.33301 -23.5 -13 -32.5s-19.667 -13.5 -33 -13.5zM56.999 448
c-12.667 0 -22.834 3.66699 -30.501 11s-11.5 16.666 -11.5 27.999c0 12 3.83301 21.667 11.5 29s17.834 11 30.501 11h253c12.667 0 23 -3.66699 31 -11s12 -17 12 -29c0 -11.333 -4 -20.666 -12 -27.999s-18.333 -11 -31 -11h-253zM477.999 0
c-13.333 0 -24.333 4.33301 -33 13s-13 19.667 -13 33v455c0 14 4.33301 25.167 13 33.5s19.667 12.5 33 12.5c14 0 25.167 -4.16699 33.5 -12.5s12.5 -19.5 12.5 -33.5v-455c0 -13.333 -4.16699 -24.333 -12.5 -33s-19.5 -13 -33.5 -13z" />
    <glyph glyph-name="fl" unicode="fl" horiz-adv-x="645" 
d="M154 0c-13.333 0 -24.333 4.49805 -33 13.498s-13 19.833 -13 32.5v506c0 42 8.16699 80.5 24.5 115.5s41 62.667 74 83s74.167 30.5 123.5 30.5c14.667 0 30.5 -1.16699 47.5 -3.5s34.5 -6.16602 52.5 -11.499c19.333 -5.33301 33.333 -11.833 42 -19.5
s13 -18.167 13 -31.5c0 -15.333 -4.66699 -25.666 -14 -30.999s-23 -5.33301 -41 0c-18.667 5.33301 -36 8.83301 -52 10.5s-31 2.5 -45 2.5c-40.667 0 -73 -12 -97 -36s-36 -58.667 -36 -104v-511c0 -12.667 -4.33301 -23.5 -13 -32.5s-19.667 -13.5 -33 -13.5zM57 447.998
c-12.667 0 -22.834 3.66699 -30.501 11s-11.5 16.666 -11.5 27.999c0 12 3.83301 21.667 11.5 29s17.834 11 30.501 11h237c12.667 0 22.834 -3.66699 30.501 -11s11.5 -17 11.5 -29c0 -11.333 -3.83301 -20.666 -11.5 -27.999s-17.834 -11 -30.501 -11h-237z
M567 -0.00195312c-28 0 -53 7.66699 -75 23s-39.167 36.666 -51.5 63.999s-18.5 58.333 -18.5 93v556c0 13.333 4.16699 24.166 12.5 32.499s19.166 12.5 32.499 12.5s24.333 -4.16699 33 -12.5s13 -19.166 13 -32.499v-556c0 -26 5 -47.333 15 -64s23 -25 39 -25h25
c12 0 21.833 -4.33301 29.5 -13s11.5 -19.667 11.5 -33s-5.66699 -24.166 -17 -32.499s-25.666 -12.5 -42.999 -12.5h-6z" />
    <glyph glyph-name="f_f" unicode="ff" horiz-adv-x="733" 
d="M152 0c-11.333 0 -21.501 4.16699 -30.501 12.5s-13.5 19.5 -13.5 33.5v499c0 47.333 9 88.666 27 123.999s43.5 62.833 76.5 82.5s71.833 29.5 116.5 29.5c13.333 0 24.333 -4 33 -12s13 -18 13 -30c0 -11.333 -4.33301 -21.166 -13 -29.499s-19.667 -12.5 -33 -12.5
c-26.667 0 -49.5 -6 -68.5 -18s-33.667 -28.833 -44 -50.5s-15.5 -47.167 -15.5 -76.5v-506c0 -14 -4.16699 -25.167 -12.5 -33.5s-20.166 -12.5 -35.499 -12.5zM56.999 448c-12.667 0 -22.834 3.66699 -30.501 11s-11.5 16.666 -11.5 27.999c0 12 3.83301 21.667 11.5 29
s17.834 11 30.501 11h252c12.667 0 23 -3.66699 31 -11s12 -17 12 -29c0 -11.333 -4 -20.666 -12 -27.999s-18.333 -11 -31 -11h-252zM518.999 0c-11.333 0 -21.501 4.16699 -30.501 12.5s-13.5 19.5 -13.5 33.5v499c0 47.333 9 88.666 27 123.999s43.5 62.833 76.5 82.5
s71.833 29.5 116.5 29.5c13.333 0 24.333 -4 33 -12s13 -18 13 -30c0 -11.333 -4.33301 -21.166 -13 -29.499s-19.667 -12.5 -33 -12.5c-26.667 0 -49.5 -6 -68.5 -18s-33.667 -28.833 -44 -50.5s-15.5 -47.167 -15.5 -76.5v-506c0 -14 -4.16699 -25.167 -12.5 -33.5
s-20.166 -12.5 -35.499 -12.5zM423.998 448c-12.667 0 -22.834 3.66699 -30.501 11s-11.5 16.666 -11.5 27.999c0 12 3.83301 21.667 11.5 29s17.834 11 30.501 11h252c12.667 0 23 -3.66699 31 -11s12 -17 12 -29c0 -11.333 -4 -20.666 -12 -27.999s-18.333 -11 -31 -11
h-252z" />
    <glyph glyph-name="f_f_i" unicode="ffi" horiz-adv-x="1030" 
d="M152 0c-11.333 0 -21.501 4.16699 -30.501 12.5s-13.5 19.5 -13.5 33.5v499c0 47.333 9 88.666 27 123.999s43.5 62.833 76.5 82.5s71.833 29.5 116.5 29.5c13.333 0 24.333 -4 33 -12s13 -18 13 -30c0 -11.333 -4.33301 -21.166 -13 -29.499s-19.667 -12.5 -33 -12.5
c-26.667 0 -49.5 -6 -68.5 -18s-33.667 -28.833 -44 -50.5s-15.5 -47.167 -15.5 -76.5v-506c0 -14 -4.16699 -25.167 -12.5 -33.5s-20.166 -12.5 -35.499 -12.5zM56.999 448c-12.667 0 -22.834 3.66699 -30.501 11s-11.5 16.666 -11.5 27.999c0 12 3.83301 21.667 11.5 29
s17.834 11 30.501 11h252c12.667 0 23 -3.66699 31 -11s12 -17 12 -29c0 -11.333 -4 -20.666 -12 -27.999s-18.333 -11 -31 -11h-252zM518.999 0c-11.333 0 -21.501 4.16699 -30.501 12.5s-13.5 19.5 -13.5 33.5v499c0 47.333 9 88.666 27 123.999s43.5 62.833 76.5 82.5
s71.833 29.5 116.5 29.5c13.333 0 24.333 -4 33 -12s13 -18 13 -30c0 -11.333 -4.33301 -21.166 -13 -29.499s-19.667 -12.5 -33 -12.5c-26.667 0 -49.5 -6 -68.5 -18s-33.667 -28.833 -44 -50.5s-15.5 -47.167 -15.5 -76.5v-506c0 -14 -4.16699 -25.167 -12.5 -33.5
s-20.166 -12.5 -35.499 -12.5zM423.998 448c-12.667 0 -22.834 3.66699 -30.501 11s-11.5 16.666 -11.5 27.999c0 12 3.83301 21.667 11.5 29s17.834 11 30.501 11h252c12.667 0 23 -3.66699 31 -11s12 -17 12 -29c0 -11.333 -4 -20.666 -12 -27.999s-18.333 -11 -31 -11
h-252zM881.998 0c-14 0 -25.333 4.33301 -34 13s-13 19.667 -13 33v455c0 14 4.33301 25.167 13 33.5s20 12.5 34 12.5c13.333 0 24.333 -4.16699 33 -12.5s13 -19.5 13 -33.5v-455c0 -13.333 -4.33301 -24.333 -13 -33s-19.667 -13 -33 -13zM880.998 642
c-16.667 0 -31 6 -43 18s-18 26.667 -18 44s6.16699 31.833 18.5 43.5s26.833 17.5 43.5 17.5c16 0 30.167 -5.83301 42.5 -17.5s18.5 -26.167 18.5 -43.5s-6 -32 -18 -44s-26.667 -18 -44 -18z" />
    <glyph glyph-name="f_f_l" unicode="ffl" horiz-adv-x="1026" 
d="M152 0c-11.333 0 -21.501 4.16699 -30.501 12.5s-13.5 19.5 -13.5 33.5v499c0 47.333 9 88.666 27 123.999s43.5 62.833 76.5 82.5s71.833 29.5 116.5 29.5c13.333 0 24.333 -4 33 -12s13 -18 13 -30c0 -11.333 -4.33301 -21.166 -13 -29.499s-19.667 -12.5 -33 -12.5
c-26.667 0 -49.5 -6 -68.5 -18s-33.667 -28.833 -44 -50.5s-15.5 -47.167 -15.5 -76.5v-506c0 -14 -4.16699 -25.167 -12.5 -33.5s-20.166 -12.5 -35.499 -12.5zM56.999 448c-12.667 0 -22.834 3.66699 -30.501 11s-11.5 16.666 -11.5 27.999c0 12 3.83301 21.667 11.5 29
s17.834 11 30.501 11h252c12.667 0 23 -3.66699 31 -11s12 -17 12 -29c0 -11.333 -4 -20.666 -12 -27.999s-18.333 -11 -31 -11h-252zM518.999 0c-11.333 0 -21.501 4.16699 -30.501 12.5s-13.5 19.5 -13.5 33.5v499c0 47.333 9 88.666 27 123.999s43.5 62.833 76.5 82.5
s71.833 29.5 116.5 29.5c13.333 0 24.333 -4 33 -12s13 -18 13 -30c0 -11.333 -4.33301 -21.166 -13 -29.499s-19.667 -12.5 -33 -12.5c-26.667 0 -49.5 -6 -68.5 -18s-33.667 -28.833 -44 -50.5s-15.5 -47.167 -15.5 -76.5v-506c0 -14 -4.16699 -25.167 -12.5 -33.5
s-20.166 -12.5 -35.499 -12.5zM423.998 448c-12.667 0 -22.834 3.66699 -30.501 11s-11.5 16.666 -11.5 27.999c0 12 3.83301 21.667 11.5 29s17.834 11 30.501 11h252c12.667 0 23 -3.66699 31 -11s12 -17 12 -29c0 -11.333 -4 -20.666 -12 -27.999s-18.333 -11 -31 -11
h-252zM947.998 0c-28 0 -52.998 7.66602 -74.998 22.999s-39.167 36.5 -51.5 63.5s-18.5 58.167 -18.5 93.5v556c0 13.333 4.16699 24.166 12.5 32.499s19.166 12.5 32.499 12.5c14 0 25.167 -4.16699 33.5 -12.5s12.5 -19.166 12.5 -32.499v-556
c0 -26 5.16699 -47.333 15.5 -64s23.166 -25 38.499 -25h25c12.667 0 22.667 -4.16699 30 -12.5s11 -19.5 11 -33.5c0 -13.333 -5.5 -24.166 -16.5 -32.499s-25.167 -12.5 -42.5 -12.5h-7z" />
    <glyph glyph-name=".notdef" horiz-adv-x="625" 
d="M75 0c-10 0 -18.667 3.66699 -26 11s-11 16 -11 26v707c0 10 3.66699 18.667 11 26s16 11 26 11h478c10 0 18.667 -3.66699 26 -11s11 -16 11 -26v-707c0 -10 -3.66699 -18.667 -11 -26s-16 -11 -26 -11h-478zM313 130c-12.667 0 -23.6689 4.5 -33.002 13.5
s-14 20.167 -14 33.5s4.66699 24.666 14 33.999s20.333 14 33 14s23.834 -4.66699 33.501 -14s14.5 -20.666 14.5 -33.999c0 -12.667 -4.66699 -23.667 -14 -33s-20.666 -14 -33.999 -14zM104.998 67h418v648h-418v-648zM312.998 255
c-10.667 0 -19.3311 3.49805 -25.998 10.498s-10 15.5 -10 25.5c0 19.333 4.83301 39 14.5 59s22.5 37.333 38.5 52l33.5 31c10.333 10 18.666 21.333 24.999 34s9.5 28.334 9.5 47.001c0 22 -7.5 40.333 -22.5 55s-34.167 22 -57.5 22c-28 0 -49.833 -7.83301 -65.5 -23.5
s-23.5 -37.5 -23.5 -65.5c0 -10.667 -3.5 -19.167 -10.5 -25.5s-15.5 -9.5 -25.5 -9.5s-18.333 3.16699 -25 9.5s-10 14.833 -10 25.5c0 30.667 6.66699 57.667 20 81s32 41.5 56 54.5s52 19.5 84 19.5c28.667 0 54.334 -6 77.001 -18s40.5 -29 53.5 -51s19.5 -47 19.5 -75
c0 -24.667 -4.16699 -45.834 -12.5 -63.501s-19.333 -33.667 -33 -48s-28.834 -28.5 -45.501 -42.5c-8.66699 -7.33301 -15.5 -17.166 -20.5 -29.499s-7.5 -25.166 -7.5 -38.499c0 -10 -3.33301 -18.5 -10 -25.5s-15.334 -10.5 -26.001 -10.5z" />
    <glyph glyph-name="NULL" horiz-adv-x="0" 
 />
    <glyph glyph-name="NULL" horiz-adv-x="0" 
 />
    <glyph glyph-name="CR" unicode="&#xd;" horiz-adv-x="293" 
 />
    <glyph glyph-name="space" unicode=" " horiz-adv-x="293" 
 />
    <glyph glyph-name="exclam" unicode="!" horiz-adv-x="280" 
d="M115 182c-13.333 0 -24.5 4.66699 -33.5 14s-13.5 20 -13.5 32v506c0 13.333 4.5 24.5 13.5 33.5s20.167 13.5 33.5 13.5s24.333 -4.5 33 -13.5s13 -20.167 13 -33.5v-506c0 -12.667 -4.66699 -23.5 -14 -32.5s-20 -13.5 -32 -13.5zM115 0
c-18 0 -33.333 6.33203 -46 18.999s-19 28 -19 46c0 18.667 6.33301 34.334 19 47.001s28 19 46 19s33.333 -6.5 46 -19.5s19 -28.5 19 -46.5s-6.5 -33.333 -19.5 -46s-28.167 -19 -45.5 -19z" />
    <glyph glyph-name="quotedbl" unicode="&#x22;" horiz-adv-x="273" 
d="M201 556c-10 0 -18.5 3.5 -25.5 10.5s-10.5 15.5 -10.5 25.5l-11 143c0 12.667 4.66699 23.5 14 32.5s20.333 13.5 33 13.5s23.5 -4.5 32.5 -13.5s13.5 -19.833 13.5 -32.5l-9 -143c-0.666992 -10 -4.5 -18.5 -11.5 -25.5s-15.5 -10.5 -25.5 -10.5zM81 556
c-10.667 0 -19.5 3.5 -26.5 10.5s-10.833 15.5 -11.5 25.5l-9 142c0 12.667 4.66699 23.5 14 32.5s20.333 13.5 33 13.5c12 0 22.5 -4.5 31.5 -13.5s13.5 -19.833 13.5 -32.5l-9 -142c0 -10 -3.5 -18.5 -10.5 -25.5s-15.5 -10.5 -25.5 -10.5z" />
    <glyph glyph-name="numbersign" unicode="#" horiz-adv-x="720" 
d="M634 549c12.667 0 22.8359 -3.16504 30.5029 -9.49805s10.834 -15.833 9.50098 -28.5c-0.666992 -12 -6 -21.333 -16 -28s-22.333 -10 -37 -10h-71l-27 -154h71c14 0 24.333 -3.33301 31 -10s10 -15.334 10 -26.001c0 -10 -4.83301 -19.167 -14.5 -27.5
s-22.834 -12.5 -39.501 -12.5h-76l-34 -197c-2.66699 -14 -8.33398 -25.167 -17.001 -33.5s-20 -12.5 -34 -12.5c-12.667 0 -22.334 4.66699 -29.001 14s-8.66699 20.666 -6 33.999l33 195h-170l-33 -197c-2.66699 -12.667 -8.5 -23.5 -17.5 -32.5
s-19.833 -13.5 -32.5 -13.5c-13.333 0 -23.333 4 -30 12s-8.66699 20 -6 36l33 195h-75c-12.667 0 -22.667 3.16699 -30 9.5s-10.666 14.5 -9.99902 24.5c1.33301 14 6.66602 24.5 15.999 31.5s21.666 10.5 36.999 10.5h80l26 154h-78
c-12.667 0 -22.834 2.83301 -30.501 8.5s-11.5 14.167 -11.5 25.5c0 14 4.83301 24.5 14.5 31.5s22.834 10.5 39.501 10.5h83l35 189c2.66699 13.333 8.16699 24.333 16.5 33s19.5 13 33.5 13c12.667 0 22.5 -4.5 29.5 -13.5s9.16699 -20.5 6.5 -34.5l-34 -187h170l34 189
c2 12.667 7.5 23.5 16.5 32.5s20.167 13.5 33.5 13.5c14.667 0 25 -4.5 31 -13.5s7.66699 -20.5 5 -34.5l-33 -187h67zM436.002 319.002l26 154h-169l-26 -154h169z" />
    <glyph glyph-name="dollar" unicode="$" horiz-adv-x="621" 
d="M317 -10c-40.667 0 -79.165 5.65625 -115.498 16.9893s-67.833 28 -94.5 50s-46.334 48 -59.001 78c-5.33301 12.667 -5.33301 24.334 0 35.001s15.333 17.334 30 20.001c10 2.66699 19.833 1.33398 29.5 -3.99902s17.167 -13.666 22.5 -24.999
c12 -26 35.167 -47 69.5 -63s73.5 -24 117.5 -24c30.667 0 58.5 5.16699 83.5 15.5s45 25.333 60 45s22.5 43.834 22.5 72.501c0.666992 37.333 -12.5 70 -39.5 98s-69.833 45.667 -128.5 53c-49.333 5.33301 -92.333 17.833 -129 37.5s-64.834 44.834 -84.501 75.501
s-29.5 65.334 -29.5 104.001c0 42 11.333 77.833 34 107.5s53.167 52.5 91.5 68.5s81.166 24 128.499 24c38.667 0 72.667 -5.5 102 -16.5s54.5 -26.167 75.5 -45.5s38.5 -41.666 52.5 -66.999c8 -13.333 11.167 -25.666 9.5 -36.999s-7.5 -20 -17.5 -26
c-10 -7.33301 -21 -9 -33 -5s-21.333 11.667 -28 23c-14 26 -33.667 47.667 -59 65s-59.666 26.333 -102.999 27c-48 0.666992 -87.167 -9 -117.5 -29s-45.5 -50 -45.5 -90c0 -20.667 4.66699 -40.5 14 -59.5s26.5 -35.833 51.5 -50.5s60.833 -25 107.5 -31
c74.667 -8.66699 133.167 -32.167 175.5 -70.5s63.5 -89.166 63.5 -152.499c0 -36 -7 -67.833 -21 -95.5s-33 -50.667 -57 -69s-51.5 -32.166 -82.5 -41.499s-63.167 -14 -96.5 -14zM324.002 -101.011c-8.66699 0 -15.834 2.83301 -21.501 8.5s-8.5 12.834 -8.5 21.501v893
c0 9.33301 2.83301 16.666 8.5 21.999s12.834 8 21.501 8c8 0 14.667 -2.66699 20 -8s8 -12.666 8 -21.999v-893c0 -8.66699 -2.66699 -15.834 -8 -21.501s-12 -8.5 -20 -8.5z" />
    <glyph glyph-name="percent" unicode="%" horiz-adv-x="859" 
d="M164 0c-13.333 0 -24.332 4.5 -32.999 13.5s-13 19.833 -13 32.5s3.66699 23 11 31l535 686c5.33301 6 11.166 10.5 17.499 13.5s12.833 4.5 19.5 4.5c13.333 0 24.5 -4.5 33.5 -13.5s13.5 -20.167 13.5 -33.5c0 -10 -3.33301 -19 -10 -27l-539 -692
c-9.33301 -10 -21 -15 -35 -15zM229.001 385c-36.667 0 -70 9.16699 -100 27.5s-54 42.5 -72 72.5s-27 62.667 -27 98c0 36 9 69 27 99s42 54 72 72s63.333 27 100 27c36 0 69 -9 99 -27s53.833 -42 71.5 -72s26.5 -63 26.5 -99s-8.83301 -68.833 -26.5 -98.5
s-41.5 -53.667 -71.5 -72s-63 -27.5 -99 -27.5zM229.001 477c19.333 0 37 4.83301 53 14.5s28.667 22.5 38 38.5s14 33.667 14 53s-4.83301 37 -14.5 53s-22.5 28.833 -38.5 38.5s-33.333 14.5 -52 14.5c-19.333 0 -37.166 -4.83301 -53.499 -14.5s-29.333 -22.5 -39 -38.5
s-14.5 -33.667 -14.5 -53c0 -18.667 4.83301 -36.167 14.5 -52.5s22.667 -29.333 39 -39s34.166 -14.5 53.499 -14.5zM634.001 0c-35.333 0 -68.001 9.00195 -98.001 27.002s-54 41.833 -72 71.5s-27 62.5 -27 98.5c0 36.667 9 69.834 27 99.501s41.833 53.5 71.5 71.5
s62.834 27 99.501 27c36 0 69 -8.83301 99 -26.5s54 -41.334 72 -71.001s27 -62.834 27 -99.501s-9 -69.834 -27 -99.501s-42 -53.5 -72 -71.5s-63.333 -27 -100 -27zM635 92.002c19.333 0 37 4.83105 53 14.498s28.833 22.5 38.5 38.5s14.5 33.667 14.5 53
c0 18.667 -4.83301 36 -14.5 52s-22.667 28.833 -39 38.5s-33.833 14.5 -52.5 14.5c-19.333 0 -37.166 -4.66699 -53.499 -14s-29.166 -22.166 -38.499 -38.499s-14 -34.166 -14 -53.499c0 -18.667 4.66699 -36 14 -52s22.166 -28.833 38.499 -38.5
s34.166 -14.5 53.499 -14.5z" />
    <glyph glyph-name="ampersand" unicode="&#x26;" horiz-adv-x="727" 
d="M257 -11c-42.667 0 -79.8301 7.83301 -111.497 23.5s-56.334 37.834 -74.001 66.501s-26.5 62.334 -26.5 101.001c0 44.667 14.5 85.167 43.5 121.5s69.5 74.833 121.5 115.5l83 66c32.667 26 54.834 50.167 66.501 72.5s17.834 45.5 18.501 69.5
c0 26 -8.83301 48.667 -26.5 68s-42.834 29 -75.501 29c-30 0 -54.333 -9 -73 -27s-28 -39 -28 -63c0 -18.667 4 -36.5 12 -53.5s20.667 -34.167 38 -51.5l453 -452c9.33301 -10 14.666 -19.333 15.999 -28s-2.66699 -18 -12 -28c-20 -19.333 -39.667 -19.333 -59 0
l-458 458c-22 22 -39 45.833 -51 71.5s-18 52.834 -18 81.501c0 31.333 7.83301 59.5 23.5 84.5s37.167 44.833 64.5 59.5s58 22 92 22c35.333 0 66.5 -7.66699 93.5 -23s48.5 -36 64.5 -62s24 -55.333 24 -88c-0.666992 -26 -5.5 -49.667 -14.5 -71s-22.833 -42 -41.5 -62
s-42 -41.333 -70 -64l-81 -63c-24.667 -20 -46 -39.833 -64 -59.5s-31.833 -39.334 -41.5 -59.001s-14.5 -40.167 -14.5 -61.5c0 -37.333 11 -66 33 -86s53 -30 93 -30c38 0 71.5 9 100.5 27s58.833 43 89.5 75l148 157c9.33301 9.33301 18.166 15.166 26.499 17.499
s17.166 -1.16699 26.499 -10.5c10 -8.66699 15.167 -18 15.5 -28s-4.16699 -20 -13.5 -30l-148 -157c-34.667 -38.667 -71.667 -69.834 -111 -93.501s-84 -35.5 -134 -35.5z" />
    <glyph glyph-name="quotesingle" unicode="'" horiz-adv-x="156" 
d="M81 556c-10 0 -18.667 3.5 -26 10.5s-11 15.5 -11 25.5l-10 142c0 13.333 4.66699 24.333 14 33s20 13 32 13c12.667 0 23.5 -4.33301 32.5 -13s13.5 -19.667 13.5 -33l-9 -142c0 -10 -3.5 -18.5 -10.5 -25.5s-15.5 -10.5 -25.5 -10.5z" />
    <glyph glyph-name="parenleft" unicode="(" horiz-adv-x="266" 
d="M200 -234c-9.33301 0 -17.499 2.33398 -24.499 7.00098s-13.5 12.667 -19.5 24c-38 80 -66.5 159.667 -85.5 239s-28.5 158.666 -28.5 237.999c0 80 9.5 159.667 28.5 239s47.5 158 85.5 236c9.33301 21.333 24 32 44 32c13.333 0 24.333 -4.66699 33 -14
s13 -20.333 13 -33c0 -10 -2 -18.333 -6 -25c-71.333 -144.667 -107 -290 -107 -436c0 -72 9.16699 -144.833 27.5 -218.5s45.166 -146.5 80.499 -218.5c4 -8 6 -15.667 6 -23c0 -13.333 -4.33301 -24.5 -13 -33.5s-20 -13.5 -34 -13.5z" />
    <glyph glyph-name="parenright" unicode=")" horiz-adv-x="266" 
d="M66 -234c-12.667 0 -23.502 4.49902 -32.502 13.499s-13.5 20.167 -13.5 33.5c0 7.33301 2 15 6 23c34.667 72 61.334 144.833 80.001 218.5s28 146.5 28 218.5c0 146 -35.667 291.333 -107 436c-4 6.66699 -6.33301 15 -7 25c0 12.667 4.5 23.667 13.5 33
s19.833 14 32.5 14c20.667 0 35.334 -10.667 44.001 -32c38.667 -78 67.5 -156.667 86.5 -236s28.5 -159 28.5 -239c0 -79.333 -9.66699 -158.666 -29 -237.999s-48 -159 -86 -239c-5.33301 -11.333 -11.5 -19.333 -18.5 -24s-15.5 -7 -25.5 -7z" />
    <glyph glyph-name="asterisk" unicode="*" horiz-adv-x="381" 
d="M123 485c-14 0 -25.167 4.83691 -33.5 14.5039s-12.5 20.5 -12.5 32.5c0 7.33301 1.66699 14.166 5 20.499s8.66602 11.5 15.999 15.5l50 40l-62 4c-12.667 1.33301 -23.334 6.33301 -32.001 15s-13 19 -13 31c0 14.667 4.83301 26.167 14.5 34.5s20.167 12.5 31.5 12.5
c4.66699 0 9.66699 -1 15 -3s10 -4.33301 14 -7l50 -33l-15 58c-0.666992 2.66699 -1.33398 5 -2.00098 7s-1 4.33301 -1 7c0 13.333 4.33301 24.5 13 33.5s19.667 13.5 33 13.5s24.333 -4.5 33 -13.5s13 -20.167 13 -33.5c0 -2.66699 -0.166992 -5 -0.5 -7
s-0.833008 -4.33301 -1.5 -7l-16 -59l52 35c8 6 17 9 27 9c11.333 0 22 -4.33301 32 -13s15 -20 15 -34c0 -12 -4.16699 -22.333 -12.5 -31s-19.166 -13.667 -32.499 -15l-63 -4l50 -38c14 -10.667 21 -23.334 21 -38.001c0 -12.667 -4.5 -23.667 -13.5 -33
s-21.833 -14 -38.5 -14c-9.33301 1.33301 -17.166 4.66602 -23.499 9.99902s-11.166 12.666 -14.499 21.999l-27 61l-26 -61c-3.33301 -10.667 -9 -18.667 -17 -24s-17.333 -8 -28 -8z" />
    <glyph glyph-name="plus" unicode="+" horiz-adv-x="547" 
d="M273 112c-12.667 0 -23.5 4.5 -32.5 13.5s-13.5 20.167 -13.5 33.5v143h-143c-12.667 0 -23.5 4.5 -32.5 13.5s-13.5 19.833 -13.5 32.5c0 14 4.5 25.333 13.5 34s19.833 13 32.5 13h143v143c0 12.667 4.66699 23.5 14 32.5s20 13.5 32 13.5c14 0 25.333 -4.5 34 -13.5
s13 -19.833 13 -32.5v-143h142c13.333 0 24.5 -4.5 33.5 -13.5s13.5 -20.167 13.5 -33.5c0 -12.667 -4.5 -23.5 -13.5 -32.5s-20.167 -13.5 -33.5 -13.5h-142v-143c0 -13.333 -4.33301 -24.5 -13 -33.5s-20 -13.5 -34 -13.5z" />
    <glyph glyph-name="comma" unicode="," horiz-adv-x="238" 
d="M81 -169c-7.33301 0 -13 2.33398 -17 7.00098s-6 10.334 -6 17.001c0 12 3.5 22.5 10.5 31.5s14 18.833 21 29.5s10.5 23.667 10.5 39c0 11.333 -2.5 20.833 -7.5 28.5s-10.833 14.667 -17.5 21s-12.5 13.333 -17.5 21s-7.5 17.5 -7.5 29.5
c0 17.333 5.83301 31.666 17.5 42.999s27.167 17 46.5 17c22.667 0 40.5 -8.33301 53.5 -25s19.833 -39.334 20.5 -68.001c0 -20.667 -3.16699 -42.167 -9.5 -64.5s-15 -43 -26 -62s-22.667 -34.5 -35 -46.5s-24.5 -18 -36.5 -18z" />
    <glyph glyph-name="hyphen" unicode="-" horiz-adv-x="391" 
d="M83 228c-13.333 0 -24.333 4.16699 -33 12.5s-13 19.166 -13 32.499c0 14 4.33301 25.167 13 33.5s19.667 12.5 33 12.5h227c13.333 0 24.333 -4.16699 33 -12.5s13 -19.5 13 -33.5c0 -13.333 -4.33301 -24.166 -13 -32.499s-19.667 -12.5 -33 -12.5h-227z" />
    <glyph glyph-name="period" unicode="." horiz-adv-x="230" 
d="M115 -16c-18 0 -33.333 6.33301 -46 19s-19 28 -19 46s6.5 33.5 19.5 46.5s28.167 19.5 45.5 19.5c18 0 33.333 -6.5 46 -19.5s19 -28.5 19 -46.5c0 -17.333 -6.33301 -32.5 -19 -45.5s-28 -19.5 -46 -19.5z" />
    <glyph glyph-name="slash" unicode="/" horiz-adv-x="469" 
d="M84 -76c-17.333 0 -30.333 6.83008 -39 20.4971s-9.66699 28.834 -3 45.501l306 764c3.33301 8.66699 9 15.5 17 20.5s16.667 7.5 26 7.5c16 0 28.5 -6.66699 37.5 -20s10.5 -28.666 4.5 -45.999l-306 -765c-4 -9.33301 -10 -16.166 -18 -20.499s-16.333 -6.5 -25 -6.5z
" />
    <glyph glyph-name="zero" unicode="0" horiz-adv-x="575" 
d="M287 0c-50 0 -92.667 15.5 -128 46.5s-62.333 75.667 -81 134s-28 128.5 -28 210.5s9.33301 152.167 28 210.5s45.667 103 81 134s78 46.5 128 46.5c50.667 0 93.834 -15.833 129.501 -47.5s62.667 -76.667 81 -135s27.5 -127.833 27.5 -208.5
s-9.16699 -150.167 -27.5 -208.5s-45.333 -103.333 -81 -135s-78.834 -47.5 -129.501 -47.5zM287 94c33.333 0 60.5 12.834 81.5 38.501s36.833 61 47.5 106s16 95.833 16 152.5s-5.33301 107.5 -16 152.5s-26.667 80.5 -48 106.5s-48.333 39 -81 39
c-32 0 -58.667 -12.833 -80 -38.5s-37.333 -61 -48 -106s-16 -96.167 -16 -153.5s5.33301 -108.333 16 -153s26.667 -79.834 48 -105.501s48 -38.5 80 -38.5z" />
    <glyph glyph-name="one" unicode="1" horiz-adv-x="387" 
d="M240 0c-12 0 -22.6689 4.49902 -32.002 13.499s-14 19.833 -14 32.5v626l-83 -33c-10 -4 -19 -6 -27 -6c-13.333 0 -24.5 4.33301 -33.5 13s-13.5 19.334 -13.5 32.001c0 10 2.33301 19 7 27s12.334 13.667 23.001 17l155 55c3.33301 1.33301 6.83301 2.33301 10.5 3
s6.83398 1 9.50098 1c14 0 25 -4.33301 33 -13s12 -20 12 -34v-688c0 -12.667 -4.5 -23.5 -13.5 -32.5s-20.167 -13.5 -33.5 -13.5z" />
    <glyph glyph-name="two" unicode="2" horiz-adv-x="585" 
d="M114 0c-13.333 0 -24.498 4.5 -33.498 13.5s-13.5 19.833 -13.5 32.5c0 13.333 4.33301 24.333 13 33l291 342c19.333 21.333 34.166 42.666 44.499 63.999s15.5 41.333 15.5 60c0 30 -5.33301 56.167 -16 78.5s-26.167 39.833 -46.5 52.5s-43.833 19 -70.5 19
s-50.667 -6.83301 -72 -20.5s-38 -31.834 -50 -54.501s-18 -47.667 -18 -75c0 -12 -4.5 -22.5 -13.5 -31.5s-20.167 -13.5 -33.5 -13.5c-12.667 0 -23.5 4.5 -32.5 13.5s-13.5 19.5 -13.5 31.5c0 45.333 10.167 85.666 30.5 120.999s48.166 63.333 83.499 84s75 31 119 31
c44.667 0 83.667 -9.66699 117 -29s59.333 -46.666 78 -81.999s28 -77 28 -125c0 -21.333 -4.16699 -42.666 -12.5 -63.999s-19 -41.666 -32 -60.999s-26.5 -37 -40.5 -53l-239 -274h292c13.333 0 24.5 -4.83301 33.5 -14.5s13.5 -20.5 13.5 -32.5
c0 -12.667 -4.5 -23.5 -13.5 -32.5s-20.167 -13.5 -33.5 -13.5h-375z" />
    <glyph glyph-name="three" unicode="3" horiz-adv-x="594" 
d="M307 -2c-48.667 0 -92 10.333 -130 31s-67.833 49 -89.5 85s-32.5 76.667 -32.5 122c0 13.333 4 24.666 12 33.999s18.333 14 31 14c12 0 22 -4.66699 30 -14s12 -20.666 12 -33.999c0 -28.667 7.16699 -54.834 21.5 -78.501s33.833 -42.334 58.5 -56.001
s52.334 -20.5 83.001 -20.5c46.667 0 84 13 112 39s42 61.333 42 106c0 30 -6.33301 56.5 -19 79.5s-30 41.167 -52 54.5s-47 20 -75 20c-12.667 0 -23.5 4.5 -32.5 13.5s-13.5 20.167 -13.5 33.5s4.5 24.333 13.5 33s19.833 13 32.5 13c20.667 0 40.167 5.33301 58.5 16
s33.333 24.667 45 42s17.5 37 17.5 59c0 31.333 -11.333 57.666 -34 78.999s-51.667 32 -87 32c-26.667 0 -50.667 -5.16699 -72 -15.5s-38.166 -24.166 -50.499 -41.499s-18.5 -36.666 -18.5 -57.999c0 -14 -4 -25.667 -12 -35s-18.333 -14 -31 -14c-12 0 -22 4.5 -30 13.5
s-12 20.167 -12 33.5c0 37.333 9.83301 71.166 29.5 101.499s46.334 54.333 80.001 72s71.834 26.5 114.501 26.5c39.333 0 74.666 -8.5 105.999 -25.5s56.166 -40.167 74.499 -69.5s27.5 -62.333 27.5 -99c0 -24.667 -5.66699 -47.334 -17 -68.001s-26 -38.667 -44 -54
s-37.333 -27.666 -58 -36.999c34.667 -11.333 63.167 -27.166 85.5 -47.499s38.833 -44 49.5 -71s16 -56.167 16 -87.5c0 -43.333 -10.833 -82.166 -32.5 -116.499s-50.834 -61.333 -87.501 -81s-77.334 -29.5 -122.001 -29.5z" />
    <glyph glyph-name="four" unicode="4" horiz-adv-x="651" 
d="M450 0c-12 0 -22.167 4.50195 -30.5 13.502s-12.5 19.833 -12.5 32.5v135h-343c-13.333 0 -24 4.16699 -32 12.5s-12.5 18.166 -13.5 29.499s1.83301 21.666 8.5 30.999l388 508c4.66699 6 10 10.667 16 14s13.333 5 22 5c12.667 0 23 -4.5 31 -13.5s12 -20.167 12 -33.5
v-470h68c12.667 0 23.5 -3 32.5 -9s13.5 -17 13.5 -33c0 -10.667 -4.5 -20.167 -13.5 -28.5s-19.833 -12.5 -32.5 -12.5h-68v-135c0 -12.667 -4.16699 -23.5 -12.5 -32.5s-19.5 -13.5 -33.5 -13.5zM117 236.002l-22 28h312v419l26 -33z" />
    <glyph glyph-name="five" unicode="5" horiz-adv-x="628" 
d="M319 0c-48.667 0 -92.001 11.167 -130.001 33.5s-68.167 52.666 -90.5 90.999s-33.5 81.833 -33.5 130.5c0 13.333 4.33301 24.333 13 33s19.334 13 32.001 13c14 0 25.5 -4.33301 34.5 -13s13.5 -19.667 13.5 -33c0 -30.667 7 -58.334 21 -83.001s33.167 -44 57.5 -58
s51.833 -21 82.5 -21s58.167 7 82.5 21s43.5 33.333 57.5 58s21 52.334 21 83.001s-7 58.167 -21 82.5s-33.167 43.5 -57.5 57.5s-51.833 21 -82.5 21h-170c-13.333 0 -24.333 4.5 -33 13.5s-13 20.167 -13 33.5v271c0 13.333 4.33301 24.5 13 33.5s19.667 13.5 33 13.5h340
c12.667 0 23.5 -4.66699 32.5 -14s13.5 -20 13.5 -32c0 -12.667 -4.33301 -23.5 -13 -32.5s-19.667 -13.5 -33 -13.5h-294v-180h124c48.667 0 92 -11.167 130 -33.5s68.167 -52.666 90.5 -90.999s33.5 -81.5 33.5 -129.5s-11.167 -91.333 -33.5 -130
s-52.5 -69.167 -90.5 -91.5s-81.333 -33.5 -130 -33.5z" />
    <glyph glyph-name="six" unicode="6" horiz-adv-x="580" 
d="M301 0c-46 0 -86.833 10.167 -122.5 30.5s-63.5 48.333 -83.5 84s-30 76.167 -30 121.5c0 46 10 86.833 30 122.5s47.833 63.667 83.5 84s76.5 30.5 122.5 30.5c45.333 0 85.666 -10.167 120.999 -30.5s63 -48.333 83 -84s30 -76.5 30 -122.5
c0 -45.333 -10 -85.833 -30 -121.5s-47.667 -63.667 -83 -84s-75.666 -30.5 -120.999 -30.5zM300 83c28.667 0 54 6.5 76 19.5s39.5 31.167 52.5 54.5s19.5 49.666 19.5 78.999c0 30 -6.5 56.5 -19.5 79.5s-30.5 41.167 -52.5 54.5s-47.333 20 -76 20
s-54.167 -6.66699 -76.5 -20s-39.666 -31.5 -51.999 -54.5s-18.5 -49.5 -18.5 -79.5c0 -29.333 6.16699 -55.666 18.5 -78.999s29.666 -41.5 51.999 -54.5s47.833 -19.5 76.5 -19.5zM96 361l238.002 394c10.667 16.667 24.667 25 42 25c12.667 0 23.167 -3.5 31.5 -10.5
s13.666 -16 15.999 -27s0.166016 -21.833 -6.50098 -32.5l-151 -249z" />
    <glyph glyph-name="seven" unicode="7" horiz-adv-x="555" 
d="M151 0c-12.667 0 -23.502 4.49902 -32.502 13.499s-13.5 19.833 -13.5 32.5c0 4.66699 0.833008 9.33398 2.5 14.001s3.83398 10 6.50098 16l291 613h-320c-13.333 0 -24.333 4.33301 -33 13s-13 19.667 -13 33s4.33301 24.333 13 33s19.667 13 33 13h391
c12.667 0 23.5 -4.5 32.5 -13.5s13.5 -19.833 13.5 -32.5c0 -4 -0.666992 -8 -2 -12s-2.66602 -8.33301 -3.99902 -13l-323 -684c-9.33301 -17.333 -23.333 -26 -42 -26z" />
    <glyph glyph-name="eight" unicode="8" horiz-adv-x="586" 
d="M293 -1c-44 0 -83.499 10.499 -118.499 31.499s-62.667 49.5 -83 85.5s-30.5 77 -30.5 123c0 44 10.167 83.333 30.5 118s48 62 83 82s74.5 30 118.5 30s83.5 -10 118.5 -30s62.667 -47.333 83 -82s30.166 -74 29.499 -118c0 -45.333 -10.167 -86.166 -30.5 -122.499
s-47.833 -65 -82.5 -86s-74 -31.5 -118 -31.5zM293.001 82.999c26.667 0 50.4971 6.83105 71.4971 20.498s37.667 32.334 50 56.001s18.5 50.167 18.5 79.5c0.666992 28 -5.16602 53.167 -17.499 75.5s-29 40 -50 53s-45.167 19.5 -72.5 19.5
c-26.667 0 -50.667 -6.5 -72 -19.5s-38 -30.667 -50 -53s-18 -47.5 -18 -75.5c0 -29.333 5.83301 -55.666 17.5 -78.999s28.334 -42 50.001 -56s45.834 -21 72.501 -21zM292.998 400.997c-37.333 0 -70.832 8.33496 -100.499 25.002s-53 39.167 -70 67.5
s-25.5 60.5 -25.5 96.5c0 37.333 8.5 70.666 25.5 99.999s40.333 52.5 70 69.5s63.167 25.5 100.5 25.5c38 0.666992 71.667 -7.33301 101 -24s52.5 -39.834 69.5 -69.501s25.167 -63.5 24.5 -101.5c0 -36 -8.5 -68.167 -25.5 -96.5s-40.333 -50.833 -70 -67.5
s-62.834 -25 -99.501 -25zM293.999 476.999c19.333 0 37.001 5.33594 53.001 16.0029s28.667 24.667 38 42s14 36.666 14 57.999c0.666992 20.667 -3.66602 39.167 -12.999 55.5s-22 29.166 -38 38.499s-34.333 14 -55 14c-30 0 -55 -10.333 -75 -31
s-30.333 -46.334 -31 -77.001c-0.666992 -32.667 9.16602 -60.167 29.499 -82.5s46.166 -33.5 77.499 -33.5z" />
    <glyph glyph-name="nine" unicode="9" horiz-adv-x="580" 
d="M280 782c46 0 86.667 -10.167 122 -30.5s63 -48.333 83 -84s30 -76.167 30 -121.5s-10 -86 -30 -122s-47.667 -64.167 -83 -84.5s-76 -30.5 -122 -30.5c-45.333 0 -85.833 10.167 -121.5 30.5s-63.5 48.5 -83.5 84.5s-30 76.667 -30 122s10 85.833 30 121.5
s47.667 63.667 83 84s76 30.5 122 30.5zM280 699c-28.667 0 -54 -6.5 -76 -19.5s-39.333 -31 -52 -54s-19 -49.5 -19 -79.5s6.33301 -56.5 19 -79.5s30 -41.167 52 -54.5s47.333 -20 76 -20s54.167 6.66699 76.5 20s39.833 31.5 52.5 54.5s19 49.5 19 79.5
s-6.33301 56.5 -19 79.5s-30.167 41 -52.5 54s-47.833 19.5 -76.5 19.5zM483 421l-237 -394c-10.667 -16.667 -24.667 -25 -42 -25c-12 0 -22.333 3.5 -31 10.5s-14 16.167 -16 27.5s0 22.333 6 33l151 248z" />
    <glyph glyph-name="colon" unicode=":" horiz-adv-x="195" 
d="M91 414c-17.333 0 -32.5 6.33301 -45.5 19s-19.5 28 -19.5 46s6.33301 33.5 19 46.5s28 19.5 46 19.5s33.333 -6.5 46 -19.5s19 -28.5 19 -46.5s-6.33301 -33.333 -19 -46s-28 -19 -46 -19zM99 -16c-18 0 -33.333 6.33301 -46 19s-19 28 -19 46s6.5 33.5 19.5 46.5
s28.167 19.5 45.5 19.5c18 0 33.333 -6.5 46 -19.5s19 -28.5 19 -46.5c0 -17.333 -6.33301 -32.5 -19 -45.5s-28 -19.5 -46 -19.5z" />
    <glyph glyph-name="semicolon" unicode=";" horiz-adv-x="197" 
d="M81 -169c-7.33301 0 -13 2.33398 -17 7.00098s-6 10.334 -6 17.001c0 12 3.5 22.5 10.5 31.5s14 18.833 21 29.5s10.5 23.667 10.5 39c0 11.333 -2.5 20.833 -7.5 28.5s-10.833 14.667 -17.5 21s-12.5 13.333 -17.5 21s-7.5 17.5 -7.5 29.5
c0 17.333 5.83301 31.666 17.5 42.999s27.167 17 46.5 17c22.667 0 40.5 -8.33301 53.5 -25s19.833 -39.334 20.5 -68.001c0 -20.667 -3.16699 -42.167 -9.5 -64.5s-15 -43 -26 -62s-22.667 -34.5 -35 -46.5s-24.5 -18 -36.5 -18zM95 414.001
c-17.333 0 -32.5 6.33301 -45.5 19s-19.5 28 -19.5 46s6.33301 33.5 19 46.5s28 19.5 46 19.5s33.333 -6.5 46 -19.5s19 -28.5 19 -46.5s-6.33301 -33.333 -19 -46s-28 -19 -46 -19z" />
    <glyph glyph-name="less" unicode="&#x3c;" horiz-adv-x="547" 
d="M440 82l-377 226c-16.667 10 -25 24 -25 42c0 15.333 8.33301 29 25 41l377 226c16 8 31.5 8.16699 46.5 0.5s22.5 -20.167 22.5 -37.5c0 -18.667 -7.33301 -32.667 -22 -42l-351 -208v43l351 -211c14.667 -10 22 -23.333 22 -40c0 -12.667 -3.66699 -23 -11 -31
s-16.5 -13 -27.5 -15s-21.167 0 -30.5 6z" />
    <glyph glyph-name="equal" unicode="=" horiz-adv-x="508" 
d="M84 416c-13.333 0 -24.333 4.5 -33 13.5s-13 20.167 -13 33.5s4.33301 24.333 13 33s19.667 13 33 13h341c12.667 0 23.5 -4.5 32.5 -13.5s13.5 -19.833 13.5 -32.5c0 -13.333 -4.5 -24.5 -13.5 -33.5s-19.833 -13.5 -32.5 -13.5h-341zM84 189
c-13.333 0 -24.333 4.5 -33 13.5s-13 19.833 -13 32.5c0 14 4.33301 25.333 13 34s19.667 13 33 13h341c12.667 0 23.5 -4.66699 32.5 -14s13.5 -20.333 13.5 -33s-4.5 -23.5 -13.5 -32.5s-19.833 -13.5 -32.5 -13.5h-341z" />
    <glyph glyph-name="greater" unicode="&#x3e;" horiz-adv-x="547" 
d="M108 82c-9.33301 -6 -19.5 -8 -30.5 -6s-20.333 7 -28 15s-11.5 18.333 -11.5 31c0 16.667 7.66699 30 23 40l352 211v-43l-352 208c-15.333 9.33301 -23 23.333 -23 42c0 17.333 7.66699 29.833 23 37.5s31 7.5 47 -0.5l377 -226c16 -12 24 -25.667 24 -41
c0 -18 -8 -32 -24 -42z" />
    <glyph glyph-name="question" unicode="?" horiz-adv-x="547" 
d="M274 182c-13.333 0 -24.499 4.33398 -33.499 13.001s-13.5 20 -13.5 34c0 26 6.66699 54.5 20 85.5s33 58.167 59 81.5c19.333 16.667 37.5 33.334 54.5 50.001s30.667 35.5 41 56.5s15.5 46.833 15.5 77.5c0 23.333 -5.5 45 -16.5 65s-26.5 36 -46.5 48
s-44.333 18 -73 18c-32.667 0 -60.167 -6.33301 -82.5 -19s-39.166 -30.167 -50.499 -52.5s-17 -48.5 -17 -78.5c0 -13.333 -4.33301 -24.333 -13 -33s-19.667 -13 -33 -13s-24.5 4.33301 -33.5 13s-13.5 19.667 -13.5 33c0 46.667 10.167 87.5 30.5 122.5
s48.666 62.667 84.999 83s78.833 30.5 127.5 30.5c44 0 83 -9.33301 117 -28s60.833 -44.334 80.5 -77.001s29.5 -70.334 29.5 -113.001c0 -37.333 -6.16699 -69.5 -18.5 -96.5s-29 -51.333 -50 -73s-44.833 -43.5 -71.5 -65.5c-18.667 -16 -31.334 -35.333 -38.001 -58
s-10 -41.667 -10 -57c0 -14 -4.33301 -25.333 -13 -34s-19.667 -13 -33 -13zM274.001 0.000976562c-18 0 -33.333 6.33301 -46 19s-19 28 -19 46s6.33301 33.5 19 46.5s28 19.5 46 19.5s33.333 -6.5 46 -19.5s19 -28.5 19 -46.5s-6.33301 -33.333 -19 -46s-28 -19 -46 -19z
" />
    <glyph glyph-name="at" unicode="@" horiz-adv-x="1094" 
d="M547 -234c-74 0 -141.997 12.3301 -203.997 36.9971s-115.667 59.667 -161 105s-80.333 99 -105 161s-37 130 -37 204s12.333 142 37 204s59.667 115.667 105 161s99 80.333 161 105s130 37 204 37s142 -12.333 204 -37s115.667 -59.667 161 -105s80.333 -99 105 -161
s37 -130 37 -204c0 -61.333 -8.5 -115.666 -25.5 -162.999s-40.333 -84.666 -70 -111.999s-64.5 -41 -104.5 -41c-35.333 0 -64.5 10 -87.5 30s-34.5 47 -34.5 81v42c-12.667 -22 -29.334 -41.667 -50.001 -59s-43.334 -30.833 -68.001 -40.5s-49.334 -14.5 -74.001 -14.5
c-52.667 0 -99.334 11.833 -140.001 35.5s-72.334 56.334 -95.001 98.001s-34 89.5 -34 143.5c0 54.667 11.833 102.667 35.5 144s56.334 74 98.001 98s89.167 36 142.5 36c54.667 0 102.667 -12 144 -36s74 -56.667 98 -98s36 -89.333 36 -144v-164
c0 -18.667 3 -32.834 9 -42.501s15.667 -14.5 29 -14.5c18 0 34.333 9.33301 49 28s26.334 44.834 35.001 78.501s13 71.834 13 114.501c0 60.667 -10 116.167 -30 166.5s-48.5 94 -85.5 131s-80.667 65.5 -131 85.5s-105.833 30 -166.5 30c-60 0 -115.333 -10 -166 -30
s-94.334 -48.5 -131.001 -85.5s-65.167 -80.667 -85.5 -131s-30.5 -105.833 -30.5 -166.5c0 -60 10.167 -115.333 30.5 -166s48.833 -94.334 85.5 -131.001s80.334 -65.167 131.001 -85.5s106 -30.5 166 -30.5c28 0 57.833 3.33301 89.5 10s58.5 15 80.5 25
c20.667 10 37.5 11.333 50.5 4s19.5 -22 19.5 -44c0 -16.667 -10.167 -31.667 -30.5 -45s-48.5 -24 -84.5 -32s-77.667 -12 -125 -12zM547.003 90.9971c36 0 67.667 7.66699 95 23s48.833 36.833 64.5 64.5s23.5 59.167 23.5 94.5c0 36 -7.83301 67.667 -23.5 95
s-37.167 48.833 -64.5 64.5s-59 23.5 -95 23.5s-67.667 -7.83301 -95 -23.5s-48.666 -37.167 -63.999 -64.5s-23 -59 -23 -95c0 -35.333 7.66699 -66.833 23 -94.5s36.666 -49.167 63.999 -64.5s59 -23 95 -23z" />
    <glyph glyph-name="A" unicode="A" horiz-adv-x="703" 
d="M64 0c-17.333 0 -30.333 7.33301 -39 22s-9.33398 30 -2.00098 46l286 681c8.66699 21.333 23.334 32 44.001 32c22 0 37 -10.667 45 -32l287 -683c6.66699 -16 5.5 -31 -3.5 -45s-22.167 -21 -39.5 -21c-8.66699 0 -17 2.5 -25 7.5s-14 12.167 -18 21.5l-259 636h29
l-261 -636c-4 -10 -10 -17.333 -18 -22s-16.667 -7 -26 -7zM122 177l37 79h397l36 -79h-470z" />
    <glyph glyph-name="B" unicode="B" horiz-adv-x="712" 
d="M149 0c-14 0 -25.667 4.5 -35 13.5s-14 20.167 -14 33.5v687c0 14 4.5 25.333 13.5 34s20.167 13 33.5 13h241c42.667 0 80.834 -8.66699 114.501 -26s60.167 -41.333 79.5 -72s29 -66 29 -106c0 -34 -9.16699 -64.5 -27.5 -91.5s-42.833 -47.833 -73.5 -62.5
c44 -11.333 79.5 -33 106.5 -65s40.5 -73.333 40.5 -124c0 -46 -10.667 -86.5 -32 -121.5s-50.833 -62.5 -88.5 -82.5s-80.834 -30 -129.501 -30h-258zM194 88h213c31.333 0 58.833 5.66699 82.5 17s42.334 27.833 56.001 49.5s20.5 48.167 20.5 79.5
c0 29.333 -6.83301 54 -20.5 74s-32.334 35.333 -56.001 46s-51.167 16 -82.5 16h-213v-282zM194 458h194c38.667 0 70.5 10.167 95.5 30.5s37.5 49.833 37.5 88.5s-12.5 67.667 -37.5 87s-56.833 29 -95.5 29h-194v-235z" />
    <glyph glyph-name="C" unicode="C" horiz-adv-x="774" 
d="M450 -10c-54 0 -104.498 10.1689 -151.498 30.502s-88 48.833 -123 85.5s-62.5 79.334 -82.5 128.001s-30 101 -30 157c0 55.333 9.83301 107.166 29.5 155.499s47.167 90.833 82.5 127.5s76.333 65.334 123 86.001s97.334 31 152.001 31c50 0 94 -6.83301 132 -20.5
s75.667 -35.834 113 -66.501c5.33301 -4 9.16602 -8.5 11.499 -13.5s3.33301 -10 3 -15s-1.5 -9.83301 -3.5 -14.5c-0.666992 -10 -4.83398 -18 -12.501 -24s-16.667 -9.16699 -27 -9.5s-20.5 3.16699 -30.5 10.5c-25.333 22 -52 38.667 -80 50s-63.333 17 -106 17
c-40.667 0 -78.834 -8.33301 -114.501 -25s-67.167 -39.334 -94.5 -68.001s-48.666 -62 -63.999 -100s-23 -78.333 -23 -121c0 -44 7.66699 -84.833 23 -122.5s36.666 -71 63.999 -100s58.833 -51.5 94.5 -67.5s73.834 -24 114.501 -24c35.333 0 68.666 5.83301 99.999 17.5
s61 28.167 89 49.5c10.667 8 21.334 11.5 32.001 10.5s19.667 -5.33301 27 -13s11 -18.167 11 -31.5c0 -6 -1 -11.833 -3 -17.5s-5.66699 -10.834 -11 -15.501c-34.667 -30 -72.834 -52 -114.501 -66s-85.167 -21 -130.5 -21z" />
    <glyph glyph-name="D" unicode="D" horiz-adv-x="778" 
d="M147 0c-13.333 0 -24.5 4.49902 -33.5 13.499s-13.5 20.167 -13.5 33.5v687c0 14 4.5 25.333 13.5 34s20.167 13 33.5 13h181c57.333 0 109.5 -9.5 156.5 -28.5s87.833 -46 122.5 -81s61.5 -76.167 80.5 -123.5s28.5 -99.666 28.5 -156.999s-9.5 -109.833 -28.5 -157.5
s-45.833 -89 -80.5 -124s-75.5 -62 -122.5 -81s-99.167 -28.5 -156.5 -28.5h-181zM194 83.999l134 0.00195312c58 0 109.167 13.167 153.5 39.5s79.333 62.666 105 108.999s38.5 99.166 38.5 158.499c0 60 -12.833 113 -38.5 159s-60.667 82 -105 108s-95.5 39 -153.5 39
h-134v-613z" />
    <glyph glyph-name="E" unicode="E" horiz-adv-x="697" 
d="M147 0c-13.333 0 -24.5 4.49805 -33.5 13.498s-13.5 20.167 -13.5 33.5v687c0 14 4.5 25.333 13.5 34s20.167 13 33.5 13h459c13.333 0 24.333 -4.16699 33 -12.5s13 -19.166 13 -32.499c0 -12 -4.33301 -22.167 -13 -30.5s-19.667 -12.5 -33 -12.5h-412v-256h297
c14 0 25.167 -4.16699 33.5 -12.5s12.5 -18.833 12.5 -31.5s-4.16699 -23.167 -12.5 -31.5s-19.5 -12.5 -33.5 -12.5h-297v-261h412c13.333 0 24.333 -4.16699 33 -12.5s13 -18.5 13 -30.5c0 -13.333 -4.33301 -24.166 -13 -32.499s-19.667 -12.5 -33 -12.5h-459z" />
    <glyph glyph-name="F" unicode="F" horiz-adv-x="625" 
d="M84 0c-12.667 0 -23.667 4.49902 -33 13.499s-14 20.167 -14 33.5v687c0 14 4.5 25.333 13.5 34s20.167 13 33.5 13h459c14 0 25.167 -4.16699 33.5 -12.5s12.5 -19.166 12.5 -32.499c0 -12 -4.16699 -22.167 -12.5 -30.5s-19.5 -12.5 -33.5 -12.5h-412v-256h297
c14 0 25.333 -4.16699 34 -12.5s13 -18.833 13 -31.5s-4.33301 -23.167 -13 -31.5s-20 -12.5 -34 -12.5h-297v-302c0 -13.333 -4.5 -24.5 -13.5 -33.5s-20.167 -13.5 -33.5 -13.5z" />
    <glyph glyph-name="G" unicode="G" horiz-adv-x="774" 
d="M450 -10c-54 0 -104.497 10.1699 -151.497 30.5029s-88 48.833 -123 85.5s-62.5 79.334 -82.5 128.001s-30 101 -30 157c0 55.333 9.83301 107.166 29.5 155.499s47.167 90.833 82.5 127.5s76.333 65.334 123 86.001s97.334 31 152.001 31c50 0 94 -6.83301 132 -20.5
s75.667 -35.834 113 -66.501c5.33301 -4 9.16602 -8.5 11.499 -13.5s3.33301 -10 3 -15s-1.5 -9.83301 -3.5 -14.5c-0.666992 -10 -4.83398 -18.167 -12.501 -24.5s-16.834 -9.5 -27.501 -9.5s-20.667 3.66699 -30 11c-25.333 22 -52 38.667 -80 50s-63.333 17 -106 17
c-40.667 0 -78.834 -8.33301 -114.501 -25s-67.167 -39.334 -94.5 -68.001s-48.666 -62 -63.999 -100s-23 -78.333 -23 -121c0 -44 7.66699 -84.833 23 -122.5s36.666 -71 63.999 -100s58.833 -51.5 94.5 -67.5s73.834 -24 114.501 -24c35.333 0 68.666 5.83301 99.999 17.5
s61 28.167 89 49.5c10.667 8 21.334 11.5 32.001 10.5s19.667 -5.33301 27 -13s11 -18.167 11 -31.5c0 -6 -0.833008 -11.833 -2.5 -17.5s-5.5 -10.834 -11.5 -15.501c-34.667 -30.667 -72.834 -52.834 -114.501 -66.501s-85.167 -20.5 -130.5 -20.5zM709.003 110.003
l-90 19v187h-145c-13.333 0 -24.5 4 -33.5 12s-13.5 18 -13.5 30s4.5 21.833 13.5 29.5s20.167 11.5 33.5 11.5h189c14 0 25.167 -4.33301 33.5 -13s12.5 -19.667 12.5 -33v-243z" />
    <glyph glyph-name="H" unicode="H" horiz-adv-x="861" 
d="M147 0c-13.333 0 -24.5 4.5 -33.5 13.5s-13.5 20.167 -13.5 33.5v687c0 14 4.5 25.333 13.5 34s20.167 13 33.5 13c14 0 25.333 -4.33301 34 -13s13 -20 13 -34v-297h473v297c0 14 4.5 25.333 13.5 34s20.167 13 33.5 13c14 0 25.333 -4.33301 34 -13s13 -20 13 -34v-687
c0 -13.333 -4.33301 -24.5 -13 -33.5s-20 -13.5 -34 -13.5c-13.333 0 -24.5 4.5 -33.5 13.5s-13.5 20.167 -13.5 33.5v307h-473v-307c0 -13.333 -4.33301 -24.5 -13 -33.5s-20 -13.5 -34 -13.5z" />
    <glyph glyph-name="I" unicode="I" horiz-adv-x="294" 
d="M147 0c-13.333 0 -24.5 4.5 -33.5 13.5s-13.5 20.167 -13.5 33.5v687c0 14 4.5 25.333 13.5 34s20.167 13 33.5 13c14 0 25.333 -4.33301 34 -13s13 -20 13 -34v-687c0 -13.333 -4.33301 -24.5 -13 -33.5s-20 -13.5 -34 -13.5z" />
    <glyph glyph-name="J" unicode="J" horiz-adv-x="621" 
d="M283 -10c-46 0 -87 10.167 -123 30.5s-64.167 48.5 -84.5 84.5s-30.5 77 -30.5 123c0 13.333 4.5 24.5 13.5 33.5s20.167 13.5 33.5 13.5c14 0 25.333 -4.5 34 -13.5s13 -20.167 13 -33.5c0 -29.333 6.33301 -55.5 19 -78.5s29.834 -41 51.501 -54
s46.167 -19.5 73.5 -19.5c28 0 52.833 6.66699 74.5 20s38.667 31.333 51 54s18.5 48.667 18.5 78v506c0 14 4.5 25.333 13.5 34s20.167 13 33.5 13s24.5 -4.33301 33.5 -13s13.5 -20 13.5 -34v-506c0 -46 -10.333 -87 -31 -123s-48.834 -64.167 -84.501 -84.5
s-76.5 -30.5 -122.5 -30.5z" />
    <glyph glyph-name="K" unicode="K" horiz-adv-x="662" 
d="M147 0c-12.667 0 -23.6709 4.5 -33.0039 13.5s-14 20.167 -14 33.5v687c0 13.333 4.66699 24.5 14 33.5s20.333 13.5 33 13.5c13.333 0 24.5 -4.5 33.5 -13.5s13.5 -20.167 13.5 -33.5v-315l344 344c7.33301 6.66699 13.833 11.334 19.5 14.001s11.834 4 18.501 4
c15.333 0 26.333 -4.5 33 -13.5s9.33398 -19.667 8.00098 -32s-6.66602 -23.833 -15.999 -34.5l-263 -263l267 -363c7.33301 -10.667 10.333 -21.834 9 -33.501s-5.66602 -21.5 -12.999 -29.5s-17 -12 -29 -12c-17.333 0 -30.333 6.66699 -39 20l-260 353l-79 -79v-247
c0 -13.333 -4.5 -24.5 -13.5 -33.5s-20.167 -13.5 -33.5 -13.5z" />
    <glyph glyph-name="L" unicode="L" horiz-adv-x="639" 
d="M146 0c-12.667 0 -23.5 4.5 -32.5 13.5s-13.5 20.167 -13.5 33.5v687c0 13.333 4.5 24.5 13.5 33.5s19.833 13.5 32.5 13.5c13.333 0 24.5 -4.5 33.5 -13.5s13.5 -20.167 13.5 -33.5v-642h374c12.667 0 23.667 -4.33301 33 -13s14 -19.667 14 -33
c0 -12.667 -4.66699 -23.5 -14 -32.5s-20.333 -13.5 -33 -13.5h-421z" />
    <glyph glyph-name="M" unicode="M" horiz-adv-x="982" 
d="M147 0c-13.333 0 -24.5 4.5 -33.5 13.5s-13.5 20.167 -13.5 33.5v687c0 14 4.5 25.333 13.5 34s20.167 13 33.5 13c18.667 0 32.667 -8.33301 42 -25l322 -643h-33l315 643c10 16.667 24 25 42 25c13.333 0 24.5 -4.33301 33.5 -13s13.5 -20 13.5 -34v-687
c0 -13.333 -4.66699 -24.5 -14 -33.5s-20.333 -13.5 -33 -13.5c-13.333 0 -24.5 4.5 -33.5 13.5s-13.5 20.167 -13.5 33.5v560l18 2l-274 -560c-10 -16 -23.667 -24 -41 -24c-20 0 -34.333 9.66699 -43 29l-274 548l20 5v-560c0 -13.333 -4.5 -24.5 -13.5 -33.5
s-20.167 -13.5 -33.5 -13.5z" />
    <glyph glyph-name="N" unicode="N" horiz-adv-x="828" 
d="M146 0c-13.333 0 -24.332 4.5 -32.999 13.5s-13 20.167 -13 33.5v687c0 14 4.33301 25.333 13 34s19.667 13 33 13c14.667 0 27 -5.66699 37 -17l452 -599v569c0 14 4.5 25.333 13.5 34s20.167 13 33.5 13s24.333 -4.33301 33 -13s13 -20 13 -34v-687
c0 -13.333 -4.33301 -24.5 -13 -33.5s-19.667 -13.5 -33 -13.5c-6.66699 -0 -13.334 1.33301 -20.001 4s-12 6.66699 -16 12l-453 599v-568c0 -13.333 -4.33301 -24.5 -13 -33.5s-20 -13.5 -34 -13.5z" />
    <glyph glyph-name="O" unicode="O" horiz-adv-x="921" 
d="M461 -10c-58.667 0 -112.334 9.83301 -161.001 29.5s-90.5 47.5 -125.5 83.5s-62.333 78.333 -82 127s-29.5 102.334 -29.5 161.001c0 58 9.83301 111.333 29.5 160s47 91 82 127s76.833 63.833 125.5 83.5s102.334 29.5 161.001 29.5c58 0 111.333 -9.83301 160 -29.5
s90.667 -47.5 126 -83.5s62.833 -78.333 82.5 -127s29.5 -102 29.5 -160c0 -58.667 -9.83301 -112.334 -29.5 -161.001s-47.167 -91 -82.5 -127s-77.333 -63.833 -126 -83.5s-102 -29.5 -160 -29.5zM461 76c44.667 0 85.667 8 123 24s69.833 38.167 97.5 66.5
s49 61.666 64 99.999s22.5 79.833 22.5 124.5s-7.5 86 -22.5 124s-36.333 71.333 -64 100s-60.167 50.834 -97.5 66.501s-78.333 23.5 -123 23.5s-85.667 -7.83301 -123 -23.5s-69.666 -37.834 -96.999 -66.501s-48.666 -62 -63.999 -100s-23 -79.333 -23 -124
s7.66699 -86.167 23 -124.5s36.666 -71.666 63.999 -99.999s59.666 -50.5 96.999 -66.5s78.333 -24 123 -24z" />
    <glyph glyph-name="P" unicode="P" horiz-adv-x="619" 
d="M147 0c-13.333 0 -24.5 4.5 -33.5 13.5s-13.5 20.167 -13.5 33.5v687c0 13.333 4.5 24.5 13.5 33.5s20.167 13.5 33.5 13.5h200c50 0 94.167 -11 132.5 -33s68.166 -52.167 89.499 -90.5s32 -82.833 32 -133.5c0 -48.667 -10.667 -92 -32 -130
s-51.166 -67.667 -89.499 -89s-82.5 -32 -132.5 -32h-153v-226c0 -13.333 -4.33301 -24.5 -13 -33.5s-20 -13.5 -34 -13.5zM194 361l153 0.00195312c32 0 60.333 7 85 21s44 33.333 58 58s21 52.667 21 84c0 33.333 -7 62.666 -21 87.999s-33.333 45.166 -58 59.499
s-53 21.5 -85 21.5h-153v-332z" />
    <glyph glyph-name="Q" unicode="Q" horiz-adv-x="921" 
d="M742 14l-212 212c-9.33301 9.33301 -14 20 -14 32s4.66699 22.667 14 32s20 14 32 14s22.667 -4.66699 32 -14l213 -212c8.66699 -10 13.167 -20.667 13.5 -32s-4.16699 -22 -13.5 -32c-10 -9.33301 -20.833 -14 -32.5 -14s-22.5 4.66699 -32.5 14zM461 -10
c-58.667 0 -112.334 9.83301 -161.001 29.5s-90.5 47.5 -125.5 83.5s-62.333 78.333 -82 127s-29.5 102.334 -29.5 161.001c0 58 9.83301 111.333 29.5 160s47 91 82 127s76.833 63.833 125.5 83.5s102.334 29.5 161.001 29.5c58 0 111.333 -9.83301 160 -29.5
s90.667 -47.5 126 -83.5s62.833 -78.333 82.5 -127s29.5 -102 29.5 -160c0 -58.667 -9.83301 -112.334 -29.5 -161.001s-47.167 -91 -82.5 -127s-77.333 -63.833 -126 -83.5s-102 -29.5 -160 -29.5zM461 76c44.667 0 85.667 8 123 24s69.833 38.167 97.5 66.5
s49 61.666 64 99.999s22.5 79.833 22.5 124.5s-7.5 86 -22.5 124s-36.333 71.333 -64 100s-60.167 50.834 -97.5 66.501s-78.333 23.5 -123 23.5s-85.667 -7.83301 -123 -23.5s-69.666 -37.834 -96.999 -66.501s-48.666 -62 -63.999 -100s-23 -79.333 -23 -124
s7.66699 -86.167 23 -124.5s36.666 -71.666 63.999 -99.999s59.666 -50.5 96.999 -66.5s78.333 -24 123 -24z" />
    <glyph glyph-name="R" unicode="R" horiz-adv-x="627" 
d="M147 0c-13.333 0 -24.5 4.5 -33.5 13.5s-13.5 20.167 -13.5 33.5v687c0 14 4.5 25.333 13.5 34s20.167 13 33.5 13h183c49.333 0 93.166 -10.333 131.499 -31s68.333 -49.334 90 -86.001s32.5 -79 32.5 -127c0 -45.333 -10.833 -85.666 -32.5 -120.999
s-51.667 -63 -90 -83s-82.166 -30 -131.499 -30h-136v-256c0 -13.333 -4.33301 -24.5 -13 -33.5s-20 -13.5 -34 -13.5zM563 0c-8.66699 0 -16.333 1.83301 -23 5.5s-12.667 9.5 -18 17.5l-184 296l92 26l170 -273c11.333 -18 13 -34.5 5 -49.5s-22 -22.5 -42 -22.5z
M194.001 391h136c32 0 60.167 6.16699 84.5 18.5s43.5 29.666 57.5 51.999s21 47.5 21 75.5c0 30.667 -7 57.834 -21 81.501s-33.167 42 -57.5 55s-52.5 19.5 -84.5 19.5h-136v-302z" />
    <glyph glyph-name="S" unicode="S" horiz-adv-x="678" 
d="M345 -10c-42.667 0 -82.832 6.50098 -120.499 19.501s-70.5 31.167 -98.5 54.5s-48.667 50.666 -62 81.999c-6.66699 12.667 -6.83398 24.334 -0.500977 35.001s16.833 17.667 31.5 21c11.333 2.66699 22.333 1.16699 33 -4.5s18.667 -14.167 24 -25.5
c8.66699 -18 22.334 -34.167 41.001 -48.5s41.167 -25.833 67.5 -34.5s54.5 -13 84.5 -13c33.333 0 63.5 5.33301 90.5 16s48.667 26.167 65 46.5s24.5 45.166 24.5 74.499c0 37.333 -14.333 70.333 -43 99s-74.667 46.667 -138 54c-80.667 8.66699 -144 33 -190 73
s-69 89.333 -69 148c0 42.667 11.667 79.167 35 109.5s55.333 53.5 96 69.5s86.667 24 138 24c38.667 0 73.167 -5.66699 103.5 -17s56.666 -26.833 78.999 -46.5s41.5 -42.167 57.5 -67.5c8 -13.333 11.167 -25.833 9.5 -37.5s-7.83398 -20.834 -18.501 -27.501
c-12 -6.66699 -24.5 -8 -37.5 -4s-22.833 11.667 -29.5 23c-10 18 -22.667 33.667 -38 47s-33.5 24 -54.5 32s-45.833 12 -74.5 12c-50.667 0.666992 -92.334 -9.16602 -125.001 -29.499s-49 -50.833 -49 -91.5c0 -21.333 5.5 -41.166 16.5 -59.499s30.333 -34.333 58 -48
s66.5 -23.5 116.5 -29.5c80.667 -9.33301 142.334 -33.833 185.001 -73.5s64 -91.834 64 -156.501c0 -37.333 -7.16699 -70 -21.5 -98s-34.166 -51.5 -59.499 -70.5s-54.5 -33.333 -87.5 -43s-67.5 -14.5 -103.5 -14.5z" />
    <glyph glyph-name="T" unicode="T" horiz-adv-x="659" 
d="M329 0c-12.667 0 -23.667 4.5 -33 13.5s-14 20.167 -14 33.5v734h94v-734c0 -13.333 -4.33301 -24.5 -13 -33.5s-20 -13.5 -34 -13.5zM58 695c-12.667 0 -23 4 -31 12s-12 18.333 -12 31s4 23 12 31s18.333 12 31 12h542c13.333 0 24 -4 32 -12s12 -18.333 12 -31
s-4 -23 -12 -31s-18.667 -12 -32 -12h-542z" />
    <glyph glyph-name="U" unicode="U" horiz-adv-x="835" 
d="M421 -16c-62.667 0 -118.168 11.833 -166.501 35.5s-86.166 56.334 -113.499 98.001s-41 89.167 -41 142.5v474c0 13.333 4.5 24.5 13.5 33.5s20.167 13.5 33.5 13.5c14 0 25.333 -4.5 34 -13.5s13 -20.167 13 -33.5v-474c0 -37.333 9.66699 -70.166 29 -98.499
s46.166 -50.666 80.499 -66.999s73.5 -24.5 117.5 -24.5c42.667 0 80.667 8.16699 114 24.5s59.5 38.666 78.5 66.999s28.5 61.166 28.5 98.499v474c0 13.333 4.5 24.5 13.5 33.5s20.167 13.5 33.5 13.5c14 0 25.167 -4.5 33.5 -13.5s12.5 -20.167 12.5 -33.5v-474
c0 -53.333 -13.333 -100.833 -40 -142.5s-63.667 -74.334 -111 -98.001s-101.666 -35.5 -162.999 -35.5z" />
    <glyph glyph-name="V" unicode="V" horiz-adv-x="729" 
d="M365 0c-20 0 -34.334 10 -43.001 30l-295 680c-8.66699 20.667 -9.5 37.667 -2.5 51s20.167 20 39.5 20c20.667 0 35 -9.66699 43 -29l264 -633h-15l267 633c4.66699 10.667 10.334 18.167 17.001 22.5s15.667 6.5 27 6.5c18 0 30.5 -6.66699 37.5 -20
s6.83301 -28 -0.5 -44l-297 -687c-4.66699 -10 -10.5 -17.5 -17.5 -22.5s-15.167 -7.5 -24.5 -7.5z" />
    <glyph glyph-name="W" unicode="W" horiz-adv-x="938" 
d="M266 0c-10.667 0 -20.1689 3.33398 -28.502 10.001s-14.5 16 -18.5 28l-202 677c-6 20 -5.5 36 1.5 48s18.833 18 35.5 18c10 0 19.167 -2.83301 27.5 -8.5s14.5 -14.834 18.5 -27.501l178 -623h-22l167 613c2.66699 9.33301 8.16699 16.833 16.5 22.5
s17.833 8.5 28.5 8.5c9.33301 0 18.5 -2.5 27.5 -7.5s14.5 -12.833 16.5 -23.5l168 -613h-21l180 628c6 20.667 21.333 31 46 31c16.667 0 27.667 -6.5 33 -19.5s5.66602 -28.5 0.999023 -46.5l-202 -676c-4 -12 -10.167 -21.5 -18.5 -28.5s-17.833 -10.5 -28.5 -10.5
c-11.333 0 -21.166 3.66699 -29.499 11s-14.166 16.333 -17.499 27l-166 627h24l-167 -626c-4 -12 -10.167 -21.5 -18.5 -28.5s-18.166 -10.5 -29.499 -10.5z" />
    <glyph glyph-name="X" unicode="X" horiz-adv-x="713" 
d="M92 0c-14 0 -24.6699 4.33203 -32.0029 12.999s-11.166 18.834 -11.499 30.501s3.5 22.5 11.5 32.5l255 344l42 35l231 311c8.66699 10 20.334 15 35.001 15c12.667 0 22.667 -4 30 -12s11.333 -17.833 12 -29.5s-2.66602 -22.5 -9.99902 -32.5l-244 -328l-39 -34
l-247 -331c-9.33301 -9.33301 -20.333 -14 -33 -14zM621.997 -0.000976562c-7.33301 0 -14 1.33398 -20 4.00098s-11.333 7 -16 13l-239 332l-35 27l-238 331c-7.33301 10 -10.5 20.667 -9.5 32s5.33301 21.166 13 29.499s17.834 12.5 30.501 12.5
c15.333 0 26.666 -5 33.999 -15l227 -314l34 -27l252 -349c7.33301 -10 10.833 -21 10.5 -33s-4.33301 -22.167 -12 -30.5s-18.167 -12.5 -31.5 -12.5z" />
    <glyph glyph-name="Y" unicode="Y" horiz-adv-x="662" 
d="M330 0c-12.667 0 -23.498 4.5 -32.498 13.5s-13.5 20.167 -13.5 33.5v240l-269 421c-8 12 -11 23.667 -9 35s7.16699 20.5 15.5 27.5s18.5 10.5 30.5 10.5c10 0 18 -2.16699 24 -6.5s11.667 -10.5 17 -18.5l260 -415h-41l262 417c5.33301 7.33301 11.333 13 18 17
s14.667 6 24 6c11.333 0 20.666 -3.83301 27.999 -11.5s11.666 -17 12.999 -28s-1.66699 -22.167 -9 -33.5l-271 -421v-240c0 -13.333 -4.5 -24.5 -13.5 -33.5s-20.167 -13.5 -33.5 -13.5z" />
    <glyph glyph-name="Z" unicode="Z" horiz-adv-x="735" 
d="M99 0c-14 0 -24.999 4.50293 -32.999 13.5029s-12.5 19.333 -13.5 31s2.16699 22.167 9.5 31.5l500 621h-455c-15.333 0 -26.833 3.83301 -34.5 11.5s-11.167 17.5 -10.5 29.5c-0.666992 12 3.5 22.167 12.5 30.5s20.167 12.5 33.5 12.5h526
c14 0 25.167 -4.33301 33.5 -13s13.166 -18.834 14.499 -30.501s-1.66699 -21.834 -9 -30.501l-502 -623h463c14 0 25.333 -4 34 -12s13 -18 13 -30c0 -12.667 -4.33301 -22.834 -13 -30.501s-20 -11.5 -34 -11.5h-535z" />
    <glyph glyph-name="bracketleft" unicode="[" horiz-adv-x="314" 
d="M112 -234c-13.333 0 -24.5 4.5 -33.5 13.5s-13.5 20.167 -13.5 33.5v921c0 14 4.5 25.5 13.5 34.5s20.167 13.5 33.5 13.5h154c14 0 25.5 -4.5 34.5 -13.5s13.5 -20.5 13.5 -34.5c0 -13.333 -4.5 -24.333 -13.5 -33s-20.5 -13 -34.5 -13h-107v-828h107
c14 0 25.5 -4.33301 34.5 -13s13.5 -20 13.5 -34c0 -13.333 -4.5 -24.5 -13.5 -33.5s-20.5 -13.5 -34.5 -13.5h-154z" />
    <glyph glyph-name="backslash" unicode="\" horiz-adv-x="469" 
d="M388 -79c-8 0 -16.333 2.33398 -25 7.00098s-15 11.667 -19 21l-308 766c-2 5.33301 -3 11.666 -3 18.999c0 14 4.5 25.5 13.5 34.5s20.167 13.5 33.5 13.5c10 0 18.833 -2.33301 26.5 -7s13.167 -11.667 16.5 -21l307 -767c3.33301 -6.66699 5 -13 5 -19
c0 -13.333 -4.5 -24.5 -13.5 -33.5s-20.167 -13.5 -33.5 -13.5z" />
    <glyph glyph-name="bracketright" unicode="]" horiz-adv-x="314" 
d="M47 -234c-13.333 0 -24.5 4.5 -33.5 13.5s-13.5 20.167 -13.5 33.5c0 14 4.5 25.333 13.5 34s20.167 13 33.5 13h108v828h-108c-13.333 0 -24.5 4.33301 -33.5 13s-13.5 19.667 -13.5 33c0 14 4.5 25.5 13.5 34.5s20.167 13.5 33.5 13.5h155
c13.333 0 24.5 -4.5 33.5 -13.5s13.5 -20.5 13.5 -34.5v-921c0 -13.333 -4.5 -24.5 -13.5 -33.5s-20.167 -13.5 -33.5 -13.5h-155z" />
    <glyph glyph-name="asciicircum" unicode="^" horiz-adv-x="469" 
d="M86 461c-13.333 0 -24.501 4.49902 -33.501 13.499s-13.5 19.833 -13.5 32.5c0 5.33301 0.666992 10 2 14s3 7.66699 5 11l153 230c9.33301 12.667 22 19 38 19c8 0 15.167 -1.66699 21.5 -5s11.833 -8 16.5 -14l153 -230c4.66699 -7.33301 7 -15.666 7 -24.999
c0 -12.667 -4.5 -23.5 -13.5 -32.5s-20.167 -13.5 -33.5 -13.5c-15.333 0 -27.666 6 -36.999 18l-114 171l-115 -171c-8.66699 -12 -20.667 -18 -36 -18z" />
    <glyph glyph-name="underscore" unicode="_" horiz-adv-x="469" 
d="M5 -93c-13.333 0 -24.333 4.66699 -33 14s-13 20.333 -13 33s4.33301 23.5 13 32.5s19.667 13.5 33 13.5h473c12.667 0 23.5 -4.5 32.5 -13.5s13.5 -19.833 13.5 -32.5s-4.5 -23.667 -13.5 -33s-19.833 -14 -32.5 -14h-473z" />
    <glyph glyph-name="grave" unicode="`" horiz-adv-x="273" 
d="M185 586c-12.667 0 -23 4.33301 -31 13l-104 103c-8 8 -12 18.667 -12 32s4.33301 24.5 13 33.5s19.334 13.5 32.001 13.5c13.333 0 24.666 -4.33301 33.999 -13l103 -104c8 -8 12 -18.333 12 -31c0 -13.333 -4.5 -24.5 -13.5 -33.5s-20.167 -13.5 -33.5 -13.5z" />
    <glyph glyph-name="a" unicode="a" 
d="M323 -4c-50 0 -94.666 12.001 -133.999 36.001s-70.333 57 -93 99s-34 89.333 -34 142c0 53.333 12.167 100.833 36.5 142.5s57.333 74.667 99 99s88.5 36.5 140.5 36.5c52.667 0 99.667 -12.167 141 -36.5s74.166 -57.5 98.499 -99.5s36.833 -89.333 37.5 -142l-36 -9
c0 -50.667 -11.333 -96.334 -34 -137.001s-53.167 -72.667 -91.5 -96s-81.833 -35 -130.5 -35zM338.001 78.001c36 0 68 8.5 96 25.5s50.167 40.333 66.5 70s24.5 62.834 24.5 99.501c0 37.333 -8.16699 70.833 -24.5 100.5s-38.5 53 -66.5 70s-60 25.5 -96 25.5
c-34.667 0 -66.334 -8.5 -95.001 -25.5s-51.167 -40.333 -67.5 -70s-24.5 -63.167 -24.5 -100.5c0 -36.667 8.16699 -69.834 24.5 -99.501s38.833 -53 67.5 -70s60.334 -25.5 95.001 -25.5zM568.001 -0.999023c-13.333 0 -24.333 4.33301 -33 13s-13 19.667 -13 33v160
l19 96l74 -28v-228c0 -13.333 -4.5 -24.333 -13.5 -33s-20.167 -13 -33.5 -13z" />
    <glyph glyph-name="b" unicode="b" horiz-adv-x="705" 
d="M366 -4c-52 0 -98.8311 12.002 -140.498 36.002s-74.5 57 -98.5 99s-36.333 89 -37 141v463c0 14 4.33301 25.167 13 33.5s19.667 12.5 33 12.5c14 0 25.167 -4.16699 33.5 -12.5s12.5 -19.5 12.5 -33.5v-280c23.333 29.333 52 52.666 86 69.999s72 26 114 26
c49.333 0 93.666 -12.167 132.999 -36.5s70.5 -57.333 93.5 -99s34.5 -88.834 34.5 -141.501s-12.167 -100 -36.5 -142s-57.333 -75.167 -99 -99.5s-88.834 -36.5 -141.501 -36.5zM366.002 78.002c35.333 0 67.166 8.5 95.499 25.5s50.666 40.333 66.999 70
s24.5 63.167 24.5 100.5s-8.16699 70.666 -24.5 99.999s-38.666 52.5 -66.999 69.5s-60.166 25.5 -95.499 25.5s-67.166 -8.5 -95.499 -25.5s-50.5 -40.167 -66.5 -69.5s-24 -62.666 -24 -99.999s8 -70.833 24 -100.5s38.167 -53 66.5 -70s60.166 -25.5 95.499 -25.5z" />
    <glyph glyph-name="c" unicode="c" horiz-adv-x="599" 
d="M336 -4c-52.667 0 -99.665 12.166 -140.998 36.499s-73.833 57.333 -97.5 99s-35.5 88.834 -35.5 141.501c0 54 11.5 102 34.5 144s54.5 74.833 94.5 98.5s86.333 35.5 139 35.5c39.333 0 75.666 -7.66699 108.999 -23s63 -38.333 89 -69
c8.66699 -9.33301 11.834 -19.333 9.50098 -30s-9.16602 -20 -20.499 -28c-8 -6 -17.333 -8 -28 -6s-20 7.66699 -28 17c-35.333 38 -79 57 -131 57c-35.333 0 -66.5 -8.33301 -93.5 -25s-48 -39.5 -63 -68.5s-22.5 -63.167 -22.5 -102.5
c0 -37.333 7.83301 -70.666 23.5 -99.999s37.5 -52.5 65.5 -69.5s60 -25.5 96 -25.5c24.667 0 46.667 3 66 9s36.666 15.667 51.999 29c9.33301 8 19.166 12.333 29.499 13s19.5 -2.33301 27.5 -9c10 -8.66699 15.667 -18.334 17 -29.001s-2.33398 -20 -11.001 -28
c-48 -44.667 -108.333 -67 -181 -67z" />
    <glyph glyph-name="d" unicode="d" horiz-adv-x="705" 
d="M338 -4c-52 0 -98.832 12.165 -140.499 36.498s-74.667 57.5 -99 99.5s-36.5 89.333 -36.5 142s11.333 99.834 34 141.501s53.667 74.667 93 99s84 36.5 134 36.5c41.333 0 79.166 -8.66699 113.499 -26s62.833 -40.666 85.5 -69.999v280c0 14 4.33301 25.167 13 33.5
s19.667 12.5 33 12.5c14 0 25.333 -4.16699 34 -12.5s13 -19.5 13 -33.5v-463c-0.666992 -52 -13.167 -99 -37.5 -141s-57.333 -75 -99 -99s-88.5 -36 -140.5 -36zM338.001 77.998c36 0 68 8.5 96 25.5s50.167 40.333 66.5 70s24.5 63.167 24.5 100.5
s-8.16699 70.666 -24.5 99.999s-38.5 52.5 -66.5 69.5s-60 25.5 -96 25.5c-34.667 0 -66.334 -8.5 -95.001 -25.5s-51.167 -40.167 -67.5 -69.5s-24.5 -62.666 -24.5 -99.999s8.16699 -70.833 24.5 -100.5s38.833 -53 67.5 -70s60.334 -25.5 95.001 -25.5z" />
    <glyph glyph-name="e" unicode="e" horiz-adv-x="618" 
d="M344 -4c-55.333 0 -104.161 11.832 -146.494 35.499s-75.5 56.334 -99.5 98.001s-36 89.5 -36 143.5c0 54.667 11.333 102.834 34 144.501s54 74.334 94 98.001s86.333 35.5 139 35.5c51.333 0 95.666 -11.5 132.999 -34.5s66 -54.667 86 -95s30 -86.833 30 -139.5
c0 -11.333 -3.83301 -20.833 -11.5 -28.5s-17.834 -11.5 -30.501 -11.5h-411v74h412l-41 -29c-0.666992 35.333 -7.66699 67 -21 95s-32.333 50 -57 66s-54.334 24 -89.001 24c-38 0 -70.833 -8.66699 -98.5 -26s-48.834 -41 -63.501 -71s-22 -64 -22 -102
s8.5 -71.833 25.5 -101.5s40.333 -53.167 70 -70.5s64.167 -26 103.5 -26c21.333 0 43.5 4 66.5 12s41.167 17.333 54.5 28c9.33301 7.33301 19.333 11.166 30 11.499s20 -2.83398 28 -9.50098c10 -9.33301 15.333 -19.5 16 -30.5s-4 -20.5 -14 -28.5
c-22.667 -18 -50.834 -32.833 -84.501 -44.5s-65.834 -17.5 -96.501 -17.5z" />
    <glyph glyph-name="f" unicode="f" horiz-adv-x="367" 
d="M152 0c-11.333 0 -21.501 4.16699 -30.501 12.5s-13.5 19.5 -13.5 33.5v499c0 47.333 9 88.666 27 123.999s43.5 62.833 76.5 82.5s71.833 29.5 116.5 29.5c13.333 0 24.333 -4 33 -12s13 -18 13 -30c0 -11.333 -4.33301 -21.166 -13 -29.499s-19.667 -12.5 -33 -12.5
c-26.667 0 -49.5 -6 -68.5 -18s-33.667 -28.833 -44 -50.5s-15.5 -47.167 -15.5 -76.5v-506c0 -14 -4.16699 -25.167 -12.5 -33.5s-20.166 -12.5 -35.499 -12.5zM56.999 448c-12.667 0 -22.834 3.66699 -30.501 11s-11.5 16.666 -11.5 27.999c0 12 3.83301 21.667 11.5 29
s17.834 11 30.501 11h252c12.667 0 23 -3.66699 31 -11s12 -17 12 -29c0 -11.333 -4 -20.666 -12 -27.999s-18.333 -11 -31 -11h-252z" />
    <glyph glyph-name="g" unicode="g" 
d="M323 -4c-51.333 0 -96.502 11.832 -135.502 35.499s-69.667 56.334 -92 98.001s-33.5 89.5 -33.5 143.5c0 54.667 11.833 102.834 35.5 144.501s56.334 74.334 98.001 98.001s89.167 35.5 142.5 35.5c54 0 101.667 -11.833 143 -35.5s73.833 -56.334 97.5 -98.001
s35.834 -89.834 36.501 -144.501l-54 -9c0 -52.667 -10.167 -99.167 -30.5 -139.5s-48.5 -71.833 -84.5 -94.5s-77 -34 -123 -34zM337.998 -223.001c-49.333 0 -94.498 9.49805 -135.498 28.498s-75.167 46.167 -102.5 81.5c-8 10 -11.167 20.5 -9.5 31.5
s7.5 19.833 17.5 26.5c10.667 7.33301 22 9.83301 34 7.5s21.667 -8.16602 29 -17.499c18.667 -23.333 42.167 -41.666 70.5 -54.999s61.166 -20 98.499 -20c34 0 65 8.16699 93 24.5s50.333 40 67 71s25 68.167 25 111.5v146l31 76l59 -16v-211
c0 -53.333 -11.833 -101.5 -35.5 -144.5s-56.334 -77.167 -98.001 -102.5s-89.5 -38 -143.5 -38zM338 77.9971c36.667 0 69 8.33301 97 25s50 39.667 66 69s24 63 24 101s-8 71.833 -24 101.5s-38 52.834 -66 69.501s-60.333 25 -97 25c-36 0 -68.167 -8.33301 -96.5 -25
s-50.5 -39.834 -66.5 -69.501s-24 -63.5 -24 -101.5s8 -71.667 24 -101s38.167 -52.333 66.5 -69s60.5 -25 96.5 -25z" />
    <glyph glyph-name="h" unicode="h" horiz-adv-x="681" 
d="M136 208c-13.333 0 -24.333 4.5 -33 13.5s-13 20.167 -13 33.5v480c0 14 4.33301 25.167 13 33.5s19.667 12.5 33 12.5c14 0 25.167 -4.16699 33.5 -12.5s12.5 -19.5 12.5 -33.5v-480c0 -13.333 -4.16699 -24.5 -12.5 -33.5s-19.5 -13.5 -33.5 -13.5zM555 -1
c-13.333 0 -24.501 4.5 -33.501 13.5s-13.5 19.833 -13.5 32.5v252c0 39.333 -7.33301 71.5 -22 96.5s-34.334 43.667 -59.001 56s-53 18.5 -85 18.5c-30 0 -57 -6 -81 -18s-43.167 -28 -57.5 -48s-21.5 -43 -21.5 -69h-60c0.666992 42 11.334 79.5 32.001 112.5
s48.667 59 84 78s75 28.5 119 28.5c46.667 0 88.334 -9.83301 125.001 -29.5s65.667 -48.5 87 -86.5s32 -84.333 32 -139v-252c0 -12.667 -4.5 -23.5 -13.5 -32.5s-19.833 -13.5 -32.5 -13.5zM135.999 -1c-13.333 0 -24.333 4.33301 -33 13s-13 19.667 -13 33v456
c0 14 4.33301 25.167 13 33.5s19.667 12.5 33 12.5c14 0 25.167 -4.16699 33.5 -12.5s12.5 -19.5 12.5 -33.5v-456c0 -13.333 -4.16699 -24.333 -12.5 -33s-19.5 -13 -33.5 -13z" />
    <glyph glyph-name="i" unicode="i" horiz-adv-x="297" 
d="M149 0c-14 0 -25.333 4.33301 -34 13s-13 19.667 -13 33v455c0 14 4.33301 25.167 13 33.5s20 12.5 34 12.5c13.333 0 24.333 -4.16699 33 -12.5s13 -19.5 13 -33.5v-455c0 -13.333 -4.33301 -24.333 -13 -33s-19.667 -13 -33 -13zM148 642c-16.667 0 -31 6 -43 18
s-18 26.667 -18 44s6.16699 31.833 18.5 43.5s26.833 17.5 43.5 17.5c16 0 30.167 -5.83301 42.5 -17.5s18.5 -26.167 18.5 -43.5s-6 -32 -18 -44s-26.667 -18 -44 -18z" />
    <glyph glyph-name="j" unicode="j" horiz-adv-x="286" 
d="M-52 -234c-13.333 0 -24.334 4.33301 -33.001 13s-13 19.667 -13 33c0 14 4.33301 25.333 13 34s19.667 13 33 13c28 0 52.667 6.16699 74 18.5s38.333 29.166 51 50.499s19 45.666 19 72.999v500c0 14 4.16699 25.167 12.5 33.5s19.5 12.5 33.5 12.5
c13.333 0 24.333 -4.16699 33 -12.5s13 -19.5 13 -33.5v-500c0 -45.333 -10.167 -85.666 -30.5 -120.999s-48.166 -63.166 -83.499 -83.499s-76 -30.5 -122 -30.5zM136.999 642c-16.667 0 -31 6 -43 18s-18 26.667 -18 44s6.16699 31.833 18.5 43.5s26.833 17.5 43.5 17.5
c16 0 30.167 -5.83301 42.5 -17.5s18.5 -26.167 18.5 -43.5s-6 -32 -18 -44s-26.667 -18 -44 -18z" />
    <glyph glyph-name="k" unicode="k" horiz-adv-x="570" 
d="M173 193l-56.002 61.998l321 287c8.66699 8.66699 18.5 12.834 29.5 12.501s20.5 -5.16602 28.5 -14.499c8.66699 -9.33301 12.834 -19.5 12.501 -30.5s-5.16602 -20.5 -14.499 -28.5zM134.998 -0.00195312c-13.333 0 -24.166 4.16699 -32.499 12.5
s-12.5 19.166 -12.5 32.499v691c0 13.333 4.16699 24.166 12.5 32.499s19.166 12.5 32.499 12.5s24.166 -4.16699 32.499 -12.5s12.5 -19.166 12.5 -32.499v-691c0 -13.333 -4.16699 -24.166 -12.5 -32.499s-19.166 -12.5 -32.499 -12.5zM496.998 4.99805
c-10 -8 -20.833 -11.5 -32.5 -10.5s-21.5 6.5 -29.5 16.5l-210 259l63 60l215 -265c8 -9.33301 11.5 -19.5 10.5 -30.5s-6.5 -20.833 -16.5 -29.5z" />
    <glyph glyph-name="l" unicode="l" horiz-adv-x="293" 
d="M215 0c-28 0 -52.998 7.66602 -74.998 22.999s-39.167 36.5 -51.5 63.5s-18.5 58.167 -18.5 93.5v556c0 13.333 4.16699 24.166 12.5 32.499s19.166 12.5 32.499 12.5c14 0 25.167 -4.16699 33.5 -12.5s12.5 -19.166 12.5 -32.499v-556c0 -26 5.16699 -47.333 15.5 -64
s23.166 -25 38.499 -25h25c12.667 0 22.667 -4.16699 30 -12.5s11 -19.5 11 -33.5c0 -13.333 -5.5 -24.166 -16.5 -32.499s-25.167 -12.5 -42.5 -12.5h-7z" />
    <glyph glyph-name="m" unicode="m" horiz-adv-x="941" 
d="M816 -1c-13.333 0 -24.3369 4.33398 -33.0039 13.001s-13 19.667 -13 33v287c0 44 -11.167 77.667 -33.5 101s-51.166 35 -86.499 35c-37.333 0 -67.833 -12.833 -91.5 -38.5s-35.5 -58.834 -35.5 -99.501h-78c0.666992 44 10.334 82.667 29.001 116s44.667 59.333 78 78
s71 28 113 28c38.667 0 72.834 -8.66699 102.501 -26s52.834 -42.5 69.501 -75.5s25 -72.5 25 -118.5v-287c0 -13.333 -4.16699 -24.333 -12.5 -33s-19.5 -13 -33.5 -13zM135.996 -0.999023c-13.333 0 -24.333 4.33301 -33 13s-13 19.667 -13 33v455
c0 14 4.33301 25.167 13 33.5s19.667 12.5 33 12.5c14 0 25.167 -4.16699 33.5 -12.5s12.5 -19.5 12.5 -33.5v-455c0 -13.333 -4.16699 -24.333 -12.5 -33s-19.5 -13 -33.5 -13zM476.996 -0.999023c-13.333 0 -24.3398 4.33203 -33.0068 12.999s-13 19.667 -13 33v287
c0 44 -11.167 77.667 -33.5 101s-51.166 35 -86.499 35c-37.333 0 -68.166 -12.667 -92.499 -38s-36.5 -57.666 -36.5 -96.999h-60c0.666992 42.667 9.83398 80.5 27.501 113.5s41.834 58.833 72.501 77.5s65.334 28 104.001 28s72.834 -8.66699 102.501 -26
s52.834 -42.5 69.501 -75.5s25 -72.5 25 -118.5v-287c0 -13.333 -4.16699 -24.333 -12.5 -33s-19.5 -13 -33.5 -13z" />
    <glyph glyph-name="n" unicode="n" horiz-adv-x="680" 
d="M555 -1c-13.333 0 -24.501 4.5 -33.501 13.5s-13.5 19.833 -13.5 32.5v252c0 39.333 -7.33301 71.5 -22 96.5s-34.334 43.667 -59.001 56s-53 18.5 -85 18.5c-30 0 -57 -6 -81 -18s-43.167 -28 -57.5 -48s-21.5 -43 -21.5 -69h-60c0.666992 42 11.334 79.5 32.001 112.5
s48.667 59 84 78s75 28.5 119 28.5c46.667 0 88.334 -9.83301 125.001 -29.5s65.667 -48.5 87 -86.5s32 -84.333 32 -139v-252c0 -12.667 -4.5 -23.5 -13.5 -32.5s-19.833 -13.5 -32.5 -13.5zM135.999 -1c-13.333 0 -24.333 4.33301 -33 13s-13 19.667 -13 33v456
c0 14 4.33301 25.167 13 33.5s19.667 12.5 33 12.5c14 0 25.167 -4.16699 33.5 -12.5s12.5 -19.5 12.5 -33.5v-456c0 -13.333 -4.16699 -24.333 -12.5 -33s-19.5 -13 -33.5 -13z" />
    <glyph glyph-name="o" unicode="o" 
d="M338 -4c-53.333 0 -100.835 11.833 -142.502 35.5s-74.334 56.334 -98.001 98.001s-35.5 89.5 -35.5 143.5c0 54.667 11.833 102.834 35.5 144.501s56.334 74.334 98.001 98.001s89.167 35.5 142.5 35.5s100.833 -11.833 142.5 -35.5s74.334 -56.334 98.001 -98.001
s35.834 -89.834 36.501 -144.501c0 -54 -12 -101.833 -36 -143.5s-56.667 -74.334 -98 -98.001s-89 -35.5 -143 -35.5zM337.998 78c36.667 0 69 8.33301 97 25s50 39.667 66 69s24 63 24 101s-8 71.833 -24 101.5s-38 52.834 -66 69.501s-60.333 25 -97 25
c-36 0 -68.167 -8.33301 -96.5 -25s-50.5 -39.834 -66.5 -69.501s-24 -63.5 -24 -101.5s8 -71.667 24 -101s38.167 -52.333 66.5 -69s60.5 -25 96.5 -25z" />
    <glyph glyph-name="p" unicode="p" horiz-adv-x="705" 
d="M136 -234c-13.333 0 -24.334 4.33398 -33.001 13.001s-13 19.667 -13 33v463c0.666992 52 13.167 99 37.5 141s57.166 75 98.499 99s88 36 140 36c52.667 0 99.834 -12.167 141.501 -36.5s74.667 -57.333 99 -99s36.5 -89.167 36.5 -142.5
c0 -52.667 -11.5 -100 -34.5 -142s-54.167 -75 -93.5 -99s-83.666 -36 -132.999 -36c-42 0 -80 8.66699 -114 26s-62.667 40.666 -86 69.999v-280c0 -13.333 -4.16699 -24.333 -12.5 -33s-19.5 -13 -33.5 -13zM365.999 78.001c35.333 0 67.166 8.49805 95.499 25.498
s50.666 40.333 66.999 70s24.5 62.834 24.5 99.501c0 37.333 -8.16699 70.833 -24.5 100.5s-38.666 53 -66.999 70s-60.166 25.5 -95.499 25.5s-67.166 -8.66699 -95.499 -26s-50.5 -40.666 -66.5 -69.999s-24 -62.666 -24 -99.999c0 -36.667 8 -69.834 24 -99.501
s38.167 -53 66.5 -70s60.166 -25.5 95.499 -25.5z" />
    <glyph glyph-name="q" unicode="q" horiz-adv-x="705" 
d="M568 -234c-13.333 0 -24.334 4.33203 -33.001 12.999s-13 19.667 -13 33v280c-22.667 -29.333 -51.167 -52.666 -85.5 -69.999s-72.166 -26 -113.499 -26c-50 0 -94.667 12 -134 36s-70.333 57 -93 99s-34 89.333 -34 142s12 100 36 142s57 75.167 99 99.5
s89.333 36.5 142 36.5c51.333 0 97.833 -12 139.5 -36s74.667 -57 99 -99s36.833 -89 37.5 -141v-463c0 -13.333 -4.33301 -24.333 -13 -33s-20 -13 -34 -13zM337.999 77.999c36 0 68 8.5 96 25.5s50.167 40.333 66.5 70s24.5 62.834 24.5 99.501
c0 37.333 -8.16699 70.833 -24.5 100.5s-38.5 53 -66.5 70s-60 25.5 -96 25.5c-34.667 0 -66.334 -8.5 -95.001 -25.5s-51.167 -40.333 -67.5 -70s-24.5 -63.167 -24.5 -100.5c0 -36.667 8.16699 -69.834 24.5 -99.501s38.833 -53 67.5 -70s60.334 -25.5 95.001 -25.5z" />
    <glyph glyph-name="r" unicode="r" horiz-adv-x="475" 
d="M132 340c1.33301 40.667 11.833 76.998 31.5 108.998s45.834 57.333 78.501 76s68.667 28 108 28c36.667 0 64.167 -5.66699 82.5 -17s25.166 -25.666 20.499 -42.999c-2 -10 -6 -17.167 -12 -21.5s-13 -6.66602 -21 -6.99902s-16.667 0.166992 -26 1.5
c-40.667 6.66699 -77 5.66699 -109 -3s-57.333 -23.667 -76 -45s-28 -47.333 -28 -78h-49zM135 -0.00195312c-14 0 -25 3.83301 -33 11.5s-12 18.834 -12 33.501v457c0 14 4 25 12 33s19 12 33 12c15.333 0 26.833 -3.83301 34.5 -11.5s11.5 -18.834 11.5 -33.501v-457
c0 -14 -3.83301 -25 -11.5 -33s-19.167 -12 -34.5 -12z" />
    <glyph glyph-name="s" unicode="s" horiz-adv-x="541" 
d="M286 -4c-44 0 -85.667 6.83008 -125 20.4971s-70.333 32.5 -93 56.5c-8.66699 10 -12.334 21 -11.001 33s7.33301 22.333 18 31c11.333 8.66699 23 12.334 35 11.001s22 -6.66602 30 -15.999c13.333 -14.667 32.833 -27.334 58.5 -38.001s53.834 -16 84.501 -16
c43.333 0 75.5 7.16699 96.5 21.5s31.833 32.166 32.5 53.499c0 22 -10.333 40.5 -31 55.5s-57 26.833 -109 35.5c-67.333 12.667 -116.333 32.334 -147 59.001s-46 59 -46 97c0 34 9.5 62.167 28.5 84.5s44 39 75 50s63.833 16.5 98.5 16.5c44 0 82.667 -7.16699 116 -21.5
s60 -34.166 80 -59.499c8.66699 -10 12.5 -20.333 11.5 -31s-6.5 -19.667 -16.5 -27c-10 -6 -21.5 -8 -34.5 -6s-23.833 7.66699 -32.5 17c-16.667 17.333 -35.167 29.5 -55.5 36.5s-43.833 10.5 -70.5 10.5c-32 0 -58.5 -6 -79.5 -18s-31.5 -28.333 -31.5 -49
c0 -13.333 3.5 -25 10.5 -35s20.167 -19.167 39.5 -27.5s47 -15.833 83 -22.5c50 -9.33301 89.5 -21.666 118.5 -36.999s49.833 -33.333 62.5 -54s19 -44 19 -70c0 -30.667 -8.5 -58.167 -25.5 -82.5s-41.5 -43.5 -73.5 -57.5s-70.667 -21 -116 -21z" />
    <glyph glyph-name="t" unicode="t" horiz-adv-x="401" 
d="M295 0c-34 0 -64.667 8.49902 -92 25.499s-48.666 40 -63.999 69s-23 62.167 -23 99.5v481c0 13.333 4.16699 24.333 12.5 33s19.166 13 32.499 13s24.333 -4.33301 33 -13s13 -19.667 13 -33v-481c0 -30 8.33301 -54.667 25 -74s37.667 -29 63 -29h31
c11.333 0 20.833 -4.33301 28.5 -13s11.5 -19.667 11.5 -33s-4.83301 -24.166 -14.5 -32.499s-22.167 -12.5 -37.5 -12.5h-19zM62 447.999c-12 0 -22 3.66699 -30 11s-12 16.666 -12 27.999c0 12 4 21.667 12 29s18 11 30 11h241c12 0 22 -3.66699 30 -11s12 -17 12 -29
c0 -11.333 -4 -20.666 -12 -27.999s-18 -11 -30 -11h-241z" />
    <glyph glyph-name="u" unicode="u" horiz-adv-x="680" 
d="M323 -5c-46.667 0 -88.3359 9.83203 -125.003 29.499s-65.667 48.5 -87 86.5s-32 84.333 -32 139v252c0 12.667 4.5 23.5 13.5 32.5s19.833 13.5 32.5 13.5c13.333 0 24.5 -4.5 33.5 -13.5s13.5 -19.833 13.5 -32.5v-252c0 -38.667 7.33301 -70.667 22 -96
s34.5 -44.166 59.5 -56.499s53.167 -18.5 84.5 -18.5c30.667 0 57.834 6 81.501 18s42.667 28.167 57 48.5s21.5 43.166 21.5 68.499h60c-1.33301 -41.333 -12.166 -78.666 -32.499 -111.999s-48.166 -59.5 -83.499 -78.5s-75 -28.5 -119 -28.5zM543.998 -0.000976562
c-13.333 0 -24.333 4.33301 -33 13s-13 19.667 -13 33v456c0 13.333 4.33301 24.333 13 33s19.667 13 33 13s24.333 -4.33301 33 -13s13 -19.667 13 -33v-456c0 -13.333 -4.33301 -24.333 -13 -33s-19.667 -13 -33 -13z" />
    <glyph glyph-name="v" unicode="v" horiz-adv-x="550" 
d="M276 1c-19.333 0 -33.999 10.001 -43.999 30.001l-215 456c-5.33301 10.667 -6 21 -2 31s12 17.667 24 23c10 5.33301 20.333 6.16602 31 2.49902s18.667 -10.5 24 -20.5l204 -440h-45l201 440c5.33301 10.667 13.666 17.667 24.999 21s22.666 2.66602 33.999 -2.00098
c10.667 -5.33301 18 -13.166 22 -23.499s3.33301 -20.5 -2 -30.5l-214 -457c-9.33301 -20 -23.666 -30 -42.999 -30z" />
    <glyph glyph-name="w" unicode="w" horiz-adv-x="733" 
d="M215 0c-10 0 -18.9971 2.83301 -26.9971 8.5s-13.667 12.834 -17 21.501l-151 453c-4.66699 19.333 -4.33398 34.833 0.999023 46.5s16.666 17.5 33.999 17.5c11.333 0 20.833 -3 28.5 -9s13.834 -16 18.501 -30l131 -406h-30l122 410
c3.33301 10.667 8.66602 19.167 15.999 25.5s17.333 9.5 30 9.5c12 0 21.833 -3.16699 29.5 -9.5s12.834 -14.833 15.501 -25.5l107 -392h-16l125 388c8 26 23.333 39 46 39c17.333 0 29 -6.16699 35 -18.5s5.66699 -27.5 -1 -45.5l-151 -453
c-2.66699 -8.66699 -7.83398 -15.834 -15.501 -21.501s-16.834 -8.5 -27.501 -8.5c-9.33301 -0 -18.333 2.83301 -27 8.5s-14 12.834 -16 21.501l-112 395h11l-115 -395c-2.66699 -8.66699 -8.16699 -15.834 -16.5 -21.501s-17.5 -8.5 -27.5 -8.5z" />
    <glyph glyph-name="x" unicode="x" horiz-adv-x="554" 
d="M473 0c-7.33301 0 -13.666 1.16797 -18.999 3.50098s-10.666 6.83301 -15.999 13.5l-175 214l-33 32l-174 212c-8.66699 9.33301 -13 19.666 -13 30.999s3.33301 21 10 29s16.667 12 30 12c14 0 25.667 -5 35 -15l170 -208l26 -24l187 -230
c9.33301 -11.333 13.666 -22.333 12.999 -33s-4.83398 -19.5 -12.501 -26.5s-17.167 -10.5 -28.5 -10.5zM86 0.000976562c-12.667 0 -22.5 3.83301 -29.5 11.5s-10.5 17 -10.5 28s4 21.833 12 32.5l176 220l50 -69l-166 -209c-8 -9.33301 -18.667 -14 -32 -14zM328 258.001
l-61.001 55.999l165 216c5.33301 6.66699 10.833 11.167 16.5 13.5s12.167 3.5 19.5 3.5c13.333 0 23.333 -4.16699 30 -12.5s9.83398 -18.166 9.50098 -29.499s-4.5 -22.333 -12.5 -33z" />
    <glyph glyph-name="y" unicode="y" horiz-adv-x="542" 
d="M186 -239c-6 0 -13 1.66797 -21 5.00098c-26.667 12 -34 31 -22 57l312 698c12 25.333 31 32.666 57 21.999c27.333 -11.333 35 -30.333 23 -57l-313 -697c-8 -18.667 -20 -28 -36 -28zM302 20.001c-12 -5.33301 -22.998 -6.00098 -32.998 -2.00098s-18 11.667 -24 23
l-227 446c-6 11.333 -6.83301 22.333 -2.5 33s12.5 18.334 24.5 23.001c11.333 5.33301 22.166 6.16602 32.499 2.49902s18.166 -11.5 23.499 -23.5l219 -445c6.66699 -12 9 -23.167 7 -33.5s-8.66699 -18.166 -20 -23.499z" />
    <glyph glyph-name="z" unicode="z" horiz-adv-x="543" 
d="M139 22l-66 50l353 458l61 -54zM107 0c-28 0 -42 14 -42 42c0 28.667 14 43 42 43h353c28 0 42 -14.333 42 -43c0 -28 -14 -42 -42 -42h-353zM100 462c-28.667 0 -43 14.333 -43 43c0 28 14.333 42 43 42h352c28.667 0 43 -14 43 -42c0 -28.667 -14.333 -43 -43 -43h-352
z" />
    <glyph glyph-name="braceleft" unicode="{" horiz-adv-x="386" 
d="M317 -234c-107.333 0 -161 53.333 -161 160v234c0 45.333 -22.333 68 -67 68c-13.333 0 -24.333 4.16699 -33 12.5s-13 19.166 -13 32.499c0 14 4.33301 25.167 13 33.5s19.667 12.5 33 12.5c44.667 0 67 22.667 67 68v234c0 106.667 53.667 160 161 160
c12.667 0 23.334 -4.5 32.001 -13.5s13 -20.167 13 -33.5s-4.33301 -24.166 -13 -32.499s-19.334 -12.5 -32.001 -12.5c-45.333 0 -68 -22.667 -68 -68v-234c0 -24 -3 -45.5 -9 -64.5s-14.667 -35.5 -26 -49.5c23.333 -28 35 -65.667 35 -113v-234
c0 -44.667 22.667 -67 68 -67c12.667 0 23.334 -4.33301 32.001 -13s13 -20 13 -34c0 -13.333 -4.33301 -24.333 -13 -33s-19.334 -13 -32.001 -13z" />
    <glyph glyph-name="bar" unicode="|" horiz-adv-x="391" 
d="M197 -234c-13.333 0 -24.5 4.33301 -33.5 13s-13.5 19.667 -13.5 33v923c0 13.333 4.5 24.333 13.5 33s20.167 13 33.5 13c14 0 25.167 -4.33301 33.5 -13s12.5 -19.667 12.5 -33v-923c0 -13.333 -4.16699 -24.333 -12.5 -33s-19.5 -13 -33.5 -13z" />
    <glyph glyph-name="braceright" unicode="}" horiz-adv-x="386" 
d="M69 -234c-12.667 0 -23.334 4.33301 -32.001 13s-13 19.667 -13 33c0 14 4.33301 25.333 13 34s19.334 13 32.001 13c45.333 0 68 22.333 68 67v234c0 47.333 11.667 85 35 113c-11.333 14 -20 30.5 -26 49.5s-9 40.5 -9 64.5v234c0 45.333 -22.667 68 -68 68
c-12.667 0 -23.334 4.16699 -32.001 12.5s-13 19.166 -13 32.499s4.33301 24.5 13 33.5s19.334 13.5 32.001 13.5c107.333 0 161 -53.333 161 -160v-234c0 -45.333 22.333 -68 67 -68c13.333 0 24.333 -4.16699 33 -12.5s13 -19.5 13 -33.5
c0 -13.333 -4.33301 -24.166 -13 -32.499s-19.667 -12.5 -33 -12.5c-44.667 0 -67 -22.667 -67 -68v-234c0 -106.667 -53.667 -160 -161 -160z" />
    <glyph glyph-name="asciitilde" unicode="~" horiz-adv-x="469" 
d="M330 304c-22 0 -41.1602 3.66797 -57.4932 11.001s-30.5 14.333 -42.5 21c-14 8 -26 13.833 -36 17.5s-19 5.5 -27 5.5c-10.667 0 -20.334 -2.16699 -29.001 -6.5s-17.334 -12.166 -26.001 -23.499c-7.33301 -10 -16.333 -17.167 -27 -21.5s-21.334 -3.5 -32.001 2.5
c-9.33301 4.66699 -15 12.667 -17 24s0.666992 22 8 32c15.333 22 34.166 38.833 56.499 50.5s46.166 17.5 71.499 17.5c20.667 0 39 -3.66699 55 -11s29.667 -14 41 -20c14 -8.66699 25.167 -14.667 33.5 -18s17.166 -5 26.499 -5s17.666 1.66699 24.999 5
s13.666 7.66602 18.999 12.999c8.66699 8.66699 17 14.667 25 18s17.667 1.66602 29 -5.00098c10 -5.33301 15.667 -14 17 -26s-2 -23 -10 -33c-25.333 -32 -59.666 -48 -102.999 -48z" />
    <glyph glyph-name="uni00A0" unicode="&#xa0;" horiz-adv-x="293" 
 />
    <glyph glyph-name="exclamdown" unicode="&#xa1;" horiz-adv-x="280" 
d="M165 366c12 0 22.667 -4.5 32 -13.5s14 -19.833 14 -32.5v-506c0 -13.333 -4.33301 -24.5 -13 -33.5s-19.667 -13.5 -33 -13.5s-24.5 4.5 -33.5 13.5s-13.5 20.167 -13.5 33.5v506c0 12 4.5 22.667 13.5 32s20.167 14 33.5 14zM165 548
c17.333 0 32.5 -6.33398 45.5 -19.001s19.5 -28 19.5 -46c0 -17.333 -6.33301 -32.666 -19 -45.999s-28 -20 -46 -20s-33.333 6.5 -46 19.5s-19 28.5 -19 46.5s6.33301 33.333 19 46s28 19 46 19z" />
    <glyph glyph-name="cent" unicode="&#xa2;" horiz-adv-x="599" 
d="M184 -96c-10 0 -18.1699 3.83203 -24.5029 11.499s-7.16602 18.167 -2.49902 31.5l258 682c5.33301 14 15 21 29 21c10.667 0 18.834 -4.16699 24.501 -12.5s6.83398 -17.166 3.50098 -26.499l-257 -685c-6 -14.667 -16.333 -22 -31 -22zM335.997 -4.00098
c-52.667 0 -99.665 12.166 -140.998 36.499s-73.833 57.333 -97.5 99s-35.5 88.834 -35.5 141.501c0 54 11.5 102 34.5 144s54.5 74.833 94.5 98.5s86.333 35.5 139 35.5c39.333 0 75.666 -7.66699 108.999 -23s63 -38.333 89 -69
c8.66699 -9.33301 11.834 -19.333 9.50098 -30s-9.16602 -20 -20.499 -28c-8 -6 -17.333 -8 -28 -6s-20 7.66699 -28 17c-35.333 38 -79 57 -131 57c-35.333 0 -66.5 -8.33301 -93.5 -25s-48 -39.5 -63 -68.5s-22.5 -63.167 -22.5 -102.5
c0 -37.333 7.83301 -70.666 23.5 -99.999s37.5 -52.5 65.5 -69.5s60 -25.5 96 -25.5c24.667 0 46.667 3 66 9s36.666 15.667 51.999 29c9.33301 8 19.166 12.333 29.499 13s19.5 -2.33301 27.5 -9c10 -8.66699 15.667 -18.334 17 -29.001s-2.33398 -20 -11.001 -28
c-48 -44.667 -108.333 -67 -181 -67z" />
    <glyph glyph-name="sterling" unicode="&#xa3;" horiz-adv-x="508" 
d="M124 0c-15.333 0 -27.002 4.49902 -35.002 13.499s-12 19.833 -12 32.5c0 7.33301 1 13.666 3 18.999c17.333 41.333 30.5 82 39.5 122s13.5 79.333 13.5 118h-48c-13.333 0 -24.5 4.66699 -33.5 14s-13.5 20.666 -13.5 33.999c0 12.667 4.5 23.5 13.5 32.5
s20.167 13.5 33.5 13.5h39l-25.5 70.5c-7 19.667 -12.333 38.334 -16 56.001s-5.5 36.167 -5.5 55.5c0 36.667 9 70.167 27 100.5s42.167 54.5 72.5 72.5s63.5 27 99.5 27c36.667 0 69.834 -6.83301 99.501 -20.5s55.5 -34.5 77.5 -62.5c4 -4.66699 7.5 -10.167 10.5 -16.5
s4.5 -12.5 4.5 -18.5c0 -13.333 -4.5 -24.5 -13.5 -33.5s-20.167 -13.5 -33.5 -13.5s-23 4 -29 12c-17.333 18.667 -34.166 33.834 -50.499 45.501s-37.166 17.5 -62.499 17.5c-22 0 -41.167 -5 -57.5 -15s-28.833 -23.667 -37.5 -41s-13 -36.666 -13 -57.999
c0 -17.333 2 -35 6 -53s9.83301 -37.333 17.5 -58l25.5 -67h133c13.333 0 24.333 -4.5 33 -13.5s13 -19.833 13 -32.5c0 -13.333 -4.33301 -24.666 -13 -33.999s-19.667 -14 -33 -14h-126c-0.666992 -34 -3.83398 -68.667 -9.50098 -104s-14.5 -71 -26.5 -107h225l13.5 27.5
c4.33301 9 8.83301 17.167 13.5 24.5s10.167 13.166 16.5 17.499s14.166 6.5 23.499 6.5c13.333 0 24.5 -4.66699 33.5 -14s13.5 -20.333 13.5 -33c0 -8 -2 -15.333 -6 -22l-36 -73c-5.33301 -9.33301 -11.666 -16.333 -18.999 -21s-15.333 -7 -24 -7h-321z" />
    <glyph glyph-name="currency" unicode="&#xa4;" horiz-adv-x="520" 
d="M99 148c-15.333 0 -28.166 5.16895 -38.499 15.502s-15.5 23.5 -15.5 39.5c0 14.667 5.33301 27.334 16 38.001l35 32c-15.333 28 -23.166 57.667 -23.499 89s7.16699 61 22.5 89l-34 35c-10.667 10 -16 22.667 -16 38c0 16 5.16699 29.167 15.5 39.5
s23.166 15.5 38.499 15.5c14.667 0 27.334 -5 38.001 -15l34 -36c29.333 16.667 59.666 24.5 90.999 23.5s59.666 -8.16699 84.999 -21.5l35 33c6 4.66699 11.833 8.5 17.5 11.5s12.5 4.5 20.5 4.5c15.333 0 28.333 -5.16699 39 -15.5s16 -23.5 16 -39.5
s-5.33301 -29 -16 -39l-33 -31c14.667 -26.667 22 -56.334 22 -89.001s-7 -62.334 -21 -89.001l33 -35c10 -10.667 15 -23.334 15 -38.001c0 -16 -5 -29.167 -15 -39.5s-23 -15.5 -39 -15.5c-7.33301 0 -14 1.16699 -20 3.5s-12 5.83301 -18 10.5l-32 36
c-28.667 -14.667 -58 -22.167 -88 -22.5s-59.667 6.5 -89 20.5l-36 -33c-10.667 -10 -23.667 -15 -39 -15zM260 270.002c17.333 0 33.001 4.16797 47.001 12.501s25.167 19.666 33.5 33.999s12.5 29.833 12.5 46.5c0 18 -4.33301 34 -13 48s-19.834 25.167 -33.501 33.5
s-29.167 12.5 -46.5 12.5s-33 -4.33301 -47 -13s-25.167 -20.167 -33.5 -34.5s-12.5 -29.833 -12.5 -46.5c0 -16 4.16699 -31.167 12.5 -45.5s19.5 -25.833 33.5 -34.5s29.667 -13 47 -13z" />
    <glyph glyph-name="yen" unicode="&#xa5;" horiz-adv-x="662" 
d="M171 287c-14 0 -25.167 3.66699 -33.5 11s-12.5 17.333 -12.5 30s4.16699 22.5 12.5 29.5s19.5 10.5 33.5 10.5h320c14 0 25.333 -3.5 34 -10.5s13 -16.833 13 -29.5s-4.33301 -22.667 -13 -30s-20 -11 -34 -11h-320zM171 152c-14 0 -25.167 3.5 -33.5 10.5
s-12.5 16.833 -12.5 29.5s4.16699 22.667 12.5 30s19.5 11 33.5 11h320c14 0 25.333 -3.66699 34 -11s13 -17.333 13 -30s-4.33301 -22.5 -13 -29.5s-20 -10.5 -34 -10.5h-320zM330 0c-12.667 0 -23.498 4.5 -32.498 13.5s-13.5 20.167 -13.5 33.5v240l-269 421
c-8 12 -11 23.667 -9 35s7.16699 20.5 15.5 27.5s18.5 10.5 30.5 10.5c10 0 18 -2.16699 24 -6.5s11.667 -10.5 17 -18.5l260 -415h-41l262 417c5.33301 7.33301 11.333 13 18 17s14.667 6 24 6c11.333 0 20.666 -3.83301 27.999 -11.5s11.666 -17 12.999 -28
s-1.66699 -22.167 -9 -33.5l-271 -421v-240c0 -13.333 -4.5 -24.5 -13.5 -33.5s-20.167 -13.5 -33.5 -13.5z" />
    <glyph glyph-name="brokenbar" unicode="&#xa6;" horiz-adv-x="234" 
d="M120 416c-13.333 0 -24.333 4.5 -33 13.5s-13 20.167 -13 33.5v340c0 13.333 4.33301 24.5 13 33.5s19.667 13.5 33 13.5s24.333 -4.5 33 -13.5s13 -20.167 13 -33.5v-340c0 -13.333 -4.33301 -24.5 -13 -33.5s-19.667 -13.5 -33 -13.5zM120 -234
c-13.333 0 -24.333 4.33301 -33 13s-13 19.667 -13 33v339c0 13.333 4.33301 24.333 13 33s19.667 13 33 13s24.333 -4.33301 33 -13s13 -19.667 13 -33v-339c0 -13.333 -4.33301 -24.333 -13 -33s-19.667 -13 -33 -13z" />
    <glyph glyph-name="section" unicode="&#xa7;" horiz-adv-x="469" 
d="M239 -234c-36.667 0 -70.334 9.16504 -101.001 27.498s-55 42.666 -73 72.999s-27 64.166 -27 101.499c0 12.667 4.5 23.667 13.5 33s20.5 14 34.5 14c12.667 0 23.5 -4.66699 32.5 -14s13.5 -20.333 13.5 -33c0 -20 5 -38 15 -54s23.167 -28.833 39.5 -38.5
s33.833 -14.5 52.5 -14.5c19.333 0 37 4.83301 53 14.5s29 22.5 39 38.5s15 34 15 54c0 18.667 -4.83301 36 -14.5 52s-22.667 28.833 -39 38.5s-34.166 14.5 -53.499 14.5c-36.667 0 -70.334 9 -101.001 27s-55 42.167 -73 72.5s-27 64.166 -27 101.499
c0 29.333 6 56.833 18 82.5s29.667 49.5 53 71.5c-25.333 23.333 -43.5 47.5 -54.5 72.5s-16.5 51.833 -16.5 80.5c0 36.667 9 70.167 27 100.5s42.333 54.666 73 72.999s64.334 27.5 101.001 27.5s70.334 -9.16699 101.001 -27.5s55 -42.666 73 -72.999
s27 -63.833 27 -100.5c0 -12.667 -4.33301 -23.834 -13 -33.501s-19.667 -14.5 -33 -14.5c-14 0 -25.5 4.83301 -34.5 14.5s-13.5 20.834 -13.5 33.501c0 19.333 -5 37.166 -15 53.499s-23 29.333 -39 39s-33.667 14.5 -53 14.5c-18.667 0 -36.167 -4.83301 -52.5 -14.5
s-29.5 -22.667 -39.5 -39s-15 -34.166 -15 -53.499s4.83301 -37.166 14.5 -53.499s22.667 -29.166 39 -38.499s34.166 -14 53.499 -14c36.667 0 70.334 -9.16699 101.001 -27.5s55 -42.666 73 -72.999s27 -63.833 27 -100.5c0 -29.333 -5.83301 -57 -17.5 -83
s-29.834 -49.667 -54.501 -71c24.667 -20.667 42.834 -44 54.501 -70s17.5 -53.333 17.5 -82c0 -37.333 -9 -71.166 -27 -101.499s-42.333 -54.666 -73 -72.999s-64.334 -27.5 -101.001 -27.5zM239 167.998c19.333 0 37.166 4.66699 53.499 14s29.333 22 39 38
s14.5 33.667 14.5 53c0 20.667 -4.83301 39 -14.5 55s-22.667 28.833 -39 38.5s-34.166 14.5 -53.499 14.5s-37 -4.83301 -53 -14.5s-29 -22.5 -39 -38.5s-15 -34.333 -15 -55c0 -19.333 5 -37 15 -53s23 -28.667 39 -38s33.667 -14 53 -14z" />
    <glyph glyph-name="dieresis" unicode="&#xa8;" horiz-adv-x="469" 
d="M130 617c-15.333 0 -28.833 5.66699 -40.5 17s-17.5 25 -17.5 41c0 15.333 5.83301 28.833 17.5 40.5s25.167 17.5 40.5 17.5c16 0 29.833 -5.83301 41.5 -17.5s17.5 -25.167 17.5 -40.5c0 -16 -5.83301 -29.667 -17.5 -41s-25.5 -17 -41.5 -17zM347 617
c-15.333 0 -28.667 5.66699 -40 17s-17 25 -17 41c0 15.333 5.5 28.833 16.5 40.5s24.833 17.5 41.5 17.5c15.333 0 28.833 -5.83301 40.5 -17.5s17.5 -25.167 17.5 -40.5c0 -16 -5.83301 -29.667 -17.5 -41s-25.5 -17 -41.5 -17z" />
    <glyph glyph-name="copyright" unicode="&#xa9;" horiz-adv-x="859" 
d="M442 146c-46 0 -86.832 10.668 -122.499 32.001s-63.834 50.666 -84.501 87.999s-31 79.666 -31 126.999s9.83301 89.666 29.5 126.999s47 66.833 82 88.5s75.167 32.5 120.5 32.5c69.333 0 126.666 -27.667 171.999 -83
c7.33301 -9.33301 10.166 -19.166 8.49902 -29.499s-8.16699 -19.5 -19.5 -27.5c-8 -5.33301 -17 -7.16602 -27 -5.49902s-18.667 6.83398 -26 15.501c-29.333 32 -65.333 48 -108 48c-29.333 0 -55.166 -7 -77.499 -21s-39.666 -33.333 -51.999 -58
s-18.5 -53.667 -18.5 -87s6.5 -62.333 19.5 -87s31.167 -44.167 54.5 -58.5s50 -21.5 80 -21.5c39.333 0 71.333 10.667 96 32c8.66699 8 18 12.333 28 13s19 -2.33301 27 -9c9.33301 -8.66699 14.5 -18.334 15.5 -29.001s-2.5 -20 -10.5 -28c-42 -39.333 -94 -59 -156 -59z
M436.001 0.000976562c-54 0 -104.667 9.83203 -152 29.499s-89 47.334 -125 83.001s-64 77.167 -84 124.5s-30 99 -30 155c0 53.333 10 103.5 30 150.5s47.833 88.5 83.5 124.5s77.167 64 124.5 84s98.333 30 153 30c54 0 104.5 -10 151.5 -30s88.333 -48 124 -84
s63.667 -77.5 84 -124.5s30.5 -97.5 30.5 -151.5c0 -55.333 -10.167 -106.666 -30.5 -153.999s-48.333 -88.833 -84 -124.5s-77 -63.334 -124 -83.001s-97.5 -29.5 -151.5 -29.5zM434.001 76c44.667 0 85.999 8.16699 123.999 24.5s71.333 39.166 100 68.499
s51.334 63 68.001 101s25 78.667 25 122s-8.33301 84 -25 122s-39.5 71.667 -68.5 101s-62.667 52.166 -101 68.499s-79.166 24.5 -122.499 24.5c-42.667 0 -83.167 -8.16699 -121.5 -24.5s-72 -39.166 -101 -68.499s-51.667 -63 -68 -101s-24.5 -78.667 -24.5 -122
s8.16699 -84.166 24.5 -122.499s38.833 -72 67.5 -101s62.167 -51.667 100.5 -68s79.166 -24.5 122.499 -24.5z" />
    <glyph glyph-name="ordfeminine" unicode="&#xaa;" horiz-adv-x="479" 
d="M238 393c-37.333 0 -71 8.66699 -101 26s-53.667 41 -71 71s-26 63.667 -26 101c0 38 8.66699 71.833 26 101.5s41 53.167 71 70.5s63.667 26 101 26s71 -8.66699 101 -26s53.667 -41 71 -71s26 -63.667 26 -101l-46 -93c-14 -30 -33.667 -55 -59 -75
s-56.333 -30 -93 -30zM238 482c31.333 0 57.333 10.333 78 31s31 46.667 31 78s-10.333 57.333 -31 78s-46.667 31 -78 31s-57.333 -10.333 -78 -31s-31 -46.667 -31 -78s10.333 -57.333 31 -78s46.667 -31 78 -31zM392 389c-13.333 0 -23.668 4.33301 -31.001 13
s-10.666 19.667 -9.99902 33l16 156h69v-156c0 -13.333 -4.33301 -24.333 -13 -33s-19 -13 -31 -13z" />
    <glyph glyph-name="guillemotleft" unicode="&#xab;" horiz-adv-x="469" 
d="M389 0c-8.66699 0 -16.668 2.33398 -24.001 7.00098s-13.666 11.667 -18.999 21l-110 221c-4.66699 8 -7 16 -7 24c0 7.33301 2 14.666 6 21.999l111 223c8.66699 18.667 23 28 43 28c13.333 0 24.333 -4.33301 33 -13s13 -19.334 13 -32.001
c0 -7.33301 -1.33301 -14 -4 -20l-104 -208l104 -208c2.66699 -5.33301 4 -11.666 4 -18.999c0 -12.667 -4.33301 -23.5 -13 -32.5s-19.667 -13.5 -33 -13.5zM196.999 0.000976562c-8.66699 0 -16.667 2.33496 -24 7.00195s-13.333 11.667 -18 21l-111 221
c-2 4.66699 -3.5 8.83398 -4.5 12.501s-1.5 7.5 -1.5 11.5c0 7.33301 1.66699 14.666 5 21.999l112 223c9.33301 18.667 23.333 28 42 28c14 0 25.333 -4.33301 34 -13s13 -19.334 13 -32.001c0 -8.66699 -1.33301 -15.334 -4 -20.001l-103 -208l103 -208
c2.66699 -4.66699 4 -11 4 -19c0 -12.667 -4.5 -23.5 -13.5 -32.5s-20.167 -13.5 -33.5 -13.5z" />
    <glyph glyph-name="logicalnot" unicode="&#xac;" horiz-adv-x="547" 
d="M462 223c-12 0 -22.5 4.5 -31.5 13.5s-13.5 20.167 -13.5 33.5v104h-332c-13.333 0 -24.5 4.5 -33.5 13.5s-13.5 20.167 -13.5 33.5c0 12.667 4.5 23.5 13.5 32.5s20.167 13.5 33.5 13.5h377c14 0 25.333 -4.5 34 -13.5s13 -19.833 13 -32.5v-151
c0 -13.333 -4.33301 -24.5 -13 -33.5s-20 -13.5 -34 -13.5z" />
    <glyph glyph-name="uni00AD" unicode="&#xad;" horiz-adv-x="391" 
d="M83 228c-13.333 0 -24.333 4.16699 -33 12.5s-13 19.166 -13 32.499c0 14 4.33301 25.167 13 33.5s19.667 12.5 33 12.5h227c13.333 0 24.333 -4.16699 33 -12.5s13 -19.5 13 -33.5c0 -13.333 -4.33301 -24.166 -13 -32.499s-19.667 -12.5 -33 -12.5h-227z" />
    <glyph glyph-name="registered" unicode="&#xae;" horiz-adv-x="859" 
d="M326 162c-11.333 0 -20.334 3.49902 -27.001 10.499s-10 15.5 -10 25.5v405c0 10.667 3.66699 19.334 11 26.001s17 10 29 10h104c32 0 60.333 -6.33301 85 -19s44.167 -30.167 58.5 -52.5s21.5 -48.166 21.5 -77.499c0 -28.667 -7.16699 -54.334 -21.5 -77.001
s-34.166 -40.5 -59.499 -53.5s-53.333 -19.5 -84 -19.5h-70v-142c0 -10 -3.33301 -18.5 -10 -25.5s-15.667 -10.5 -27 -10.5zM571.999 161.999c-15.333 0 -26.334 6 -33.001 18l-111 181l72 23l100 -166c8.66699 -14.667 10.334 -27.667 5.00098 -39s-16.333 -17 -33 -17z
M362.998 406.999h74c25.333 0 46.166 7.33301 62.499 22s24.5 35 24.5 61c0 26.667 -8.16699 47.167 -24.5 61.5s-37.166 21.5 -62.499 21.5h-74v-166zM435.998 -0.000976562c-54 0 -104.667 9.83203 -152 29.499s-89 47.334 -125 83.001s-64 77.167 -84 124.5
s-30 99 -30 155c0 53.333 10 103.5 30 150.5s47.833 88.5 83.5 124.5s77.167 64 124.5 84s98.333 30 153 30c54 0 104.5 -10 151.5 -30s88.333 -48 124 -84s63.667 -77.5 84 -124.5s30.5 -97.5 30.5 -151.5c0 -55.333 -10.167 -106.666 -30.5 -153.999
s-48.333 -88.833 -84 -124.5s-77 -63.334 -124 -83.001s-97.5 -29.5 -151.5 -29.5zM433.998 75.998c44.667 0 85.999 8.16699 123.999 24.5s71.333 39.166 100 68.499s51.334 63 68.001 101s25 78.667 25 122s-8.33301 84 -25 122s-39.5 71.667 -68.5 101
s-62.667 52.166 -101 68.499s-79.166 24.5 -122.499 24.5c-42.667 0 -83.167 -8.16699 -121.5 -24.5s-72 -39.166 -101 -68.499s-51.667 -63 -68 -101s-24.5 -78.667 -24.5 -122s8.16699 -84.166 24.5 -122.499s38.833 -72 67.5 -101s62.167 -51.667 100.5 -68
s79.166 -24.5 122.499 -24.5z" />
    <glyph glyph-name="macron" unicode="&#xaf;" horiz-adv-x="547" 
d="M147 644c-13.333 0 -24.333 3.66699 -33 11s-13 17.666 -13 30.999s4.33301 23.5 13 30.5s19.667 10.5 33 10.5h254c12.667 0 23.667 -3.5 33 -10.5s14 -17.167 14 -30.5s-4.66699 -23.666 -14 -30.999s-20.333 -11 -33 -11h-254z" />
    <glyph glyph-name="degree" unicode="&#xb0;" horiz-adv-x="469" 
d="M235 379c-36 0 -69 9 -99 27s-53.833 41.833 -71.5 71.5s-26.5 62.834 -26.5 99.501c0 35.333 8.83301 68 26.5 98s41.5 54.167 71.5 72.5s63 27.5 99 27.5c36.667 0 69.834 -9.16699 99.501 -27.5s53.667 -42.333 72 -72s27.5 -62.5 27.5 -98.5
c0 -36.667 -9.16699 -69.834 -27.5 -99.501s-42.333 -53.5 -72 -71.5s-62.834 -27 -99.501 -27zM235 471c19.333 0 37 4.83398 53 14.501s28.667 22.5 38 38.5s14 33.667 14 53c0 18.667 -4.66699 36 -14 52s-22 28.667 -38 38s-33.667 14 -53 14
c-18.667 0 -36 -4.66699 -52 -14s-28.667 -22 -38 -38s-14 -33.333 -14 -52c0 -20 4.5 -37.833 13.5 -53.5s21.667 -28.334 38 -38.001s33.833 -14.5 52.5 -14.5z" />
    <glyph glyph-name="plusminus" unicode="&#xb1;" horiz-adv-x="547" 
d="M274 161c-13.333 0 -24.5 4.5 -33.5 13.5s-13.5 19.833 -13.5 32.5v143h-142c-13.333 0 -24.5 4.66699 -33.5 14s-13.5 20.333 -13.5 33c0 13.333 4.5 24.5 13.5 33.5s20.167 13.5 33.5 13.5h142v143c0 12.667 4.66699 23.5 14 32.5s20.333 13.5 33 13.5
c13.333 0 24.333 -4.5 33 -13.5s13 -19.833 13 -32.5v-143h142c13.333 0 24.5 -4.66699 33.5 -14s13.5 -20.333 13.5 -33s-4.5 -23.667 -13.5 -33s-20.167 -14 -33.5 -14h-142v-143c0 -12.667 -4.33301 -23.5 -13 -32.5s-19.667 -13.5 -33 -13.5zM85 131
c-13.333 0 -24.5 4.5 -33.5 13.5s-13.5 20.167 -13.5 33.5s4.5 24.333 13.5 33s20.167 13 33.5 13h377c14 0 25.333 -4.33301 34 -13s13 -19.667 13 -33s-4.33301 -24.5 -13 -33.5s-20 -13.5 -34 -13.5h-377z" />
    <glyph glyph-name="uni00B2" unicode="&#xb2;" horiz-adv-x="372" 
d="M89 386c-12 0 -21.832 3.83496 -29.499 11.502s-11.5 17.5 -11.5 29.5c0 5.33301 0.666992 10.5 2 15.5s4 9.5 8 13.5l155 162c9.33301 9.33301 16 18.5 20 27.5s6 17.833 6 26.5c0 14 -5.33301 26.167 -16 36.5s-25.334 15.5 -44.001 15.5
c-21.333 0 -38.166 -6.16699 -50.499 -18.5s-18.5 -26.833 -18.5 -43.5c0 -12 -2.83301 -21.833 -8.5 -29.5s-14.5 -11.5 -26.5 -11.5c-10 0 -18.167 4 -24.5 12s-9.5 17.667 -9.5 29c0 38 12.667 69.333 38 94s59 37 101 37c41.333 0 73.833 -11.667 97.5 -35
s35.5 -53 35.5 -89c0 -22 -6.5 -41.167 -19.5 -57.5s-25.5 -30.833 -37.5 -43.5l-137 -142l-6 35h172c12 0 22 -2.83301 30 -8.5s12 -14.834 12 -27.501s-3.83301 -22.334 -11.5 -29.001s-17.834 -10 -30.501 -10h-196z" />
    <glyph glyph-name="uni00B3" unicode="&#xb3;" horiz-adv-x="377" 
d="M190 377c-42 0 -76.668 11.667 -104.001 35s-41 53 -41 89c0 12 3.83301 21.833 11.5 29.5s17.5 11.5 29.5 11.5c10.667 0 19.334 -3.83301 26.001 -11.5s10 -17.5 10 -29.5c0 -14.667 5.83301 -27.167 17.5 -37.5s27.834 -15.5 48.501 -15.5
c16.667 0 31.5 4.5 44.5 13.5s19.5 21.833 19.5 38.5s-5.16699 30.5 -15.5 41.5s-22.833 16.5 -37.5 16.5c-14 0 -25 3.16699 -33 9.5s-12 14.833 -12 25.5c0 24.667 13.333 37 40 37c15.333 0 27.333 3.66699 36 11s13 18.333 13 33c0 14 -5.5 25.333 -16.5 34
s-24.5 13 -40.5 13c-18 0 -32.833 -4 -44.5 -12s-18.5 -18.333 -20.5 -31c-1.33301 -8.66699 -5 -16.334 -11 -23.001s-13 -10 -21 -10c-11.333 0 -20.666 3.5 -27.999 10.5s-11 15.833 -11 26.5c0 21.333 6.16699 40.5 18.5 57.5s28.833 30.333 49.5 40
s43.667 14.5 69 14.5c36 0 66.333 -10.667 91 -32s37 -49 37 -83c0 -17.333 -5.5 -33.666 -16.5 -48.999s-25.833 -27 -44.5 -35c24.667 -7.33301 43.5 -19.833 56.5 -37.5s19.5 -38.167 19.5 -61.5s-6.33301 -43.833 -19 -61.5s-29.334 -31.667 -50.001 -42
s-44.334 -15.5 -71.001 -15.5z" />
    <glyph glyph-name="acute" unicode="&#xb4;" horiz-adv-x="273" 
d="M95 586c-13.333 0 -24.334 4.5 -33.001 13.5s-13 20.167 -13 33.5c0 12.667 3.66699 23 11 31l104 104c8.66699 8.66699 19.334 13 32.001 13c14 0 25.333 -4.5 34 -13.5s13 -20.167 13 -33.5s-4.33301 -24 -13 -32l-103 -103c-8 -8.66699 -18.667 -13 -32 -13z" />
    <glyph glyph-name="uni00B5" unicode="&#xb5;" horiz-adv-x="680" 
d="M338 -5c-42.667 0 -80.167 11.332 -112.5 33.999s-57.5 53.334 -75.5 92.001s-27 81.667 -27 129h-44v252c0 13.333 4.33301 24.333 13 33s20 13 34 13c13.333 0 24.333 -4.33301 33 -13s13 -19.667 13 -33v-252c0 -33.333 7.16699 -62.833 21.5 -88.5
s34 -45.834 59 -60.501s53.5 -22 85.5 -22c31.333 0 59 5.83301 83 17.5s42.833 27.667 56.5 48s20.5 43.5 20.5 69.5l50 -1c-0.666992 -42 -10.5 -79.667 -29.5 -113s-44.167 -59.166 -75.5 -77.499s-66.333 -27.5 -105 -27.5zM126 -234.001c-14 0 -25.333 4.33301 -34 13
s-13 19.667 -13 33v480h93v-480c0 -13.333 -4.33301 -24.333 -13 -33s-19.667 -13 -33 -13zM544 -0.000976562c-13.333 0 -24.333 4.33301 -33 13s-13 19.667 -13 33v456c0 13.333 4.33301 24.333 13 33s19.667 13 33 13s24.333 -4.33301 33 -13s13 -19.667 13 -33v-456
c0 -13.333 -4.33301 -24.333 -13 -33s-19.667 -13 -33 -13z" />
    <glyph glyph-name="paragraph" unicode="&#xb6;" horiz-adv-x="585" 
d="M280 0c-13.333 0 -24.333 4.33398 -33 13.001s-13 19.667 -13 33v339c-36 2 -68.333 12 -97 30s-51.167 41.667 -67.5 71s-24.5 61.666 -24.5 96.999c0 37.333 8.66699 71 26 101s41 53.667 71 71s63.333 26 100 26h251c13.333 0 24.5 -4.33301 33.5 -13
s13.5 -20 13.5 -34c0 -10 -3.66699 -19.167 -11 -27.5s-16.333 -13.833 -27 -16.5v-644c0 -13.333 -4.5 -24.333 -13.5 -33s-20.167 -13 -33.5 -13s-24.333 4.33301 -33 13s-13 19.667 -13 33v643h-82v-643c0 -13.333 -4.5 -24.333 -13.5 -33s-20.167 -13 -33.5 -13z" />
    <glyph glyph-name="periodcentered" unicode="&#xb7;" horiz-adv-x="195" 
d="M97 303c-17.333 0 -32.5 6.33301 -45.5 19s-19.5 28 -19.5 46s6.33301 33.5 19 46.5s28 19.5 46 19.5s33.333 -6.5 46 -19.5s19 -28.5 19 -46.5s-6.33301 -33.333 -19 -46s-28 -19 -46 -19z" />
    <glyph glyph-name="cedilla" unicode="&#xb8;" horiz-adv-x="313" 
d="M157 -234c-38.667 0 -70.3301 8.00293 -94.9971 24.0029s-37 35 -37 57c0 12 4.33301 22.333 13 31s19 13 31 13c8 0 14.667 -2 20 -6s10 -10 14 -18c4.66699 -10 11.667 -17.667 21 -23s20.666 -8 33.999 -8s24.666 3.16699 33.999 9.5s14 15.166 14 26.499
c0 12.667 -3.5 22.667 -10.5 30s-19.167 12.666 -36.5 15.999c-19.333 3.33301 -32.833 9.66602 -40.5 18.999s-7.83398 24 -0.500977 44l12 33c8.66699 24.667 26 37 52 37c15.333 0 26.833 -5.16699 34.5 -15.5s8.16699 -22.5 1.5 -36.5l-15 -34
c34.667 -8 59.5 -19.833 74.5 -35.5s22.5 -35.5 22.5 -59.5c0 -17.333 -6 -34 -18 -50s-28.667 -29 -50 -39s-46.333 -15 -75 -15z" />
    <glyph glyph-name="uni00B9" unicode="&#xb9;" horiz-adv-x="291" 
d="M185 386c-13.333 0 -23.166 4.33203 -29.499 12.999s-9.5 19.667 -9.5 33v256l-41 -14c-18 -5.33301 -33.667 -7.5 -47 -6.5s-22.333 7.5 -27 19.5c-4.66699 12.667 -3.66699 23.5 3 32.5s15.667 15.5 27 19.5l110 37c19.333 6.66699 33.166 5.83398 41.499 -2.49902
s12.5 -21.5 12.5 -39.5v-302c0 -13.333 -3.16699 -24.333 -9.5 -33s-16.5 -13 -30.5 -13z" />
    <glyph glyph-name="ordmasculine" unicode="&#xba;" horiz-adv-x="476" 
d="M238 393c-37.333 0 -71 8.66699 -101 26s-53.667 41 -71 71s-26 63.667 -26 101c0 38 8.66699 71.833 26 101.5s41 53.167 71 70.5s63.667 26 101 26s71 -8.66699 101 -26s53.667 -41 71 -71s26 -63.667 26 -101s-8.66699 -71 -26 -101s-41 -53.667 -71 -71
s-63.667 -26 -101 -26zM238 482c31.333 0 57.333 10.333 78 31s31 46.667 31 78s-10.333 57.333 -31 78s-46.667 31 -78 31s-57.333 -10.333 -78 -31s-31 -46.667 -31 -78s10.333 -57.333 31 -78s46.667 -31 78 -31z" />
    <glyph glyph-name="guillemotright" unicode="&#xbb;" horiz-adv-x="469" 
d="M276 0c-13.333 0 -24.498 4.50098 -33.498 13.501s-13.5 19.833 -13.5 32.5c0 7.33301 1.66699 13.666 5 18.999l103 208l-103 208c-1.33301 2.66699 -2.5 5.5 -3.5 8.5s-1.5 6.83301 -1.5 11.5c0 12.667 4.5 23.334 13.5 32.001s20.167 13 33.5 13
c20 0 34.333 -9.33301 43 -28l111 -223c1.33301 -4 2.5 -7.66699 3.5 -11s1.5 -7 1.5 -11s-0.5 -7.83301 -1.5 -11.5s-2.5 -7.83398 -4.5 -12.501l-110 -221c-4.66699 -9.33301 -10.834 -16.333 -18.501 -21s-15.834 -7 -24.501 -7zM84.002 0.000976562
c-12.667 0 -23.3311 4.5 -31.998 13.5s-13 19.833 -13 32.5c0 7.33301 1 13.666 3 18.999l103 208l-103 208c-0.666992 2.66699 -1.5 5.5 -2.5 8.5s-1.5 6.83301 -1.5 11.5c0 12.667 4.5 23.334 13.5 32.001s19.833 13 32.5 13c20 0 34.333 -9.33301 43 -28l111 -223
c2 -4 3.5 -7.66699 4.5 -11s1.5 -7 1.5 -11c0 -8 -2.33301 -16 -7 -24l-110 -221c-4.66699 -9.33301 -10.834 -16.333 -18.501 -21s-15.834 -7 -24.501 -7z" />
    <glyph glyph-name="onequarter" unicode="&#xbc;" horiz-adv-x="782" 
d="M185 386c-13.333 0 -23.166 4.33203 -29.499 12.999s-9.5 19.667 -9.5 33v256l-41 -14c-18 -5.33301 -33.667 -7.5 -47 -6.5s-22.333 7.5 -27 19.5c-4.66699 12.667 -3.66699 23.5 3 32.5s15.667 15.5 27 19.5l110 37c19.333 6.66699 33.166 5.83398 41.499 -2.49902
s12.5 -21.5 12.5 -39.5v-302c0 -13.333 -3.16699 -24.333 -9.5 -33s-16.5 -13 -30.5 -13zM151 -0.000976562c-12 0 -21.5 5.16797 -28.5 15.501s-6.16699 22.166 2.5 35.499l457 708c6 8.66699 12.333 15 19 19s13.334 6 20.001 6c13.333 0 23.666 -6 30.999 -18
s5.33301 -26.333 -6 -43l-460 -700c-10 -15.333 -21.667 -23 -35 -23zM630 -8c-11.333 0 -20.332 3.16699 -26.999 9.5s-10 14.833 -10 25.5v56h-163c-10.667 0 -19.334 3.16699 -26.001 9.5s-10 14.166 -10 23.499c0 8.66699 3.66699 18.334 11 29.001l188 243
c4.66699 6.66699 10.334 11.5 17.001 14.5s13 4.5 19 4.5c10.667 0 20 -3.33301 28 -10s12 -15 12 -25v-222h33c9.33301 0 17.333 -3.16699 24 -9.5s10 -14.5 10 -24.5s-3.33301 -18 -10 -24s-14.667 -9 -24 -9h-33v-56c0 -10.667 -3.33301 -19.167 -10 -25.5
s-16.334 -9.5 -29.001 -9.5zM487.001 150h107v141z" />
    <glyph glyph-name="onehalf" unicode="&#xbd;" horiz-adv-x="857" 
d="M185 386c-13.333 0 -23.166 4.33203 -29.499 12.999s-9.5 19.667 -9.5 33v256l-41 -14c-18 -5.33301 -33.667 -7.5 -47 -6.5s-22.333 7.5 -27 19.5c-4.66699 12.667 -3.66699 23.5 3 32.5s15.667 15.5 27 19.5l110 37c19.333 6.66699 33.166 5.83398 41.499 -2.49902
s12.5 -21.5 12.5 -39.5v-302c0 -13.333 -3.16699 -24.333 -9.5 -33s-16.5 -13 -30.5 -13zM192 -0.000976562c-12 0 -21.5 5.16797 -28.5 15.501s-6.16699 22.166 2.5 35.499l457 708c6 8.66699 12.333 15 19 19s13.334 6 20.001 6c13.333 0 23.666 -6 30.999 -18
s5.33301 -26.333 -6 -43l-460 -700c-10 -15.333 -21.667 -23 -35 -23zM572 0c-12 0 -21.832 3.83496 -29.499 11.502s-11.5 17.5 -11.5 29.5c0 5.33301 0.666992 10.5 2 15.5s4 9.5 8 13.5l155 162c9.33301 9.33301 16 18.5 20 27.5s6 17.833 6 26.5
c0 14 -5.33301 26.167 -16 36.5s-25.334 15.5 -44.001 15.5c-21.333 0 -38.166 -6.16699 -50.499 -18.5s-18.5 -26.833 -18.5 -43.5c0 -12 -2.83301 -21.833 -8.5 -29.5s-14.5 -11.5 -26.5 -11.5c-10 0 -18.167 4 -24.5 12s-9.5 17.667 -9.5 29c0 38 12.667 69.333 38 94
s59 37 101 37c41.333 0 73.833 -11.667 97.5 -35s35.5 -53 35.5 -89c0 -22 -6.5 -41.167 -19.5 -57.5s-25.5 -30.833 -37.5 -43.5l-137 -142l-6 35h172c12 0 22 -2.83301 30 -8.5s12 -14.834 12 -27.501s-3.83301 -22.334 -11.5 -29.001s-17.834 -10 -30.501 -10h-196z" />
    <glyph glyph-name="threequarters" unicode="&#xbe;" horiz-adv-x="853" 
d="M190 377c-42 0 -76.668 11.667 -104.001 35s-41 53 -41 89c0 12 3.83301 21.833 11.5 29.5s17.5 11.5 29.5 11.5c10.667 0 19.334 -3.83301 26.001 -11.5s10 -17.5 10 -29.5c0 -14.667 5.83301 -27.167 17.5 -37.5s27.834 -15.5 48.501 -15.5
c16.667 0 31.5 4.5 44.5 13.5s19.5 21.833 19.5 38.5s-5.16699 30.5 -15.5 41.5s-22.833 16.5 -37.5 16.5c-14 0 -25 3.16699 -33 9.5s-12 14.833 -12 25.5c0 24.667 13.333 37 40 37c15.333 0 27.333 3.66699 36 11s13 18.333 13 33c0 14 -5.5 25.333 -16.5 34
s-24.5 13 -40.5 13c-18 0 -32.833 -4 -44.5 -12s-18.5 -18.333 -20.5 -31c-1.33301 -8.66699 -5 -16.334 -11 -23.001s-13 -10 -21 -10c-11.333 0 -20.666 3.5 -27.999 10.5s-11 15.833 -11 26.5c0 21.333 6.16699 40.5 18.5 57.5s28.833 30.333 49.5 40
s43.667 14.5 69 14.5c36 0 66.333 -10.667 91 -32s37 -49 37 -83c0 -17.333 -5.5 -33.666 -16.5 -48.999s-25.833 -27 -44.5 -35c24.667 -7.33301 43.5 -19.833 56.5 -37.5s19.5 -38.167 19.5 -61.5s-6.33301 -43.833 -19 -61.5s-29.334 -31.667 -50.001 -42
s-44.334 -15.5 -71.001 -15.5zM197.999 0c-12 0 -21.5 5.16797 -28.5 15.501s-6.16699 22.166 2.5 35.499l457 708c6 8.66699 12.333 15 19 19s13.334 6 20.001 6c13.333 0 23.666 -6 30.999 -18s5.33301 -26.333 -6 -43l-460 -700c-10 -15.333 -21.667 -23 -35 -23z
M695.999 -7.99902c-11.333 0 -20.332 3.16699 -26.999 9.5s-10 14.833 -10 25.5v56h-163c-10.667 0 -19.334 3.16699 -26.001 9.5s-10 14.166 -10 23.499c0 8.66699 3.66699 18.334 11 29.001l188 243c4.66699 6.66699 10.334 11.5 17.001 14.5s13 4.5 19 4.5
c10.667 0 20 -3.33301 28 -10s12 -15 12 -25v-222h33c9.33301 0 17.333 -3.16699 24 -9.5s10 -14.5 10 -24.5s-3.33301 -18 -10 -24s-14.667 -9 -24 -9h-33v-56c0 -10.667 -3.33301 -19.167 -10 -25.5s-16.334 -9.5 -29.001 -9.5zM553 150.001h107v141z" />
    <glyph glyph-name="questiondown" unicode="&#xbf;" horiz-adv-x="547" 
d="M270 439c14 0 25.332 -4.33594 33.999 -13.0029s13 -19.667 13 -33c0 -26.667 -6.66699 -55.5 -20 -86.5s-33 -58.167 -59 -81.5c-19.333 -16.667 -37.5 -33.334 -54.5 -50.001s-30.667 -35.334 -41 -56.001s-15.5 -46.667 -15.5 -78c0 -23.333 5.5 -45 16.5 -65
s26.667 -36 47 -48s44.5 -18 72.5 -18c32.667 0 60.167 6.33301 82.5 19s39.166 30.334 50.499 53.001s17 48.667 17 78c0 14 4.33301 25.167 13 33.5s19.667 12.5 33 12.5c14 0 25.333 -4.16699 34 -12.5s13 -19.5 13 -33.5c0 -46 -10.167 -86.667 -30.5 -122
s-48.666 -63.166 -84.999 -83.499s-78.833 -30.5 -127.5 -30.5c-43.333 0 -82.166 9.33301 -116.499 28s-61.333 44.334 -81 77.001s-29.5 70.334 -29.5 113.001c0 38 6.16699 70.333 18.5 97s29.166 50.834 50.499 72.501s45 43.5 71 65.5
c18.667 16 31.334 35.333 38.001 58s10 42 10 58c0 13.333 4.33301 24.333 13 33s19.667 13 33 13zM269.999 620.997c18.667 0 34.167 -6.33301 46.5 -19s18.5 -28 18.5 -46s-6.33301 -33.5 -19 -46.5s-28 -19.5 -46 -19.5c-17.333 0 -32.5 6.5 -45.5 19.5
s-19.5 28.5 -19.5 46.5s6.33301 33.333 19 46s28 19 46 19z" />
    <glyph glyph-name="Agrave" unicode="&#xc0;" horiz-adv-x="703" 
d="M64 0c-17.333 0 -30.333 7.33301 -39 22s-9.33398 30 -2.00098 46l286 681c8.66699 21.333 23.334 32 44.001 32c22 0 37 -10.667 45 -32l287 -683c6.66699 -16 5.5 -31 -3.5 -45s-22.167 -21 -39.5 -21c-8.66699 0 -17 2.5 -25 7.5s-14 12.167 -18 21.5l-259 636h29
l-261 -636c-4 -10 -10 -17.333 -18 -22s-16.667 -7 -26 -7zM122 177l37 79h397l36 -79h-470zM350 868c-12.667 0 -23 4.33301 -31 13l-104 103c-8 8 -12 18.667 -12 32s4.33301 24.5 13 33.5s19.334 13.5 32.001 13.5c13.333 0 24.666 -4.66699 33.999 -14l103 -104
c8 -7.33301 12 -17.333 12 -30c0 -13.333 -4.5 -24.5 -13.5 -33.5s-20.167 -13.5 -33.5 -13.5z" />
    <glyph glyph-name="Aacute" unicode="&#xc1;" horiz-adv-x="703" 
d="M64 0c-17.333 0 -30.333 7.33301 -39 22s-9.33398 30 -2.00098 46l286 681c8.66699 21.333 23.334 32 44.001 32c22 0 37 -10.667 45 -32l287 -683c6.66699 -16 5.5 -31 -3.5 -45s-22.167 -21 -39.5 -21c-8.66699 0 -17 2.5 -25 7.5s-14 12.167 -18 21.5l-259 636h29
l-261 -636c-4 -10 -10 -17.333 -18 -22s-16.667 -7 -26 -7zM122 177l37 79h397l36 -79h-470zM351 866c-12.667 0 -23.501 4.5 -32.501 13.5s-13.5 19.833 -13.5 32.5s3.66699 23 11 31l104 104c8.66699 8.66699 19.334 13 32.001 13c14 0 25.333 -4.5 34 -13.5
s13 -20.167 13 -33.5c0 -6 -1 -11.667 -3 -17s-5.33301 -10.333 -10 -15l-103 -103c-8 -8 -18.667 -12 -32 -12z" />
    <glyph glyph-name="Acircumflex" unicode="&#xc2;" horiz-adv-x="703" 
d="M64 0c-17.333 0 -30.333 7.33301 -39 22s-9.33398 30 -2.00098 46l286 681c8.66699 21.333 23.334 32 44.001 32c22 0 37 -10.667 45 -32l287 -683c6.66699 -16 5.5 -31 -3.5 -45s-22.167 -21 -39.5 -21c-8.66699 0 -17 2.5 -25 7.5s-14 12.167 -18 21.5l-259 636h29
l-261 -636c-4 -10 -10 -17.333 -18 -22s-16.667 -7 -26 -7zM122 177l37 79h397l36 -79h-470zM239 856c-13.333 0 -24.501 3.66699 -33.501 11s-13.5 16.666 -13.5 27.999c0 16 7.33301 29.333 22 40l115 75c7.33301 4.66699 15 7 23 7c4.66699 0 8.83398 -0.5 12.501 -1.5
s7.5 -2.83301 11.5 -5.5l114 -75c14.667 -10.667 22 -24 22 -40c0 -11.333 -4.33301 -20.666 -13 -27.999s-19.667 -11 -33 -11c-6 0 -11.167 0.833008 -15.5 2.5s-9.16602 4.16699 -14.499 7.5l-84 59l-84 -59c-8.66699 -6.66699 -18.334 -10 -29.001 -10z" />
    <glyph glyph-name="Atilde" unicode="&#xc3;" horiz-adv-x="703" 
d="M64 0c-17.333 0 -30.333 7.33301 -39 22s-9.33398 30 -2.00098 46l286 681c8.66699 21.333 23.334 32 44.001 32c22 0 37 -10.667 45 -32l287 -683c6.66699 -16 5.5 -31 -3.5 -45s-22.167 -21 -39.5 -21c-8.66699 0 -17 2.5 -25 7.5s-14 12.167 -18 21.5l-259 636h29
l-261 -636c-4 -10 -10 -17.333 -18 -22s-16.667 -7 -26 -7zM122 177l37 79h397l36 -79h-470zM419 867c-16.667 0 -31.998 3.83203 -45.998 11.499s-26.333 17.167 -37 28.5c-8.66699 8 -15.834 14.167 -21.501 18.5s-12.167 6.5 -19.5 6.5s-13.5 -2.83301 -18.5 -8.5
s-10.167 -13.167 -15.5 -22.5c-6 -10 -13.833 -17 -23.5 -21s-19.5 -3.66699 -29.5 1c-10.667 4.66699 -18 12 -22 22s-3 20.333 3 31c13.333 25.333 28.166 43.833 44.499 55.5s34.833 17.5 55.5 17.5c21.333 0 38.333 -5 51 -15l33 -27
c9.33301 -7.33301 16.666 -12.5 21.999 -15.5s10.333 -4.5 15 -4.5c8 0 15.667 6.33301 23 19c6 10 14 17.167 24 21.5s20 4.5 30 0.5c12 -5.33301 20 -13.166 24 -23.499s2.66699 -20.5 -4 -30.5c-12.667 -23.333 -26.167 -40 -40.5 -50s-30.166 -15 -47.499 -15z" />
    <glyph glyph-name="Adieresis" unicode="&#xc4;" horiz-adv-x="703" 
d="M64 0c-17.333 0 -30.333 7.33301 -39 22s-9.33398 30 -2.00098 46l286 681c8.66699 21.333 23.334 32 44.001 32c22 0 37 -10.667 45 -32l287 -683c6.66699 -16 5.5 -31 -3.5 -45s-22.167 -21 -39.5 -21c-8.66699 0 -17 2.5 -25 7.5s-14 12.167 -18 21.5l-259 636h29
l-261 -636c-4 -10 -10 -17.333 -18 -22s-16.667 -7 -26 -7zM122 177l37 79h397l36 -79h-470zM244 871c-16 0 -29.833 5.66699 -41.5 17s-17.5 25 -17.5 41c0 15.333 5.83301 28.833 17.5 40.5s25.5 17.5 41.5 17.5s29.667 -5.83301 41 -17.5s17 -25.167 17 -40.5
c0 -16 -5.66699 -29.667 -17 -41s-25 -17 -41 -17zM461 871c-16 0 -29.667 5.66699 -41 17s-17 25 -17 41c0 15.333 5.66699 28.833 17 40.5s25 17.5 41 17.5s29.667 -5.83301 41 -17.5s17 -25.167 17 -40.5c0 -16 -5.66699 -29.667 -17 -41s-25 -17 -41 -17z" />
    <glyph glyph-name="Aring" unicode="&#xc5;" horiz-adv-x="703" 
d="M64 0c-17.333 0 -30.333 7.33301 -39 22s-9.33398 30 -2.00098 46l286 681c8.66699 21.333 23.334 32 44.001 32c22 0 37 -10.667 45 -32l287 -683c6.66699 -16 5.5 -31 -3.5 -45s-22.167 -21 -39.5 -21c-8.66699 0 -17 2.5 -25 7.5s-14 12.167 -18 21.5l-259 636h29
l-261 -636c-4 -10 -10 -17.333 -18 -22s-16.667 -7 -26 -7zM122 177l37 79h397l36 -79h-470zM352 823c-29.333 0 -53.833 9.66699 -73.5 29s-29.5 44 -29.5 74s9.83301 54.833 29.5 74.5s44.167 29.5 73.5 29.5c30 0 54.833 -9.83301 74.5 -29.5s29.5 -44.5 29.5 -74.5
c0 -29.333 -9.66699 -53.833 -29 -73.5s-44.333 -29.5 -75 -29.5zM352 874c15.333 0 27.833 5 37.5 15s14.5 22.333 14.5 37c0 15.333 -4.83301 28 -14.5 38s-22.167 15 -37.5 15c-14.667 0 -27 -5 -37 -15s-15 -22.667 -15 -38c0 -14.667 5 -27 15 -37s22.333 -15 37 -15z
" />
    <glyph glyph-name="AE" unicode="&#xc6;" horiz-adv-x="985" 
d="M66 0c-11.333 0 -21.168 3.49805 -29.501 10.498s-13.833 15.833 -16.5 26.5s-1 21 5 31l419 682c6 9.33301 13.333 16.833 22 22.5s19.334 8.5 32.001 8.5h396c14 0 25.167 -4.16699 33.5 -12.5s12.5 -19.166 12.5 -32.499c0 -12 -4.16699 -22.167 -12.5 -30.5
s-19.5 -12.5 -33.5 -12.5h-358v-256h244c13.333 0 24.333 -4.16699 33 -12.5s13 -18.833 13 -31.5s-4.33301 -23.167 -13 -31.5s-19.667 -12.5 -33 -12.5h-244v-261h358c14 0 25.167 -4.16699 33.5 -12.5s12.5 -18.5 12.5 -30.5c0 -13.333 -4.16699 -24.166 -12.5 -32.499
s-19.5 -12.5 -33.5 -12.5h-405c-13.333 0 -24.5 4.5 -33.5 13.5s-13.5 20.167 -13.5 33.5v130h-242l-90 -148c-11.333 -19.333 -26 -29 -44 -29zM247.998 255.998h194v363l24 1z" />
    <glyph glyph-name="Ccedilla" unicode="&#xc7;" horiz-adv-x="774" 
d="M450 -10c-54 0 -104.498 10.1689 -151.498 30.502s-88 48.833 -123 85.5s-62.5 79.334 -82.5 128.001s-30 101 -30 157c0 55.333 9.83301 107.166 29.5 155.499s47.167 90.833 82.5 127.5s76.333 65.334 123 86.001s97.334 31 152.001 31c50 0 94 -6.83301 132 -20.5
s75.667 -35.834 113 -66.501c5.33301 -4 9.16602 -8.5 11.499 -13.5s3.33301 -10 3 -15s-1.5 -9.83301 -3.5 -14.5c-0.666992 -10 -4.83398 -18 -12.501 -24s-16.667 -9.16699 -27 -9.5s-20.5 3.16699 -30.5 10.5c-25.333 22 -52 38.667 -80 50s-63.333 17 -106 17
c-40.667 0 -78.834 -8.33301 -114.501 -25s-67.167 -39.334 -94.5 -68.001s-48.666 -62 -63.999 -100s-23 -78.333 -23 -121c0 -44 7.66699 -84.833 23 -122.5s36.666 -71 63.999 -100s58.833 -51.5 94.5 -67.5s73.834 -24 114.501 -24c35.333 0 68.666 5.83301 99.999 17.5
s61 28.167 89 49.5c10.667 8 21.334 11.5 32.001 10.5s19.667 -5.33301 27 -13s11 -18.167 11 -31.5c0 -6 -1 -11.833 -3 -17.5s-5.66699 -10.834 -11 -15.501c-34.667 -30 -72.834 -52 -114.501 -66s-85.167 -21 -130.5 -21zM438.002 -233.998
c-38.667 0 -70.334 8.1709 -95.001 24.5039s-37 35.166 -37 56.499c0 12 4.33301 22.167 13 30.5s19 12.5 31 12.5c7.33301 0 13.833 -1.83301 19.5 -5.5s10.5 -9.5 14.5 -17.5c4.66699 -10 11.834 -17.667 21.501 -23s20.834 -8 33.501 -8c14 0 25.5 3.16699 34.5 9.5
s13.5 15.166 13.5 26.499c0 12.667 -3.5 22.667 -10.5 30s-19.167 12.666 -36.5 15.999c-19.333 3.33301 -32.833 9.66602 -40.5 18.999s-7.83398 24 -0.500977 44l12 33c4 11.333 10.333 20.333 19 27s19.667 10 33 10c15.333 0 26.833 -5.16699 34.5 -15.5
s8.16699 -22.5 1.5 -36.5l-15 -34c34.667 -8 59.5 -19.833 74.5 -35.5s22.5 -35.5 22.5 -59.5c0 -17.333 -6 -34 -18 -50s-28.667 -29 -50 -39s-46.333 -15 -75 -15z" />
    <glyph glyph-name="Egrave" unicode="&#xc8;" horiz-adv-x="697" 
d="M147 0c-13.333 0 -24.5 4.49805 -33.5 13.498s-13.5 20.167 -13.5 33.5v687c0 14 4.5 25.333 13.5 34s20.167 13 33.5 13h459c13.333 0 24.333 -4.16699 33 -12.5s13 -19.166 13 -32.499c0 -12 -4.33301 -22.167 -13 -30.5s-19.667 -12.5 -33 -12.5h-412v-256h297
c14 0 25.167 -4.16699 33.5 -12.5s12.5 -18.833 12.5 -31.5s-4.16699 -23.167 -12.5 -31.5s-19.5 -12.5 -33.5 -12.5h-297v-261h412c13.333 0 24.333 -4.16699 33 -12.5s13 -18.5 13 -30.5c0 -13.333 -4.33301 -24.166 -13 -32.499s-19.667 -12.5 -33 -12.5h-459z
M384 867.998c-12.667 0 -23 4.33301 -31 13l-104 103c-8 8 -12 18.667 -12 32s4.33301 24.5 13 33.5s19.334 13.5 32.001 13.5c13.333 0 24.666 -4.66699 33.999 -14l103 -104c8 -7.33301 12 -17.333 12 -30c0 -13.333 -4.5 -24.5 -13.5 -33.5s-20.167 -13.5 -33.5 -13.5z
" />
    <glyph glyph-name="Eacute" unicode="&#xc9;" horiz-adv-x="697" 
d="M147 0c-13.333 0 -24.5 4.49805 -33.5 13.498s-13.5 20.167 -13.5 33.5v687c0 14 4.5 25.333 13.5 34s20.167 13 33.5 13h459c13.333 0 24.333 -4.16699 33 -12.5s13 -19.166 13 -32.499c0 -12 -4.33301 -22.167 -13 -30.5s-19.667 -12.5 -33 -12.5h-412v-256h297
c14 0 25.167 -4.16699 33.5 -12.5s12.5 -18.833 12.5 -31.5s-4.16699 -23.167 -12.5 -31.5s-19.5 -12.5 -33.5 -12.5h-297v-261h412c13.333 0 24.333 -4.16699 33 -12.5s13 -18.5 13 -30.5c0 -13.333 -4.33301 -24.166 -13 -32.499s-19.667 -12.5 -33 -12.5h-459z
M385 865.998c-12.667 0 -23.501 4.5 -32.501 13.5s-13.5 19.833 -13.5 32.5s3.66699 23 11 31l104 104c8.66699 8.66699 19.334 13 32.001 13c14 0 25.333 -4.5 34 -13.5s13 -20.167 13 -33.5c0 -6 -1 -11.667 -3 -17s-5.33301 -10.333 -10 -15l-103 -103
c-8 -8 -18.667 -12 -32 -12z" />
    <glyph glyph-name="Ecircumflex" unicode="&#xca;" horiz-adv-x="697" 
d="M147 0c-13.333 0 -24.5 4.49805 -33.5 13.498s-13.5 20.167 -13.5 33.5v687c0 14 4.5 25.333 13.5 34s20.167 13 33.5 13h459c13.333 0 24.333 -4.16699 33 -12.5s13 -19.166 13 -32.499c0 -12 -4.33301 -22.167 -13 -30.5s-19.667 -12.5 -33 -12.5h-412v-256h297
c14 0 25.167 -4.16699 33.5 -12.5s12.5 -18.833 12.5 -31.5s-4.16699 -23.167 -12.5 -31.5s-19.5 -12.5 -33.5 -12.5h-297v-261h412c13.333 0 24.333 -4.16699 33 -12.5s13 -18.5 13 -30.5c0 -13.333 -4.33301 -24.166 -13 -32.499s-19.667 -12.5 -33 -12.5h-459z
M274 855.998c-13.333 0 -24.501 3.66699 -33.501 11s-13.5 16.666 -13.5 27.999c0 16 7.33301 29.333 22 40l115 75c7.33301 4.66699 15 7 23 7c4.66699 0 8.83398 -0.5 12.501 -1.5s7.5 -2.83301 11.5 -5.5l114 -75c14.667 -10.667 22 -24 22 -40
c0 -11.333 -4.33301 -20.666 -13 -27.999s-19.667 -11 -33 -11c-6 0 -11.167 0.833008 -15.5 2.5s-9.16602 4.16699 -14.499 7.5l-84 59l-84 -59c-8.66699 -6.66699 -18.334 -10 -29.001 -10z" />
    <glyph glyph-name="Edieresis" unicode="&#xcb;" horiz-adv-x="697" 
d="M147 0c-13.333 0 -24.5 4.49805 -33.5 13.498s-13.5 20.167 -13.5 33.5v687c0 14 4.5 25.333 13.5 34s20.167 13 33.5 13h459c13.333 0 24.333 -4.16699 33 -12.5s13 -19.166 13 -32.499c0 -12 -4.33301 -22.167 -13 -30.5s-19.667 -12.5 -33 -12.5h-412v-256h297
c14 0 25.167 -4.16699 33.5 -12.5s12.5 -18.833 12.5 -31.5s-4.16699 -23.167 -12.5 -31.5s-19.5 -12.5 -33.5 -12.5h-297v-261h412c13.333 0 24.333 -4.16699 33 -12.5s13 -18.5 13 -30.5c0 -13.333 -4.33301 -24.166 -13 -32.499s-19.667 -12.5 -33 -12.5h-459z
M278 870.998c-16 0 -29.833 5.66699 -41.5 17s-17.5 25 -17.5 41c0 15.333 5.83301 28.833 17.5 40.5s25.5 17.5 41.5 17.5s29.667 -5.83301 41 -17.5s17 -25.167 17 -40.5c0 -16 -5.66699 -29.667 -17 -41s-25 -17 -41 -17zM495 870.998c-16 0 -29.667 5.66699 -41 17
s-17 25 -17 41c0 15.333 5.66699 28.833 17 40.5s25 17.5 41 17.5s29.667 -5.83301 41 -17.5s17 -25.167 17 -40.5c0 -16 -5.66699 -29.667 -17 -41s-25 -17 -41 -17z" />
    <glyph glyph-name="Igrave" unicode="&#xcc;" horiz-adv-x="294" 
d="M147 0c-13.333 0 -24.5 4.5 -33.5 13.5s-13.5 20.167 -13.5 33.5v687c0 14 4.5 25.333 13.5 34s20.167 13 33.5 13c14 0 25.333 -4.33301 34 -13s13 -20 13 -34v-687c0 -13.333 -4.33301 -24.5 -13 -33.5s-20 -13.5 -34 -13.5zM145 868c-12.667 0 -23 4.33301 -31 13
l-104 103c-8 8 -12 18.667 -12 32s4.33301 24.5 13 33.5s19.334 13.5 32.001 13.5c13.333 0 24.666 -4.66699 33.999 -14l103 -104c8 -7.33301 12 -17.333 12 -30c0 -13.333 -4.5 -24.5 -13.5 -33.5s-20.167 -13.5 -33.5 -13.5z" />
    <glyph glyph-name="Iacute" unicode="&#xcd;" horiz-adv-x="294" 
d="M147 0c-13.333 0 -24.5 4.5 -33.5 13.5s-13.5 20.167 -13.5 33.5v687c0 14 4.5 25.333 13.5 34s20.167 13 33.5 13c14 0 25.333 -4.33301 34 -13s13 -20 13 -34v-687c0 -13.333 -4.33301 -24.5 -13 -33.5s-20 -13.5 -34 -13.5zM146 866
c-12.667 0 -23.501 4.5 -32.501 13.5s-13.5 19.833 -13.5 32.5s3.66699 23 11 31l104 104c8.66699 8.66699 19.334 13 32.001 13c14 0 25.333 -4.5 34 -13.5s13 -20.167 13 -33.5c0 -6 -1 -11.667 -3 -17s-5.33301 -10.333 -10 -15l-103 -103c-8 -8 -18.667 -12 -32 -12z
" />
    <glyph glyph-name="Icircumflex" unicode="&#xce;" horiz-adv-x="294" 
d="M147 0c-13.333 0 -24.5 4.5 -33.5 13.5s-13.5 20.167 -13.5 33.5v687c0 14 4.5 25.333 13.5 34s20.167 13 33.5 13c14 0 25.333 -4.33301 34 -13s13 -20 13 -34v-687c0 -13.333 -4.33301 -24.5 -13 -33.5s-20 -13.5 -34 -13.5zM34 856
c-13.333 0 -24.501 3.66699 -33.501 11s-13.5 16.666 -13.5 27.999c0 16 7.33301 29.333 22 40l115 75c7.33301 4.66699 15 7 23 7c4.66699 0 8.83398 -0.5 12.501 -1.5s7.5 -2.83301 11.5 -5.5l114 -75c14.667 -10.667 22 -24 22 -40
c0 -11.333 -4.33301 -20.666 -13 -27.999s-19.667 -11 -33 -11c-6 0 -11.167 0.833008 -15.5 2.5s-9.16602 4.16699 -14.499 7.5l-84 59l-84 -59c-8.66699 -6.66699 -18.334 -10 -29.001 -10z" />
    <glyph glyph-name="Idieresis" unicode="&#xcf;" horiz-adv-x="294" 
d="M147 0c-13.333 0 -24.5 4.5 -33.5 13.5s-13.5 20.167 -13.5 33.5v687c0 14 4.5 25.333 13.5 34s20.167 13 33.5 13c14 0 25.333 -4.33301 34 -13s13 -20 13 -34v-687c0 -13.333 -4.33301 -24.5 -13 -33.5s-20 -13.5 -34 -13.5zM39 871c-16 0 -29.833 5.66699 -41.5 17
s-17.5 25 -17.5 41c0 15.333 5.83301 28.833 17.5 40.5s25.5 17.5 41.5 17.5s29.667 -5.83301 41 -17.5s17 -25.167 17 -40.5c0 -16 -5.66699 -29.667 -17 -41s-25 -17 -41 -17zM256 871c-16 0 -29.667 5.66699 -41 17s-17 25 -17 41c0 15.333 5.66699 28.833 17 40.5
s25 17.5 41 17.5s29.667 -5.83301 41 -17.5s17 -25.167 17 -40.5c0 -16 -5.66699 -29.667 -17 -41s-25 -17 -41 -17z" />
    <glyph glyph-name="Eth" unicode="&#xd0;" horiz-adv-x="778" 
d="M45 350c-13.333 0 -24.333 3.66699 -33 11s-13 17.333 -13 30s4.33301 22.667 13 30s19.667 11 33 11h285c14 0 25.333 -3.66699 34 -11s13 -17.333 13 -30s-4.33301 -22.667 -13 -30s-20 -11 -34 -11h-285zM147 0c-13.333 0 -24.5 4.49902 -33.5 13.499
s-13.5 20.167 -13.5 33.5v687c0 14 4.5 25.333 13.5 34s20.167 13 33.5 13h181c57.333 0 109.5 -9.5 156.5 -28.5s87.833 -46 122.5 -81s61.5 -76.167 80.5 -123.5s28.5 -99.666 28.5 -156.999s-9.5 -109.833 -28.5 -157.5s-45.833 -89 -80.5 -124s-75.5 -62 -122.5 -81
s-99.167 -28.5 -156.5 -28.5h-181zM194 83.999l134 0.00195312c58 0 109.167 13.167 153.5 39.5s79.333 62.666 105 108.999s38.5 99.166 38.5 158.499c0 60 -12.833 113 -38.5 159s-60.667 82 -105 108s-95.5 39 -153.5 39h-134v-613z" />
    <glyph glyph-name="Ntilde" unicode="&#xd1;" horiz-adv-x="828" 
d="M146 0c-13.333 0 -24.332 4.5 -32.999 13.5s-13 20.167 -13 33.5v687c0 14 4.33301 25.333 13 34s19.667 13 33 13c14.667 0 27 -5.66699 37 -17l452 -599v569c0 14 4.5 25.333 13.5 34s20.167 13 33.5 13s24.333 -4.33301 33 -13s13 -20 13 -34v-687
c0 -13.333 -4.33301 -24.5 -13 -33.5s-19.667 -13.5 -33 -13.5c-6.66699 -0 -13.334 1.33301 -20.001 4s-12 6.66699 -16 12l-453 599v-568c0 -13.333 -4.33301 -24.5 -13 -33.5s-20 -13.5 -34 -13.5zM520.001 858c-22 0 -41.1602 3.66797 -57.4932 11.001
s-30.5 14.333 -42.5 21c-14 8 -26 13.833 -36 17.5s-19 5.5 -27 5.5c-10.667 0 -20.334 -2.16699 -29.001 -6.5s-17.334 -12.166 -26.001 -23.499c-7.33301 -10 -16.333 -17.167 -27 -21.5s-21.334 -3.5 -32.001 2.5c-9.33301 4.66699 -15 12.667 -17 24s0.666992 22 8 32
c15.333 22 34.166 38.833 56.499 50.5s46.166 17.5 71.499 17.5c21.333 0 39.833 -3.66699 55.5 -11s29.167 -14 40.5 -20c14.667 -8.66699 26 -14.667 34 -18s16.667 -5 26 -5s17.666 1.66699 24.999 5s13.666 7.66602 18.999 12.999c8.66699 8.66699 17 14.667 25 18
s17.667 1.66602 29 -5.00098c10 -5.33301 15.667 -14 17 -26s-2 -23 -10 -33c-26 -32 -60.333 -48 -103 -48z" />
    <glyph glyph-name="Ograve" unicode="&#xd2;" horiz-adv-x="921" 
d="M461 -10c-58.667 0 -112.334 9.83301 -161.001 29.5s-90.5 47.5 -125.5 83.5s-62.333 78.333 -82 127s-29.5 102.334 -29.5 161.001c0 58 9.83301 111.333 29.5 160s47 91 82 127s76.833 63.833 125.5 83.5s102.334 29.5 161.001 29.5c58 0 111.333 -9.83301 160 -29.5
s90.667 -47.5 126 -83.5s62.833 -78.333 82.5 -127s29.5 -102 29.5 -160c0 -58.667 -9.83301 -112.334 -29.5 -161.001s-47.167 -91 -82.5 -127s-77.333 -63.833 -126 -83.5s-102 -29.5 -160 -29.5zM461 76c44.667 0 85.667 8 123 24s69.833 38.167 97.5 66.5
s49 61.666 64 99.999s22.5 79.833 22.5 124.5s-7.5 86 -22.5 124s-36.333 71.333 -64 100s-60.167 50.834 -97.5 66.501s-78.333 23.5 -123 23.5s-85.667 -7.83301 -123 -23.5s-69.666 -37.834 -96.999 -66.501s-48.666 -62 -63.999 -100s-23 -79.333 -23 -124
s7.66699 -86.167 23 -124.5s36.666 -71.666 63.999 -99.999s59.666 -50.5 96.999 -66.5s78.333 -24 123 -24zM459 868c-12.667 0 -23 4.33301 -31 13l-104 103c-8 8 -12 18.667 -12 32s4.33301 24.5 13 33.5s19.334 13.5 32.001 13.5c13.333 0 24.666 -4.66699 33.999 -14
l103 -104c8 -7.33301 12 -17.333 12 -30c0 -13.333 -4.5 -24.5 -13.5 -33.5s-20.167 -13.5 -33.5 -13.5z" />
    <glyph glyph-name="Oacute" unicode="&#xd3;" horiz-adv-x="921" 
d="M461 -10c-58.667 0 -112.334 9.83301 -161.001 29.5s-90.5 47.5 -125.5 83.5s-62.333 78.333 -82 127s-29.5 102.334 -29.5 161.001c0 58 9.83301 111.333 29.5 160s47 91 82 127s76.833 63.833 125.5 83.5s102.334 29.5 161.001 29.5c58 0 111.333 -9.83301 160 -29.5
s90.667 -47.5 126 -83.5s62.833 -78.333 82.5 -127s29.5 -102 29.5 -160c0 -58.667 -9.83301 -112.334 -29.5 -161.001s-47.167 -91 -82.5 -127s-77.333 -63.833 -126 -83.5s-102 -29.5 -160 -29.5zM461 76c44.667 0 85.667 8 123 24s69.833 38.167 97.5 66.5
s49 61.666 64 99.999s22.5 79.833 22.5 124.5s-7.5 86 -22.5 124s-36.333 71.333 -64 100s-60.167 50.834 -97.5 66.501s-78.333 23.5 -123 23.5s-85.667 -7.83301 -123 -23.5s-69.666 -37.834 -96.999 -66.501s-48.666 -62 -63.999 -100s-23 -79.333 -23 -124
s7.66699 -86.167 23 -124.5s36.666 -71.666 63.999 -99.999s59.666 -50.5 96.999 -66.5s78.333 -24 123 -24zM460 866c-12.667 0 -23.501 4.5 -32.501 13.5s-13.5 19.833 -13.5 32.5s3.66699 23 11 31l104 104c8.66699 8.66699 19.334 13 32.001 13
c14 0 25.333 -4.5 34 -13.5s13 -20.167 13 -33.5c0 -6 -1 -11.667 -3 -17s-5.33301 -10.333 -10 -15l-103 -103c-8 -8 -18.667 -12 -32 -12z" />
    <glyph glyph-name="Ocircumflex" unicode="&#xd4;" horiz-adv-x="921" 
d="M461 -10c-58.667 0 -112.334 9.83301 -161.001 29.5s-90.5 47.5 -125.5 83.5s-62.333 78.333 -82 127s-29.5 102.334 -29.5 161.001c0 58 9.83301 111.333 29.5 160s47 91 82 127s76.833 63.833 125.5 83.5s102.334 29.5 161.001 29.5c58 0 111.333 -9.83301 160 -29.5
s90.667 -47.5 126 -83.5s62.833 -78.333 82.5 -127s29.5 -102 29.5 -160c0 -58.667 -9.83301 -112.334 -29.5 -161.001s-47.167 -91 -82.5 -127s-77.333 -63.833 -126 -83.5s-102 -29.5 -160 -29.5zM461 76c44.667 0 85.667 8 123 24s69.833 38.167 97.5 66.5
s49 61.666 64 99.999s22.5 79.833 22.5 124.5s-7.5 86 -22.5 124s-36.333 71.333 -64 100s-60.167 50.834 -97.5 66.501s-78.333 23.5 -123 23.5s-85.667 -7.83301 -123 -23.5s-69.666 -37.834 -96.999 -66.501s-48.666 -62 -63.999 -100s-23 -79.333 -23 -124
s7.66699 -86.167 23 -124.5s36.666 -71.666 63.999 -99.999s59.666 -50.5 96.999 -66.5s78.333 -24 123 -24zM348 856c-13.333 0 -24.501 3.66699 -33.501 11s-13.5 16.666 -13.5 27.999c0 16 7.33301 29.333 22 40l115 75c7.33301 4.66699 15 7 23 7
c4.66699 0 8.83398 -0.5 12.501 -1.5s7.5 -2.83301 11.5 -5.5l114 -75c14.667 -10.667 22 -24 22 -40c0 -11.333 -4.33301 -20.666 -13 -27.999s-19.667 -11 -33 -11c-6 0 -11.167 0.833008 -15.5 2.5s-9.16602 4.16699 -14.499 7.5l-84 59l-84 -59
c-8.66699 -6.66699 -18.334 -10 -29.001 -10z" />
    <glyph glyph-name="Otilde" unicode="&#xd5;" horiz-adv-x="921" 
d="M461 -10c-58.667 0 -112.334 9.83301 -161.001 29.5s-90.5 47.5 -125.5 83.5s-62.333 78.333 -82 127s-29.5 102.334 -29.5 161.001c0 58 9.83301 111.333 29.5 160s47 91 82 127s76.833 63.833 125.5 83.5s102.334 29.5 161.001 29.5c58 0 111.333 -9.83301 160 -29.5
s90.667 -47.5 126 -83.5s62.833 -78.333 82.5 -127s29.5 -102 29.5 -160c0 -58.667 -9.83301 -112.334 -29.5 -161.001s-47.167 -91 -82.5 -127s-77.333 -63.833 -126 -83.5s-102 -29.5 -160 -29.5zM461 76c44.667 0 85.667 8 123 24s69.833 38.167 97.5 66.5
s49 61.666 64 99.999s22.5 79.833 22.5 124.5s-7.5 86 -22.5 124s-36.333 71.333 -64 100s-60.167 50.834 -97.5 66.501s-78.333 23.5 -123 23.5s-85.667 -7.83301 -123 -23.5s-69.666 -37.834 -96.999 -66.501s-48.666 -62 -63.999 -100s-23 -79.333 -23 -124
s7.66699 -86.167 23 -124.5s36.666 -71.666 63.999 -99.999s59.666 -50.5 96.999 -66.5s78.333 -24 123 -24zM567 858c-22 0 -41.1602 3.66797 -57.4932 11.001s-30.5 14.333 -42.5 21c-14 8 -26 13.833 -36 17.5s-19 5.5 -27 5.5c-10.667 0 -20.334 -2.16699 -29.001 -6.5
s-17.334 -12.166 -26.001 -23.499c-7.33301 -10 -16.333 -17.167 -27 -21.5s-21.334 -3.5 -32.001 2.5c-9.33301 4.66699 -15 12.667 -17 24s0.666992 22 8 32c15.333 22 34.166 38.833 56.499 50.5s46.166 17.5 71.499 17.5c21.333 0 39.833 -3.66699 55.5 -11
s29.167 -14 40.5 -20c14.667 -8.66699 26 -14.667 34 -18s16.667 -5 26 -5s17.666 1.66699 24.999 5s13.666 7.66602 18.999 12.999c8.66699 8.66699 17 14.667 25 18s17.667 1.66602 29 -5.00098c10 -5.33301 15.667 -14 17 -26s-2 -23 -10 -33
c-26 -32 -60.333 -48 -103 -48z" />
    <glyph glyph-name="Odieresis" unicode="&#xd6;" horiz-adv-x="921" 
d="M461 -10c-58.667 0 -112.334 9.83301 -161.001 29.5s-90.5 47.5 -125.5 83.5s-62.333 78.333 -82 127s-29.5 102.334 -29.5 161.001c0 58 9.83301 111.333 29.5 160s47 91 82 127s76.833 63.833 125.5 83.5s102.334 29.5 161.001 29.5c58 0 111.333 -9.83301 160 -29.5
s90.667 -47.5 126 -83.5s62.833 -78.333 82.5 -127s29.5 -102 29.5 -160c0 -58.667 -9.83301 -112.334 -29.5 -161.001s-47.167 -91 -82.5 -127s-77.333 -63.833 -126 -83.5s-102 -29.5 -160 -29.5zM461 76c44.667 0 85.667 8 123 24s69.833 38.167 97.5 66.5
s49 61.666 64 99.999s22.5 79.833 22.5 124.5s-7.5 86 -22.5 124s-36.333 71.333 -64 100s-60.167 50.834 -97.5 66.501s-78.333 23.5 -123 23.5s-85.667 -7.83301 -123 -23.5s-69.666 -37.834 -96.999 -66.501s-48.666 -62 -63.999 -100s-23 -79.333 -23 -124
s7.66699 -86.167 23 -124.5s36.666 -71.666 63.999 -99.999s59.666 -50.5 96.999 -66.5s78.333 -24 123 -24zM353 871c-16 0 -29.833 5.66699 -41.5 17s-17.5 25 -17.5 41c0 15.333 5.83301 28.833 17.5 40.5s25.5 17.5 41.5 17.5s29.667 -5.83301 41 -17.5
s17 -25.167 17 -40.5c0 -16 -5.66699 -29.667 -17 -41s-25 -17 -41 -17zM570 871c-16 0 -29.667 5.66699 -41 17s-17 25 -17 41c0 15.333 5.66699 28.833 17 40.5s25 17.5 41 17.5s29.667 -5.83301 41 -17.5s17 -25.167 17 -40.5c0 -16 -5.66699 -29.667 -17 -41
s-25 -17 -41 -17z" />
    <glyph glyph-name="multiply" unicode="&#xd7;" horiz-adv-x="469" 
d="M84 151c-13.333 0 -24.3311 4.33301 -32.998 13s-13 19.667 -13 33c0 14 4 25 12 33l120 120l-120 118c-8 10 -12 20.667 -12 32c0 13.333 4.33301 24.5 13 33.5s19.667 13.5 33 13.5c12.667 0 24 -4.33301 34 -13l117 -119l119 119c8.66699 8.66699 19.667 13 33 13
c12.667 0 23.667 -4.5 33 -13.5s14 -19.833 14 -32.5c0 -12 -4.66699 -23 -14 -33l-118 -118l118 -120c9.33301 -8.66699 14 -19.667 14 -33s-4.66699 -24.333 -14 -33s-20.333 -13 -33 -13s-23.334 4.33301 -32.001 13l-120 119l-119 -119
c-8.66699 -8.66699 -19.334 -13 -32.001 -13z" />
    <glyph glyph-name="Oslash" unicode="&#xd8;" horiz-adv-x="907" 
d="M89 0c-14.667 0 -24.334 6.33203 -29.001 18.999s-2.66699 23.334 6 32.001l93 93l32 24l504 504l28 21l81 80c5.33301 5.33301 12.333 8 21 8c12.667 0 22.334 -5.66699 29.001 -17s4.66699 -22.333 -6 -33l-81 -81l-26 -19l-509 -509l-28 -20l-94 -94
c-5.33301 -5.33301 -12.333 -8 -21 -8zM461 -10.001c-58.667 0 -112.334 9.83301 -161.001 29.5s-90.5 47.5 -125.5 83.5s-62.333 78.333 -82 127s-29.5 102.334 -29.5 161.001c0 58 9.83301 111.333 29.5 160s47 91 82 127s76.833 63.833 125.5 83.5
s102.334 29.5 161.001 29.5c58 0 111.333 -9.83301 160 -29.5s90.667 -47.5 126 -83.5s62.833 -78.333 82.5 -127s29.5 -102 29.5 -160c0 -58.667 -9.83301 -112.334 -29.5 -161.001s-47.167 -91 -82.5 -127s-77.333 -63.833 -126 -83.5s-102 -29.5 -160 -29.5zM461 75.999
c44.667 0 85.667 8 123 24s69.833 38.167 97.5 66.5s49 61.666 64 99.999s22.5 79.833 22.5 124.5s-7.5 86 -22.5 124s-36.333 71.333 -64 100s-60.167 50.834 -97.5 66.501s-78.333 23.5 -123 23.5s-85.667 -7.83301 -123 -23.5s-69.666 -37.834 -96.999 -66.501
s-48.666 -62 -63.999 -100s-23 -79.333 -23 -124s7.66699 -86.167 23 -124.5s36.666 -71.666 63.999 -99.999s59.666 -50.5 96.999 -66.5s78.333 -24 123 -24z" />
    <glyph glyph-name="Ugrave" unicode="&#xd9;" horiz-adv-x="835" 
d="M421 -16c-62.667 0 -118.168 11.833 -166.501 35.5s-86.166 56.334 -113.499 98.001s-41 89.167 -41 142.5v474c0 13.333 4.5 24.5 13.5 33.5s20.167 13.5 33.5 13.5c14 0 25.333 -4.5 34 -13.5s13 -20.167 13 -33.5v-474c0 -37.333 9.66699 -70.166 29 -98.499
s46.166 -50.666 80.499 -66.999s73.5 -24.5 117.5 -24.5c42.667 0 80.667 8.16699 114 24.5s59.5 38.666 78.5 66.999s28.5 61.166 28.5 98.499v474c0 13.333 4.5 24.5 13.5 33.5s20.167 13.5 33.5 13.5c14 0 25.167 -4.5 33.5 -13.5s12.5 -20.167 12.5 -33.5v-474
c0 -53.333 -13.333 -100.833 -40 -142.5s-63.667 -74.334 -111 -98.001s-101.666 -35.5 -162.999 -35.5zM415.999 868c-12.667 0 -23 4.33301 -31 13l-104 103c-8 8 -12 18.667 -12 32s4.33301 24.5 13 33.5s19.334 13.5 32.001 13.5c13.333 0 24.666 -4.66699 33.999 -14
l103 -104c8 -7.33301 12 -17.333 12 -30c0 -13.333 -4.5 -24.5 -13.5 -33.5s-20.167 -13.5 -33.5 -13.5z" />
    <glyph glyph-name="Uacute" unicode="&#xda;" horiz-adv-x="835" 
d="M421 -16c-62.667 0 -118.168 11.833 -166.501 35.5s-86.166 56.334 -113.499 98.001s-41 89.167 -41 142.5v474c0 13.333 4.5 24.5 13.5 33.5s20.167 13.5 33.5 13.5c14 0 25.333 -4.5 34 -13.5s13 -20.167 13 -33.5v-474c0 -37.333 9.66699 -70.166 29 -98.499
s46.166 -50.666 80.499 -66.999s73.5 -24.5 117.5 -24.5c42.667 0 80.667 8.16699 114 24.5s59.5 38.666 78.5 66.999s28.5 61.166 28.5 98.499v474c0 13.333 4.5 24.5 13.5 33.5s20.167 13.5 33.5 13.5c14 0 25.167 -4.5 33.5 -13.5s12.5 -20.167 12.5 -33.5v-474
c0 -53.333 -13.333 -100.833 -40 -142.5s-63.667 -74.334 -111 -98.001s-101.666 -35.5 -162.999 -35.5zM416.999 866c-12.667 0 -23.501 4.5 -32.501 13.5s-13.5 19.833 -13.5 32.5s3.66699 23 11 31l104 104c8.66699 8.66699 19.334 13 32.001 13
c14 0 25.333 -4.5 34 -13.5s13 -20.167 13 -33.5c0 -6 -1 -11.667 -3 -17s-5.33301 -10.333 -10 -15l-103 -103c-8 -8 -18.667 -12 -32 -12z" />
    <glyph glyph-name="Ucircumflex" unicode="&#xdb;" horiz-adv-x="835" 
d="M421 -16c-62.667 0 -118.168 11.833 -166.501 35.5s-86.166 56.334 -113.499 98.001s-41 89.167 -41 142.5v474c0 13.333 4.5 24.5 13.5 33.5s20.167 13.5 33.5 13.5c14 0 25.333 -4.5 34 -13.5s13 -20.167 13 -33.5v-474c0 -37.333 9.66699 -70.166 29 -98.499
s46.166 -50.666 80.499 -66.999s73.5 -24.5 117.5 -24.5c42.667 0 80.667 8.16699 114 24.5s59.5 38.666 78.5 66.999s28.5 61.166 28.5 98.499v474c0 13.333 4.5 24.5 13.5 33.5s20.167 13.5 33.5 13.5c14 0 25.167 -4.5 33.5 -13.5s12.5 -20.167 12.5 -33.5v-474
c0 -53.333 -13.333 -100.833 -40 -142.5s-63.667 -74.334 -111 -98.001s-101.666 -35.5 -162.999 -35.5zM304.999 856c-13.333 0 -24.501 3.66699 -33.501 11s-13.5 16.666 -13.5 27.999c0 16 7.33301 29.333 22 40l115 75c7.33301 4.66699 15 7 23 7
c4.66699 0 8.83398 -0.5 12.501 -1.5s7.5 -2.83301 11.5 -5.5l114 -75c14.667 -10.667 22 -24 22 -40c0 -11.333 -4.33301 -20.666 -13 -27.999s-19.667 -11 -33 -11c-6 0 -11.167 0.833008 -15.5 2.5s-9.16602 4.16699 -14.499 7.5l-84 59l-84 -59
c-8.66699 -6.66699 -18.334 -10 -29.001 -10z" />
    <glyph glyph-name="Udieresis" unicode="&#xdc;" horiz-adv-x="835" 
d="M421 -16c-62.667 0 -118.168 11.833 -166.501 35.5s-86.166 56.334 -113.499 98.001s-41 89.167 -41 142.5v474c0 13.333 4.5 24.5 13.5 33.5s20.167 13.5 33.5 13.5c14 0 25.333 -4.5 34 -13.5s13 -20.167 13 -33.5v-474c0 -37.333 9.66699 -70.166 29 -98.499
s46.166 -50.666 80.499 -66.999s73.5 -24.5 117.5 -24.5c42.667 0 80.667 8.16699 114 24.5s59.5 38.666 78.5 66.999s28.5 61.166 28.5 98.499v474c0 13.333 4.5 24.5 13.5 33.5s20.167 13.5 33.5 13.5c14 0 25.167 -4.5 33.5 -13.5s12.5 -20.167 12.5 -33.5v-474
c0 -53.333 -13.333 -100.833 -40 -142.5s-63.667 -74.334 -111 -98.001s-101.666 -35.5 -162.999 -35.5zM309.999 871c-16 0 -29.833 5.66699 -41.5 17s-17.5 25 -17.5 41c0 15.333 5.83301 28.833 17.5 40.5s25.5 17.5 41.5 17.5s29.667 -5.83301 41 -17.5
s17 -25.167 17 -40.5c0 -16 -5.66699 -29.667 -17 -41s-25 -17 -41 -17zM526.999 871c-16 0 -29.667 5.66699 -41 17s-17 25 -17 41c0 15.333 5.66699 28.833 17 40.5s25 17.5 41 17.5s29.667 -5.83301 41 -17.5s17 -25.167 17 -40.5c0 -16 -5.66699 -29.667 -17 -41
s-25 -17 -41 -17z" />
    <glyph glyph-name="Yacute" unicode="&#xdd;" horiz-adv-x="662" 
d="M330 0c-12.667 0 -23.498 4.5 -32.498 13.5s-13.5 20.167 -13.5 33.5v240l-269 421c-8 12 -11 23.667 -9 35s7.16699 20.5 15.5 27.5s18.5 10.5 30.5 10.5c10 0 18 -2.16699 24 -6.5s11.667 -10.5 17 -18.5l260 -415h-41l262 417c5.33301 7.33301 11.333 13 18 17
s14.667 6 24 6c11.333 0 20.666 -3.83301 27.999 -11.5s11.666 -17 12.999 -28s-1.66699 -22.167 -9 -33.5l-271 -421v-240c0 -13.333 -4.5 -24.5 -13.5 -33.5s-20.167 -13.5 -33.5 -13.5zM330.002 866c-12.667 0 -23.501 4.5 -32.501 13.5s-13.5 19.833 -13.5 32.5
s3.66699 23 11 31l104 104c8.66699 8.66699 19.334 13 32.001 13c14 0 25.333 -4.5 34 -13.5s13 -20.167 13 -33.5c0 -6 -1 -11.667 -3 -17s-5.33301 -10.333 -10 -15l-103 -103c-8 -8 -18.667 -12 -32 -12z" />
    <glyph glyph-name="Thorn" unicode="&#xde;" horiz-adv-x="619" 
d="M147 0c-13.333 0 -24.5 4.5 -33.5 13.5s-13.5 20.167 -13.5 33.5v687c0 13.333 4.5 24.5 13.5 33.5s20.167 13.5 33.5 13.5c14 0 25.333 -4.5 34 -13.5s13 -20.167 13 -33.5v-96h153c50 0 94.167 -9.66699 132.5 -29s68.166 -46.5 89.499 -81.5s32 -75.5 32 -121.5
c0 -44.667 -10.667 -84 -32 -118s-51.166 -60.5 -89.499 -79.5s-82.5 -28.5 -132.5 -28.5h-153v-133c0 -13.333 -4.33301 -24.5 -13 -33.5s-20 -13.5 -34 -13.5zM194 262h153c32 0 60.333 6.16699 85 18.5s44 29.5 58 51.5s21 46.667 21 74c0 29.333 -7 55.333 -21 78
s-33.333 40.5 -58 53.5s-53 19.5 -85 19.5h-153v-295z" />
    <glyph glyph-name="germandbls" unicode="&#xdf;" horiz-adv-x="547" 
d="M89 0c-12.667 0 -23.5 4.33594 -32.5 13.0029s-13.5 19.667 -13.5 33v532c0 38 9.5 72.167 28.5 102.5s44.667 54.166 77 71.499s68.833 26 109.5 26c38.667 0 72.667 -7.83301 102 -23.5s52.166 -37.167 68.499 -64.5s24.5 -58 24.5 -92
c0 -22.667 -4.16699 -42 -12.5 -58s-18.166 -30.167 -29.499 -42.5s-21.166 -24.5 -29.499 -36.5s-12.5 -26 -12.5 -42c0 -14.667 4.83301 -28.334 14.5 -41.001s21.667 -25.5 36 -38.5s28.666 -27.167 42.999 -42.5s26.5 -32.833 36.5 -52.5s15 -42.5 15 -68.5
c0 -34 -8.33301 -64.5 -25 -91.5s-39.667 -48.167 -69 -63.5s-63.666 -23 -102.999 -23c-22 0 -44.667 4.33301 -68 13s-42.666 20.167 -57.999 34.5s-23 29.5 -23 45.5c0 13.333 3.5 23.333 10.5 30s16.833 10 29.5 10c10.667 0 19.167 -2.33301 25.5 -7
s12.666 -10.334 18.999 -17.001s15 -12.5 26 -17.5s26.5 -7.5 46.5 -7.5c31.333 0 55.5 8.5 72.5 25.5s25.5 39.833 25.5 68.5c0 20 -4.66699 37.833 -14 53.5s-20.833 30.167 -34.5 43.5l-41 41c-13.667 14 -25.167 29.167 -34.5 45.5s-14 35.5 -14 57.5
c0 22.667 4.33301 41 13 55s18.5 26.5 29.5 37.5s20.833 23 29.5 36s13 30.5 13 52.5c0 30.667 -10.333 54.5 -31 71.5s-48.334 25.5 -83.001 25.5c-33.333 0 -61.5 -11 -84.5 -33s-34.5 -50.667 -34.5 -86v-530c0 -13.333 -4.5 -24.333 -13.5 -33s-20.5 -13 -34.5 -13z" />
    <glyph glyph-name="agrave" unicode="&#xe0;" 
d="M323 -4c-50 0 -94.666 12.001 -133.999 36.001s-70.333 57 -93 99s-34 89.333 -34 142c0 53.333 12.167 100.833 36.5 142.5s57.333 74.667 99 99s88.5 36.5 140.5 36.5c52.667 0 99.667 -12.167 141 -36.5s74.166 -57.5 98.499 -99.5s36.833 -89.333 37.5 -142l-36 -9
c0 -50.667 -11.333 -96.334 -34 -137.001s-53.167 -72.667 -91.5 -96s-81.833 -35 -130.5 -35zM338.001 78.001c36 0 68 8.5 96 25.5s50.167 40.333 66.5 70s24.5 62.834 24.5 99.501c0 37.333 -8.16699 70.833 -24.5 100.5s-38.5 53 -66.5 70s-60 25.5 -96 25.5
c-34.667 0 -66.334 -8.5 -95.001 -25.5s-51.167 -40.333 -67.5 -70s-24.5 -63.167 -24.5 -100.5c0 -36.667 8.16699 -69.834 24.5 -99.501s38.833 -53 67.5 -70s60.334 -25.5 95.001 -25.5zM568.001 -0.999023c-13.333 0 -24.333 4.33301 -33 13s-13 19.667 -13 33v160
l19 96l74 -28v-228c0 -13.333 -4.5 -24.333 -13.5 -33s-20.167 -13 -33.5 -13zM336.001 634.001c-12.667 0 -23 4.33301 -31 13l-104 103c-8 8 -12 18.667 -12 32s4.33301 24.5 13 33.5s19.334 13.5 32.001 13.5c13.333 0 24.666 -4.66699 33.999 -14l103 -104
c8 -7.33301 12 -17.333 12 -30c0 -13.333 -4.5 -24.5 -13.5 -33.5s-20.167 -13.5 -33.5 -13.5z" />
    <glyph glyph-name="aacute" unicode="&#xe1;" 
d="M323 -4c-50 0 -94.666 12.001 -133.999 36.001s-70.333 57 -93 99s-34 89.333 -34 142c0 53.333 12.167 100.833 36.5 142.5s57.333 74.667 99 99s88.5 36.5 140.5 36.5c52.667 0 99.667 -12.167 141 -36.5s74.166 -57.5 98.499 -99.5s36.833 -89.333 37.5 -142l-36 -9
c0 -50.667 -11.333 -96.334 -34 -137.001s-53.167 -72.667 -91.5 -96s-81.833 -35 -130.5 -35zM338.001 78.001c36 0 68 8.5 96 25.5s50.167 40.333 66.5 70s24.5 62.834 24.5 99.501c0 37.333 -8.16699 70.833 -24.5 100.5s-38.5 53 -66.5 70s-60 25.5 -96 25.5
c-34.667 0 -66.334 -8.5 -95.001 -25.5s-51.167 -40.333 -67.5 -70s-24.5 -63.167 -24.5 -100.5c0 -36.667 8.16699 -69.834 24.5 -99.501s38.833 -53 67.5 -70s60.334 -25.5 95.001 -25.5zM568.001 -0.999023c-13.333 0 -24.333 4.33301 -33 13s-13 19.667 -13 33v160
l19 96l74 -28v-228c0 -13.333 -4.5 -24.333 -13.5 -33s-20.167 -13 -33.5 -13zM338.001 632.001c-12.667 0 -23.501 4.5 -32.501 13.5s-13.5 19.833 -13.5 32.5s3.66699 23 11 31l104 104c8.66699 8.66699 19.334 13 32.001 13c14 0 25.333 -4.5 34 -13.5
s13 -20.167 13 -33.5c0 -6 -1 -11.667 -3 -17s-5.33301 -10.333 -10 -15l-103 -103c-8 -8 -18.667 -12 -32 -12z" />
    <glyph glyph-name="acircumflex" unicode="&#xe2;" 
d="M323 -4c-50 0 -94.666 12.001 -133.999 36.001s-70.333 57 -93 99s-34 89.333 -34 142c0 53.333 12.167 100.833 36.5 142.5s57.333 74.667 99 99s88.5 36.5 140.5 36.5c52.667 0 99.667 -12.167 141 -36.5s74.166 -57.5 98.499 -99.5s36.833 -89.333 37.5 -142l-36 -9
c0 -50.667 -11.333 -96.334 -34 -137.001s-53.167 -72.667 -91.5 -96s-81.833 -35 -130.5 -35zM338.001 78.001c36 0 68 8.5 96 25.5s50.167 40.333 66.5 70s24.5 62.834 24.5 99.501c0 37.333 -8.16699 70.833 -24.5 100.5s-38.5 53 -66.5 70s-60 25.5 -96 25.5
c-34.667 0 -66.334 -8.5 -95.001 -25.5s-51.167 -40.333 -67.5 -70s-24.5 -63.167 -24.5 -100.5c0 -36.667 8.16699 -69.834 24.5 -99.501s38.833 -53 67.5 -70s60.334 -25.5 95.001 -25.5zM568.001 -0.999023c-13.333 0 -24.333 4.33301 -33 13s-13 19.667 -13 33v160
l19 96l74 -28v-228c0 -13.333 -4.5 -24.333 -13.5 -33s-20.167 -13 -33.5 -13zM225.001 622.001c-13.333 0 -24.501 3.66699 -33.501 11s-13.5 16.666 -13.5 27.999c0 16 7.33301 29.333 22 40l115 75c7.33301 4.66699 15 7 23 7c4.66699 0 8.83398 -0.5 12.501 -1.5
s7.5 -2.83301 11.5 -5.5l114 -75c14.667 -10.667 22 -24 22 -40c0 -11.333 -4.33301 -20.666 -13 -27.999s-19.667 -11 -33 -11c-6 0 -11.167 0.833008 -15.5 2.5s-9.16602 4.16699 -14.499 7.5l-84 59l-84 -59c-8.66699 -6.66699 -18.334 -10 -29.001 -10z" />
    <glyph glyph-name="atilde" unicode="&#xe3;" 
d="M323 -4c-50 0 -94.666 12.001 -133.999 36.001s-70.333 57 -93 99s-34 89.333 -34 142c0 53.333 12.167 100.833 36.5 142.5s57.333 74.667 99 99s88.5 36.5 140.5 36.5c52.667 0 99.667 -12.167 141 -36.5s74.166 -57.5 98.499 -99.5s36.833 -89.333 37.5 -142l-36 -9
c0 -50.667 -11.333 -96.334 -34 -137.001s-53.167 -72.667 -91.5 -96s-81.833 -35 -130.5 -35zM338.001 78.001c36 0 68 8.5 96 25.5s50.167 40.333 66.5 70s24.5 62.834 24.5 99.501c0 37.333 -8.16699 70.833 -24.5 100.5s-38.5 53 -66.5 70s-60 25.5 -96 25.5
c-34.667 0 -66.334 -8.5 -95.001 -25.5s-51.167 -40.333 -67.5 -70s-24.5 -63.167 -24.5 -100.5c0 -36.667 8.16699 -69.834 24.5 -99.501s38.833 -53 67.5 -70s60.334 -25.5 95.001 -25.5zM568.001 -0.999023c-13.333 0 -24.333 4.33301 -33 13s-13 19.667 -13 33v160
l19 96l74 -28v-228c0 -13.333 -4.5 -24.333 -13.5 -33s-20.167 -13 -33.5 -13zM445.001 624.001c-22 0 -41.1602 3.66797 -57.4932 11.001s-30.5 14.333 -42.5 21c-14 8 -26 13.833 -36 17.5s-19 5.5 -27 5.5c-10.667 0 -20.334 -2.16699 -29.001 -6.5
s-17.334 -12.166 -26.001 -23.499c-7.33301 -10 -16.333 -17.167 -27 -21.5s-21.334 -3.5 -32.001 2.5c-9.33301 4.66699 -15 12.667 -17 24s0.666992 22 8 32c15.333 22 34.166 38.833 56.499 50.5s46.166 17.5 71.499 17.5c21.333 0 39.833 -3.66699 55.5 -11
s29.167 -14 40.5 -20c14.667 -8.66699 26 -14.667 34 -18s16.667 -5 26 -5s17.666 1.66699 24.999 5s13.666 7.66602 18.999 12.999c8.66699 8.66699 17 14.667 25 18s17.667 1.66602 29 -5.00098c10 -5.33301 15.667 -14 17 -26s-2 -23 -10 -33
c-26 -32 -60.333 -48 -103 -48z" />
    <glyph glyph-name="adieresis" unicode="&#xe4;" 
d="M323 -4c-50 0 -94.666 12.001 -133.999 36.001s-70.333 57 -93 99s-34 89.333 -34 142c0 53.333 12.167 100.833 36.5 142.5s57.333 74.667 99 99s88.5 36.5 140.5 36.5c52.667 0 99.667 -12.167 141 -36.5s74.166 -57.5 98.499 -99.5s36.833 -89.333 37.5 -142l-36 -9
c0 -50.667 -11.333 -96.334 -34 -137.001s-53.167 -72.667 -91.5 -96s-81.833 -35 -130.5 -35zM338.001 78.001c36 0 68 8.5 96 25.5s50.167 40.333 66.5 70s24.5 62.834 24.5 99.501c0 37.333 -8.16699 70.833 -24.5 100.5s-38.5 53 -66.5 70s-60 25.5 -96 25.5
c-34.667 0 -66.334 -8.5 -95.001 -25.5s-51.167 -40.333 -67.5 -70s-24.5 -63.167 -24.5 -100.5c0 -36.667 8.16699 -69.834 24.5 -99.501s38.833 -53 67.5 -70s60.334 -25.5 95.001 -25.5zM568.001 -0.999023c-13.333 0 -24.333 4.33301 -33 13s-13 19.667 -13 33v160
l19 96l74 -28v-228c0 -13.333 -4.5 -24.333 -13.5 -33s-20.167 -13 -33.5 -13zM230.001 637.001c-16 0 -29.833 5.66699 -41.5 17s-17.5 25 -17.5 41c0 15.333 5.83301 28.833 17.5 40.5s25.5 17.5 41.5 17.5s29.667 -5.83301 41 -17.5s17 -25.167 17 -40.5
c0 -16 -5.66699 -29.667 -17 -41s-25 -17 -41 -17zM447.001 637.001c-16 0 -29.667 5.66699 -41 17s-17 25 -17 41c0 15.333 5.66699 28.833 17 40.5s25 17.5 41 17.5s29.667 -5.83301 41 -17.5s17 -25.167 17 -40.5c0 -16 -5.66699 -29.667 -17 -41s-25 -17 -41 -17z" />
    <glyph glyph-name="aring" unicode="&#xe5;" 
d="M323 -4c-50 0 -94.666 12.001 -133.999 36.001s-70.333 57 -93 99s-34 89.333 -34 142c0 53.333 12.167 100.833 36.5 142.5s57.333 74.667 99 99s88.5 36.5 140.5 36.5c52.667 0 99.667 -12.167 141 -36.5s74.166 -57.5 98.499 -99.5s36.833 -89.333 37.5 -142l-36 -9
c0 -50.667 -11.333 -96.334 -34 -137.001s-53.167 -72.667 -91.5 -96s-81.833 -35 -130.5 -35zM338.001 78.001c36 0 68 8.5 96 25.5s50.167 40.333 66.5 70s24.5 62.834 24.5 99.501c0 37.333 -8.16699 70.833 -24.5 100.5s-38.5 53 -66.5 70s-60 25.5 -96 25.5
c-34.667 0 -66.334 -8.5 -95.001 -25.5s-51.167 -40.333 -67.5 -70s-24.5 -63.167 -24.5 -100.5c0 -36.667 8.16699 -69.834 24.5 -99.501s38.833 -53 67.5 -70s60.334 -25.5 95.001 -25.5zM568.001 -0.999023c-13.333 0 -24.333 4.33301 -33 13s-13 19.667 -13 33v160
l19 96l74 -28v-228c0 -13.333 -4.5 -24.333 -13.5 -33s-20.167 -13 -33.5 -13zM338.001 589.001c-29.333 0 -53.833 9.66699 -73.5 29s-29.5 44 -29.5 74s9.83301 54.833 29.5 74.5s44.167 29.5 73.5 29.5c30 0 54.833 -9.83301 74.5 -29.5s29.5 -44.5 29.5 -74.5
c0 -29.333 -9.66699 -53.833 -29 -73.5s-44.333 -29.5 -75 -29.5zM338.001 640.001c15.333 0 27.833 5 37.5 15s14.5 22.333 14.5 37c0 15.333 -4.83301 28 -14.5 38s-22.167 15 -37.5 15c-14.667 0 -27 -5 -37 -15s-15 -22.667 -15 -38c0 -14.667 5 -27 15 -37
s22.333 -15 37 -15z" />
    <glyph glyph-name="ae" unicode="&#xe6;" horiz-adv-x="1086" 
d="M811 -4c-52.667 0 -99.6621 11.8291 -140.995 35.4961s-73.5 56.334 -96.5 98.001s-34.5 89.5 -34.5 143.5c0 54.667 11 102.834 33 144.501s52.333 74.334 91 98.001s83 35.5 133 35.5c51.333 0 95.666 -11.5 132.999 -34.5s66.166 -54.667 86.499 -95
s30.5 -86.833 30.5 -139.5c0 -11.333 -4 -20.833 -12 -28.5s-18.333 -11.5 -31 -11.5h-411v74h413l-42 -29c0 35.333 -6.83301 67 -20.5 95s-32.834 50 -57.501 66s-54.334 24 -89.001 24c-38 0 -70.833 -8.66699 -98.5 -26s-48.834 -41 -63.501 -71s-22 -64 -22 -102
s8.5 -71.833 25.5 -101.5s40.5 -53.167 70.5 -70.5s64.333 -26 103 -26c23.333 0 46 4 68 12s40 17.333 54 28c8.66699 7.33301 18.5 11.333 29.5 12s20.167 -2.66602 27.5 -9.99902c10.667 -10 16.167 -20.333 16.5 -31s-4.5 -20 -14.5 -28c-22 -18 -50 -32.833 -84 -44.5
s-66.333 -17.5 -97 -17.5zM323.005 -4.00391c-50 0 -94.665 12.1641 -133.998 36.4971s-70.333 57.333 -93 99s-34 88.834 -34 141.501s12.167 100 36.5 142s57.333 75.167 99 99.5s88.5 36.5 140.5 36.5c52.667 0 99.667 -12.167 141 -36.5s74.166 -57.5 98.499 -99.5
s36.833 -89.333 37.5 -142l-36 -9c0 -51.333 -11.167 -97.166 -33.5 -137.499s-52.833 -72.166 -91.5 -95.499s-82.334 -35 -131.001 -35zM338.007 77.9932c36 0 68 8.5 96 25.5s50.167 40.333 66.5 70s24.5 62.834 24.5 99.501c0 37.333 -8.16699 70.833 -24.5 100.5
s-38.5 53 -66.5 70s-60 25.5 -96 25.5c-34.667 0 -66.334 -8.5 -95.001 -25.5s-51.167 -40.333 -67.5 -70s-24.5 -63.167 -24.5 -100.5c0 -36.667 8.16699 -69.834 24.5 -99.501s38.833 -53 67.5 -70s60.334 -25.5 95.001 -25.5zM568.007 -1.00684
c-13.333 0 -24.333 4.33301 -33 13s-13 19.667 -13 33v160l19 96l74 -28v-228c0 -13.333 -4.5 -24.333 -13.5 -33s-20.167 -13 -33.5 -13z" />
    <glyph glyph-name="ccedilla" unicode="&#xe7;" horiz-adv-x="599" 
d="M336 -4c-52.667 0 -99.665 12.166 -140.998 36.499s-73.833 57.333 -97.5 99s-35.5 88.834 -35.5 141.501c0 54 11.5 102 34.5 144s54.5 74.833 94.5 98.5s86.333 35.5 139 35.5c39.333 0 75.666 -7.66699 108.999 -23s63 -38.333 89 -69
c8.66699 -9.33301 11.834 -19.333 9.50098 -30s-9.16602 -20 -20.499 -28c-8 -6 -17.333 -8 -28 -6s-20 7.66699 -28 17c-35.333 38 -79 57 -131 57c-35.333 0 -66.5 -8.33301 -93.5 -25s-48 -39.5 -63 -68.5s-22.5 -63.167 -22.5 -102.5
c0 -37.333 7.83301 -70.666 23.5 -99.999s37.5 -52.5 65.5 -69.5s60 -25.5 96 -25.5c24.667 0 46.667 3 66 9s36.666 15.667 51.999 29c9.33301 8 19.166 12.333 29.499 13s19.5 -2.33301 27.5 -9c10 -8.66699 15.667 -18.334 17 -29.001s-2.33398 -20 -11.001 -28
c-48 -44.667 -108.333 -67 -181 -67zM316.002 -234.001c-38.667 0 -70.334 8.1709 -95.001 24.5039s-37 35.166 -37 56.499c0 12 4.33301 22.167 13 30.5s19 12.5 31 12.5c7.33301 0 13.833 -1.83301 19.5 -5.5s10.5 -9.5 14.5 -17.5c4.66699 -10 11.834 -17.667 21.501 -23
s20.834 -8 33.501 -8c14 0 25.5 3.16699 34.5 9.5s13.5 15.166 13.5 26.499c0 12.667 -3.5 22.667 -10.5 30s-19.167 12.666 -36.5 15.999c-19.333 3.33301 -32.833 9.66602 -40.5 18.999s-7.83398 24 -0.500977 44l12 33c4 11.333 10.333 20.333 19 27s19.667 10 33 10
c15.333 0 26.833 -5.16699 34.5 -15.5s8.16699 -22.5 1.5 -36.5l-15 -34c34.667 -8 59.5 -19.833 74.5 -35.5s22.5 -35.5 22.5 -59.5c0 -17.333 -6 -34 -18 -50s-28.667 -29 -50 -39s-46.333 -15 -75 -15z" />
    <glyph glyph-name="egrave" unicode="&#xe8;" horiz-adv-x="618" 
d="M344 -4c-55.333 0 -104.161 11.832 -146.494 35.499s-75.5 56.334 -99.5 98.001s-36 89.5 -36 143.5c0 54.667 11.333 102.834 34 144.501s54 74.334 94 98.001s86.333 35.5 139 35.5c51.333 0 95.666 -11.5 132.999 -34.5s66 -54.667 86 -95s30 -86.833 30 -139.5
c0 -11.333 -3.83301 -20.833 -11.5 -28.5s-17.834 -11.5 -30.501 -11.5h-411v74h412l-41 -29c-0.666992 35.333 -7.66699 67 -21 95s-32.333 50 -57 66s-54.334 24 -89.001 24c-38 0 -70.833 -8.66699 -98.5 -26s-48.834 -41 -63.501 -71s-22 -64 -22 -102
s8.5 -71.833 25.5 -101.5s40.333 -53.167 70 -70.5s64.167 -26 103.5 -26c21.333 0 43.5 4 66.5 12s41.167 17.333 54.5 28c9.33301 7.33301 19.333 11.166 30 11.499s20 -2.83398 28 -9.50098c10 -9.33301 15.333 -19.5 16 -30.5s-4 -20.5 -14 -28.5
c-22.667 -18 -50.834 -32.833 -84.501 -44.5s-65.834 -17.5 -96.501 -17.5zM318.005 633.999c-12.667 0 -23 4.33301 -31 13l-104 103c-8 8 -12 18.667 -12 32s4.33301 24.5 13 33.5s19.334 13.5 32.001 13.5c13.333 0 24.666 -4.66699 33.999 -14l103 -104
c8 -7.33301 12 -17.333 12 -30c0 -13.333 -4.5 -24.5 -13.5 -33.5s-20.167 -13.5 -33.5 -13.5z" />
    <glyph glyph-name="eacute" unicode="&#xe9;" horiz-adv-x="618" 
d="M344 -4c-55.333 0 -104.161 11.832 -146.494 35.499s-75.5 56.334 -99.5 98.001s-36 89.5 -36 143.5c0 54.667 11.333 102.834 34 144.501s54 74.334 94 98.001s86.333 35.5 139 35.5c51.333 0 95.666 -11.5 132.999 -34.5s66 -54.667 86 -95s30 -86.833 30 -139.5
c0 -11.333 -3.83301 -20.833 -11.5 -28.5s-17.834 -11.5 -30.501 -11.5h-411v74h412l-41 -29c-0.666992 35.333 -7.66699 67 -21 95s-32.333 50 -57 66s-54.334 24 -89.001 24c-38 0 -70.833 -8.66699 -98.5 -26s-48.834 -41 -63.501 -71s-22 -64 -22 -102
s8.5 -71.833 25.5 -101.5s40.333 -53.167 70 -70.5s64.167 -26 103.5 -26c21.333 0 43.5 4 66.5 12s41.167 17.333 54.5 28c9.33301 7.33301 19.333 11.166 30 11.499s20 -2.83398 28 -9.50098c10 -9.33301 15.333 -19.5 16 -30.5s-4 -20.5 -14 -28.5
c-22.667 -18 -50.834 -32.833 -84.501 -44.5s-65.834 -17.5 -96.501 -17.5zM320.005 631.999c-12.667 0 -23.501 4.5 -32.501 13.5s-13.5 19.833 -13.5 32.5s3.66699 23 11 31l104 104c8.66699 8.66699 19.334 13 32.001 13c14 0 25.333 -4.5 34 -13.5s13 -20.167 13 -33.5
c0 -6 -1 -11.667 -3 -17s-5.33301 -10.333 -10 -15l-103 -103c-8 -8 -18.667 -12 -32 -12z" />
    <glyph glyph-name="ecircumflex" unicode="&#xea;" horiz-adv-x="618" 
d="M344 -4c-55.333 0 -104.161 11.832 -146.494 35.499s-75.5 56.334 -99.5 98.001s-36 89.5 -36 143.5c0 54.667 11.333 102.834 34 144.501s54 74.334 94 98.001s86.333 35.5 139 35.5c51.333 0 95.666 -11.5 132.999 -34.5s66 -54.667 86 -95s30 -86.833 30 -139.5
c0 -11.333 -3.83301 -20.833 -11.5 -28.5s-17.834 -11.5 -30.501 -11.5h-411v74h412l-41 -29c-0.666992 35.333 -7.66699 67 -21 95s-32.333 50 -57 66s-54.334 24 -89.001 24c-38 0 -70.833 -8.66699 -98.5 -26s-48.834 -41 -63.501 -71s-22 -64 -22 -102
s8.5 -71.833 25.5 -101.5s40.333 -53.167 70 -70.5s64.167 -26 103.5 -26c21.333 0 43.5 4 66.5 12s41.167 17.333 54.5 28c9.33301 7.33301 19.333 11.166 30 11.499s20 -2.83398 28 -9.50098c10 -9.33301 15.333 -19.5 16 -30.5s-4 -20.5 -14 -28.5
c-22.667 -18 -50.834 -32.833 -84.501 -44.5s-65.834 -17.5 -96.501 -17.5zM207.005 621.999c-13.333 0 -24.501 3.66699 -33.501 11s-13.5 16.666 -13.5 27.999c0 16 7.33301 29.333 22 40l115 75c7.33301 4.66699 15 7 23 7c4.66699 0 8.83398 -0.5 12.501 -1.5
s7.5 -2.83301 11.5 -5.5l114 -75c14.667 -10.667 22 -24 22 -40c0 -11.333 -4.33301 -20.666 -13 -27.999s-19.667 -11 -33 -11c-6 0 -11.167 0.833008 -15.5 2.5s-9.16602 4.16699 -14.499 7.5l-84 59l-84 -59c-8.66699 -6.66699 -18.334 -10 -29.001 -10z" />
    <glyph glyph-name="edieresis" unicode="&#xeb;" horiz-adv-x="618" 
d="M344 -4c-55.333 0 -104.161 11.832 -146.494 35.499s-75.5 56.334 -99.5 98.001s-36 89.5 -36 143.5c0 54.667 11.333 102.834 34 144.501s54 74.334 94 98.001s86.333 35.5 139 35.5c51.333 0 95.666 -11.5 132.999 -34.5s66 -54.667 86 -95s30 -86.833 30 -139.5
c0 -11.333 -3.83301 -20.833 -11.5 -28.5s-17.834 -11.5 -30.501 -11.5h-411v74h412l-41 -29c-0.666992 35.333 -7.66699 67 -21 95s-32.333 50 -57 66s-54.334 24 -89.001 24c-38 0 -70.833 -8.66699 -98.5 -26s-48.834 -41 -63.501 -71s-22 -64 -22 -102
s8.5 -71.833 25.5 -101.5s40.333 -53.167 70 -70.5s64.167 -26 103.5 -26c21.333 0 43.5 4 66.5 12s41.167 17.333 54.5 28c9.33301 7.33301 19.333 11.166 30 11.499s20 -2.83398 28 -9.50098c10 -9.33301 15.333 -19.5 16 -30.5s-4 -20.5 -14 -28.5
c-22.667 -18 -50.834 -32.833 -84.501 -44.5s-65.834 -17.5 -96.501 -17.5zM212.005 636.999c-16 0 -29.833 5.66699 -41.5 17s-17.5 25 -17.5 41c0 15.333 5.83301 28.833 17.5 40.5s25.5 17.5 41.5 17.5s29.667 -5.83301 41 -17.5s17 -25.167 17 -40.5
c0 -16 -5.66699 -29.667 -17 -41s-25 -17 -41 -17zM429.005 636.999c-16 0 -29.667 5.66699 -41 17s-17 25 -17 41c0 15.333 5.66699 28.833 17 40.5s25 17.5 41 17.5s29.667 -5.83301 41 -17.5s17 -25.167 17 -40.5c0 -16 -5.66699 -29.667 -17 -41s-25 -17 -41 -17z" />
    <glyph glyph-name="igrave" unicode="&#xec;" horiz-adv-x="297" 
d="M149 0c-14 0 -25.333 4.33301 -34 13s-13 19.667 -13 33v455c0 14 4.33301 25.167 13 33.5s20 12.5 34 12.5c13.333 0 24.333 -4.16699 33 -12.5s13 -19.5 13 -33.5v-455c0 -13.333 -4.33301 -24.333 -13 -33s-19.667 -13 -33 -13zM146 634c-12.667 0 -23 4.33301 -31 13
l-104 103c-8 8 -12 18.667 -12 32s4.33301 24.5 13 33.5s19.334 13.5 32.001 13.5c13.333 0 24.666 -4.66699 33.999 -14l103 -104c8 -7.33301 12 -17.333 12 -30c0 -13.333 -4.5 -24.5 -13.5 -33.5s-20.167 -13.5 -33.5 -13.5z" />
    <glyph glyph-name="iacute" unicode="&#xed;" horiz-adv-x="297" 
d="M149 0c-14 0 -25.333 4.33301 -34 13s-13 19.667 -13 33v455c0 14 4.33301 25.167 13 33.5s20 12.5 34 12.5c13.333 0 24.333 -4.16699 33 -12.5s13 -19.5 13 -33.5v-455c0 -13.333 -4.33301 -24.333 -13 -33s-19.667 -13 -33 -13zM148 632
c-12.667 0 -23.501 4.5 -32.501 13.5s-13.5 19.833 -13.5 32.5s3.66699 23 11 31l104 104c8.66699 8.66699 19.334 13 32.001 13c14 0 25.333 -4.5 34 -13.5s13 -20.167 13 -33.5c0 -6 -1 -11.667 -3 -17s-5.33301 -10.333 -10 -15l-103 -103c-8 -8 -18.667 -12 -32 -12z
" />
    <glyph glyph-name="icircumflex" unicode="&#xee;" horiz-adv-x="297" 
d="M47 622c-12 0 -22 3.66699 -30 11s-12 16.666 -12 27.999c0 16 6.66699 29.333 20 40l102 75c6.66699 4.66699 14 7 22 7c3.33301 0 6.83301 -0.5 10.5 -1.5s7.16699 -2.83301 10.5 -5.5l102 -75c13.333 -10.667 20 -24 20 -40c0 -11.333 -3.83301 -20.666 -11.5 -27.999
s-17.5 -11 -29.5 -11c-5.33301 0 -10 0.833008 -14 2.5s-8.33301 4.16699 -13 7.5l-75 59l-76 -59c-8 -6.66699 -16.667 -10 -26 -10zM149 0c-14 0 -25.333 4.33301 -34 13s-13 19.667 -13 33v455c0 14 4.33301 25.167 13 33.5s20 12.5 34 12.5
c13.333 0 24.333 -4.16699 33 -12.5s13 -19.5 13 -33.5v-455c0 -13.333 -4.33301 -24.333 -13 -33s-19.667 -13 -33 -13z" />
    <glyph glyph-name="idieresis" unicode="&#xef;" horiz-adv-x="297" 
d="M50 664c-16 0 -29.833 5.66699 -41.5 17s-17.5 25.333 -17.5 42c0 15.333 5.83301 28.833 17.5 40.5s25.5 17.5 41.5 17.5s29.667 -5.83301 41 -17.5s17 -25.167 17 -40.5c0 -16.667 -5.66699 -30.667 -17 -42s-25 -17 -41 -17zM247 664c-16 0 -29.667 5.66699 -41 17
s-17 25.333 -17 42c0 15.333 5.66699 28.833 17 40.5s25 17.5 41 17.5s29.667 -5.83301 41 -17.5s17 -25.167 17 -40.5c0 -16.667 -5.66699 -30.667 -17 -42s-25 -17 -41 -17zM149 0c-14 0 -25.333 4.33301 -34 13s-13 19.667 -13 33v455c0 14 4.33301 25.167 13 33.5
s20 12.5 34 12.5c13.333 0 24.333 -4.16699 33 -12.5s13 -19.5 13 -33.5v-455c0 -13.333 -4.33301 -24.333 -13 -33s-19.667 -13 -33 -13z" />
    <glyph glyph-name="eth" unicode="&#xf0;" horiz-adv-x="671" 
d="M328 -4c-52 0 -98.002 10.998 -138.002 32.998s-71.333 52.667 -94 92s-34 84.333 -34 135s10.667 95.334 32 134.001s50.833 69 88.5 91s80.834 33 129.501 33c47.333 0 89.333 -10.833 126 -32.5s65.334 -51.167 86.001 -88.5s31 -81 31 -131h46
c0 -51.333 -11.833 -97.166 -35.5 -137.499s-56 -71.833 -97 -94.5s-87.833 -34 -140.5 -34zM327.998 77.998c36 0 67.833 7.5 95.5 22.5s49.334 35.833 65.001 62.5s23.5 57.667 23.5 93c0 34 -7.83301 64.167 -23.5 90.5s-37.334 47 -65.001 62s-59.5 22.5 -95.5 22.5
c-34.667 0 -65.334 -7.5 -92.001 -22.5s-47.5 -35.667 -62.5 -62s-22.5 -56.5 -22.5 -90.5c0 -35.333 7.5 -66.333 22.5 -93s35.833 -47.5 62.5 -62.5s57.334 -22.5 92.001 -22.5zM530.998 260.998l-2.00391 91.001c-0.666992 54.667 -6 101.167 -16 139.5
s-26.333 71.166 -49 98.499s-53 51.333 -91 72s-85.333 40.334 -142 59.001c-16 5.33301 -27.167 12 -33.5 20s-7.16602 18 -2.49902 30c4 11.333 11.333 17.833 22 19.5s22 0.166992 34 -4.5c66.667 -24 122.334 -49 167.001 -75s80.334 -55.333 107.001 -88
s45.834 -70.334 57.501 -113.001s17.5 -92 17.5 -148l1 -101h-70zM252.994 605.999c-8 4 -13.499 9.16895 -16.499 15.502s-1.83301 14.166 3.5 23.499l93 174c5.33301 9.33301 11.333 14.666 18 15.999s14 -0.666992 22 -6c9.33301 -5.33301 15.166 -11.333 17.499 -18
s1.5 -13.667 -2.5 -21l-94 -175c-4 -7.33301 -9.83301 -12 -17.5 -14s-15.5 -0.333008 -23.5 5z" />
    <glyph glyph-name="ntilde" unicode="&#xf1;" horiz-adv-x="680" 
d="M555 -1c-13.333 0 -24.501 4.5 -33.501 13.5s-13.5 19.833 -13.5 32.5v252c0 39.333 -7.33301 71.5 -22 96.5s-34.334 43.667 -59.001 56s-53 18.5 -85 18.5c-30 0 -57 -6 -81 -18s-43.167 -28 -57.5 -48s-21.5 -43 -21.5 -69h-60c0.666992 42 11.334 79.5 32.001 112.5
s48.667 59 84 78s75 28.5 119 28.5c46.667 0 88.334 -9.83301 125.001 -29.5s65.667 -48.5 87 -86.5s32 -84.333 32 -139v-252c0 -12.667 -4.5 -23.5 -13.5 -32.5s-19.833 -13.5 -32.5 -13.5zM135.999 -1c-13.333 0 -24.333 4.33301 -33 13s-13 19.667 -13 33v456
c0 14 4.33301 25.167 13 33.5s19.667 12.5 33 12.5c14 0 25.167 -4.16699 33.5 -12.5s12.5 -19.5 12.5 -33.5v-456c0 -13.333 -4.16699 -24.333 -12.5 -33s-19.5 -13 -33.5 -13zM445.999 624c-22 0 -41.1602 3.66797 -57.4932 11.001s-30.5 14.333 -42.5 21
c-14 8 -26 13.833 -36 17.5s-19 5.5 -27 5.5c-10.667 0 -20.334 -2.16699 -29.001 -6.5s-17.334 -12.166 -26.001 -23.499c-7.33301 -10 -16.333 -17.167 -27 -21.5s-21.334 -3.5 -32.001 2.5c-9.33301 4.66699 -15 12.667 -17 24s0.666992 22 8 32
c15.333 22 34.166 38.833 56.499 50.5s46.166 17.5 71.499 17.5c21.333 0 39.833 -3.66699 55.5 -11s29.167 -14 40.5 -20c14.667 -8.66699 26 -14.667 34 -18s16.667 -5 26 -5s17.666 1.66699 24.999 5s13.666 7.66602 18.999 12.999c8.66699 8.66699 17 14.667 25 18
s17.667 1.66602 29 -5.00098c10 -5.33301 15.667 -14 17 -26s-2 -23 -10 -33c-26 -32 -60.333 -48 -103 -48z" />
    <glyph glyph-name="ograve" unicode="&#xf2;" 
d="M338 -4c-53.333 0 -100.835 11.833 -142.502 35.5s-74.334 56.334 -98.001 98.001s-35.5 89.5 -35.5 143.5c0 54.667 11.833 102.834 35.5 144.501s56.334 74.334 98.001 98.001s89.167 35.5 142.5 35.5s100.833 -11.833 142.5 -35.5s74.334 -56.334 98.001 -98.001
s35.834 -89.834 36.501 -144.501c0 -54 -12 -101.833 -36 -143.5s-56.667 -74.334 -98 -98.001s-89 -35.5 -143 -35.5zM337.998 78c36.667 0 69 8.33301 97 25s50 39.667 66 69s24 63 24 101s-8 71.833 -24 101.5s-38 52.834 -66 69.501s-60.333 25 -97 25
c-36 0 -68.167 -8.33301 -96.5 -25s-50.5 -39.834 -66.5 -69.501s-24 -63.5 -24 -101.5s8 -71.667 24 -101s38.167 -52.333 66.5 -69s60.5 -25 96.5 -25zM335.998 634c-12.667 0 -23 4.33301 -31 13l-104 103c-8 8 -12 18.667 -12 32s4.33301 24.5 13 33.5
s19.334 13.5 32.001 13.5c13.333 0 24.666 -4.66699 33.999 -14l103 -104c8 -7.33301 12 -17.333 12 -30c0 -13.333 -4.5 -24.5 -13.5 -33.5s-20.167 -13.5 -33.5 -13.5z" />
    <glyph glyph-name="oacute" unicode="&#xf3;" 
d="M338 -4c-53.333 0 -100.835 11.833 -142.502 35.5s-74.334 56.334 -98.001 98.001s-35.5 89.5 -35.5 143.5c0 54.667 11.833 102.834 35.5 144.501s56.334 74.334 98.001 98.001s89.167 35.5 142.5 35.5s100.833 -11.833 142.5 -35.5s74.334 -56.334 98.001 -98.001
s35.834 -89.834 36.501 -144.501c0 -54 -12 -101.833 -36 -143.5s-56.667 -74.334 -98 -98.001s-89 -35.5 -143 -35.5zM337.998 78c36.667 0 69 8.33301 97 25s50 39.667 66 69s24 63 24 101s-8 71.833 -24 101.5s-38 52.834 -66 69.501s-60.333 25 -97 25
c-36 0 -68.167 -8.33301 -96.5 -25s-50.5 -39.834 -66.5 -69.501s-24 -63.5 -24 -101.5s8 -71.667 24 -101s38.167 -52.333 66.5 -69s60.5 -25 96.5 -25zM337.998 632c-12.667 0 -23.501 4.5 -32.501 13.5s-13.5 19.833 -13.5 32.5s3.66699 23 11 31l104 104
c8.66699 8.66699 19.334 13 32.001 13c14 0 25.333 -4.5 34 -13.5s13 -20.167 13 -33.5c0 -6 -1 -11.667 -3 -17s-5.33301 -10.333 -10 -15l-103 -103c-8 -8 -18.667 -12 -32 -12z" />
    <glyph glyph-name="ocircumflex" unicode="&#xf4;" 
d="M338 -4c-53.333 0 -100.835 11.833 -142.502 35.5s-74.334 56.334 -98.001 98.001s-35.5 89.5 -35.5 143.5c0 54.667 11.833 102.834 35.5 144.501s56.334 74.334 98.001 98.001s89.167 35.5 142.5 35.5s100.833 -11.833 142.5 -35.5s74.334 -56.334 98.001 -98.001
s35.834 -89.834 36.501 -144.501c0 -54 -12 -101.833 -36 -143.5s-56.667 -74.334 -98 -98.001s-89 -35.5 -143 -35.5zM337.998 78c36.667 0 69 8.33301 97 25s50 39.667 66 69s24 63 24 101s-8 71.833 -24 101.5s-38 52.834 -66 69.501s-60.333 25 -97 25
c-36 0 -68.167 -8.33301 -96.5 -25s-50.5 -39.834 -66.5 -69.501s-24 -63.5 -24 -101.5s8 -71.667 24 -101s38.167 -52.333 66.5 -69s60.5 -25 96.5 -25zM224.998 622c-13.333 0 -24.501 3.66699 -33.501 11s-13.5 16.666 -13.5 27.999c0 16 7.33301 29.333 22 40l115 75
c7.33301 4.66699 15 7 23 7c4.66699 0 8.83398 -0.5 12.501 -1.5s7.5 -2.83301 11.5 -5.5l114 -75c14.667 -10.667 22 -24 22 -40c0 -11.333 -4.33301 -20.666 -13 -27.999s-19.667 -11 -33 -11c-6 0 -11.167 0.833008 -15.5 2.5s-9.16602 4.16699 -14.499 7.5l-84 59
l-84 -59c-8.66699 -6.66699 -18.334 -10 -29.001 -10z" />
    <glyph glyph-name="otilde" unicode="&#xf5;" 
d="M338 -4c-53.333 0 -100.835 11.833 -142.502 35.5s-74.334 56.334 -98.001 98.001s-35.5 89.5 -35.5 143.5c0 54.667 11.833 102.834 35.5 144.501s56.334 74.334 98.001 98.001s89.167 35.5 142.5 35.5s100.833 -11.833 142.5 -35.5s74.334 -56.334 98.001 -98.001
s35.834 -89.834 36.501 -144.501c0 -54 -12 -101.833 -36 -143.5s-56.667 -74.334 -98 -98.001s-89 -35.5 -143 -35.5zM337.998 78c36.667 0 69 8.33301 97 25s50 39.667 66 69s24 63 24 101s-8 71.833 -24 101.5s-38 52.834 -66 69.501s-60.333 25 -97 25
c-36 0 -68.167 -8.33301 -96.5 -25s-50.5 -39.834 -66.5 -69.501s-24 -63.5 -24 -101.5s8 -71.667 24 -101s38.167 -52.333 66.5 -69s60.5 -25 96.5 -25zM444.998 624c-22 0 -41.1602 3.66797 -57.4932 11.001s-30.5 14.333 -42.5 21c-14 8 -26 13.833 -36 17.5
s-19 5.5 -27 5.5c-10.667 0 -20.334 -2.16699 -29.001 -6.5s-17.334 -12.166 -26.001 -23.499c-7.33301 -10 -16.333 -17.167 -27 -21.5s-21.334 -3.5 -32.001 2.5c-9.33301 4.66699 -15 12.667 -17 24s0.666992 22 8 32c15.333 22 34.166 38.833 56.499 50.5
s46.166 17.5 71.499 17.5c21.333 0 39.833 -3.66699 55.5 -11s29.167 -14 40.5 -20c14.667 -8.66699 26 -14.667 34 -18s16.667 -5 26 -5s17.666 1.66699 24.999 5s13.666 7.66602 18.999 12.999c8.66699 8.66699 17 14.667 25 18s17.667 1.66602 29 -5.00098
c10 -5.33301 15.667 -14 17 -26s-2 -23 -10 -33c-26 -32 -60.333 -48 -103 -48z" />
    <glyph glyph-name="odieresis" unicode="&#xf6;" 
d="M338 -4c-53.333 0 -100.835 11.833 -142.502 35.5s-74.334 56.334 -98.001 98.001s-35.5 89.5 -35.5 143.5c0 54.667 11.833 102.834 35.5 144.501s56.334 74.334 98.001 98.001s89.167 35.5 142.5 35.5s100.833 -11.833 142.5 -35.5s74.334 -56.334 98.001 -98.001
s35.834 -89.834 36.501 -144.501c0 -54 -12 -101.833 -36 -143.5s-56.667 -74.334 -98 -98.001s-89 -35.5 -143 -35.5zM337.998 78c36.667 0 69 8.33301 97 25s50 39.667 66 69s24 63 24 101s-8 71.833 -24 101.5s-38 52.834 -66 69.501s-60.333 25 -97 25
c-36 0 -68.167 -8.33301 -96.5 -25s-50.5 -39.834 -66.5 -69.501s-24 -63.5 -24 -101.5s8 -71.667 24 -101s38.167 -52.333 66.5 -69s60.5 -25 96.5 -25zM229.998 637c-16 0 -29.833 5.66699 -41.5 17s-17.5 25 -17.5 41c0 15.333 5.83301 28.833 17.5 40.5
s25.5 17.5 41.5 17.5s29.667 -5.83301 41 -17.5s17 -25.167 17 -40.5c0 -16 -5.66699 -29.667 -17 -41s-25 -17 -41 -17zM446.998 637c-16 0 -29.667 5.66699 -41 17s-17 25 -17 41c0 15.333 5.66699 28.833 17 40.5s25 17.5 41 17.5s29.667 -5.83301 41 -17.5
s17 -25.167 17 -40.5c0 -16 -5.66699 -29.667 -17 -41s-25 -17 -41 -17z" />
    <glyph glyph-name="divide" unicode="&#xf7;" horiz-adv-x="469" 
d="M84 303c-13.333 0 -24.333 4.33301 -33 13s-13 20 -13 34c0 12.667 4.33301 23.334 13 32.001s19.667 13 33 13h303c13.333 0 24.5 -4.33301 33.5 -13s13.5 -19.334 13.5 -32.001c0 -14 -4.5 -25.333 -13.5 -34s-20.167 -13 -33.5 -13h-303zM235 151
c-15.333 0 -28.5 5.5 -39.5 16.5s-16.5 24.5 -16.5 40.5c0 15.333 5.5 28.333 16.5 39s24.167 16 39.5 16c16 0 29.333 -5.33301 40 -16s16 -23.667 16 -39c0 -16 -5.33301 -29.5 -16 -40.5s-24 -16.5 -40 -16.5zM235 435c-15.333 0 -28.5 5.5 -39.5 16.5
s-16.5 24.167 -16.5 39.5c0 16 5.5 29.333 16.5 40s24.167 16 39.5 16c16 0 29.333 -5.33301 40 -16s16 -24 16 -40c0 -15.333 -5.33301 -28.5 -16 -39.5s-24 -16.5 -40 -16.5z" />
    <glyph glyph-name="oslash" unicode="&#xf8;" horiz-adv-x="704" 
d="M93 -20c-13.333 0 -22.834 6.16504 -28.501 18.498s-3.5 23.5 6.5 33.5l74 74l37 28l315 315l29 28l64 64c6.66699 6.66699 14.334 10 23.001 10c10 0 17.5 -3.16699 22.5 -9.5s7.5 -13.666 7.5 -21.999s-2.66699 -15.166 -8 -20.499l-69 -69l-26 -22l-317 -316l-29 -24
l-79 -79c-6 -6 -13.333 -9 -22 -9zM356.999 -8.00195c-53.333 0 -100.832 11.833 -142.499 35.5s-74.5 56.5 -98.5 98.5s-36 89.667 -36 143c0 54.667 12 102.834 36 144.501s56.833 74.5 98.5 98.5s89.167 36 142.5 36s100.666 -12 141.999 -36s74 -56.833 98 -98.5
s36 -89.834 36 -144.501c0 -53.333 -11.833 -101 -35.5 -143s-56.167 -74.833 -97.5 -98.5s-89 -35.5 -143 -35.5zM357 73.998c36.667 0 69 8.33301 97 25s50 39.667 66 69s24 63 24 101s-8 71.833 -24 101.5s-38 52.834 -66 69.501s-60.333 25 -97 25
c-36 0 -68.167 -8.33301 -96.5 -25s-50.5 -39.834 -66.5 -69.501s-24 -63.5 -24 -101.5s8 -71.667 24 -101s38.167 -52.333 66.5 -69s60.5 -25 96.5 -25z" />
    <glyph glyph-name="ugrave" unicode="&#xf9;" horiz-adv-x="680" 
d="M323 -5c-46.667 0 -88.3359 9.83203 -125.003 29.499s-65.667 48.5 -87 86.5s-32 84.333 -32 139v252c0 12.667 4.5 23.5 13.5 32.5s19.833 13.5 32.5 13.5c13.333 0 24.5 -4.5 33.5 -13.5s13.5 -19.833 13.5 -32.5v-252c0 -38.667 7.33301 -70.667 22 -96
s34.5 -44.166 59.5 -56.499s53.167 -18.5 84.5 -18.5c30.667 0 57.834 6 81.501 18s42.667 28.167 57 48.5s21.5 43.166 21.5 68.499h60c-1.33301 -41.333 -12.166 -78.666 -32.499 -111.999s-48.166 -59.5 -83.499 -78.5s-75 -28.5 -119 -28.5zM543.998 -0.000976562
c-13.333 0 -24.333 4.33301 -33 13s-13 19.667 -13 33v456c0 13.333 4.33301 24.333 13 33s19.667 13 33 13s24.333 -4.33301 33 -13s13 -19.667 13 -33v-456c0 -13.333 -4.33301 -24.333 -13 -33s-19.667 -13 -33 -13zM337.998 633.999c-12.667 0 -23 4.33301 -31 13
l-104 103c-8 8 -12 18.667 -12 32s4.33301 24.5 13 33.5s19.334 13.5 32.001 13.5c13.333 0 24.666 -4.66699 33.999 -14l103 -104c8 -7.33301 12 -17.333 12 -30c0 -13.333 -4.5 -24.5 -13.5 -33.5s-20.167 -13.5 -33.5 -13.5z" />
    <glyph glyph-name="uacute" unicode="&#xfa;" horiz-adv-x="680" 
d="M323 -5c-46.667 0 -88.3359 9.83203 -125.003 29.499s-65.667 48.5 -87 86.5s-32 84.333 -32 139v252c0 12.667 4.5 23.5 13.5 32.5s19.833 13.5 32.5 13.5c13.333 0 24.5 -4.5 33.5 -13.5s13.5 -19.833 13.5 -32.5v-252c0 -38.667 7.33301 -70.667 22 -96
s34.5 -44.166 59.5 -56.499s53.167 -18.5 84.5 -18.5c30.667 0 57.834 6 81.501 18s42.667 28.167 57 48.5s21.5 43.166 21.5 68.499h60c-1.33301 -41.333 -12.166 -78.666 -32.499 -111.999s-48.166 -59.5 -83.499 -78.5s-75 -28.5 -119 -28.5zM543.998 -0.000976562
c-13.333 0 -24.333 4.33301 -33 13s-13 19.667 -13 33v456c0 13.333 4.33301 24.333 13 33s19.667 13 33 13s24.333 -4.33301 33 -13s13 -19.667 13 -33v-456c0 -13.333 -4.33301 -24.333 -13 -33s-19.667 -13 -33 -13zM339.998 631.999c-12.667 0 -23.501 4.5 -32.501 13.5
s-13.5 19.833 -13.5 32.5s3.66699 23 11 31l104 104c8.66699 8.66699 19.334 13 32.001 13c14 0 25.333 -4.5 34 -13.5s13 -20.167 13 -33.5c0 -6 -1 -11.667 -3 -17s-5.33301 -10.333 -10 -15l-103 -103c-8 -8 -18.667 -12 -32 -12z" />
    <glyph glyph-name="ucircumflex" unicode="&#xfb;" horiz-adv-x="680" 
d="M323 -5c-46.667 0 -88.3359 9.83203 -125.003 29.499s-65.667 48.5 -87 86.5s-32 84.333 -32 139v252c0 12.667 4.5 23.5 13.5 32.5s19.833 13.5 32.5 13.5c13.333 0 24.5 -4.5 33.5 -13.5s13.5 -19.833 13.5 -32.5v-252c0 -38.667 7.33301 -70.667 22 -96
s34.5 -44.166 59.5 -56.499s53.167 -18.5 84.5 -18.5c30.667 0 57.834 6 81.501 18s42.667 28.167 57 48.5s21.5 43.166 21.5 68.499h60c-1.33301 -41.333 -12.166 -78.666 -32.499 -111.999s-48.166 -59.5 -83.499 -78.5s-75 -28.5 -119 -28.5zM543.998 -0.000976562
c-13.333 0 -24.333 4.33301 -33 13s-13 19.667 -13 33v456c0 13.333 4.33301 24.333 13 33s19.667 13 33 13s24.333 -4.33301 33 -13s13 -19.667 13 -33v-456c0 -13.333 -4.33301 -24.333 -13 -33s-19.667 -13 -33 -13zM226.998 621.999
c-13.333 0 -24.501 3.66699 -33.501 11s-13.5 16.666 -13.5 27.999c0 16 7.33301 29.333 22 40l115 75c7.33301 4.66699 15 7 23 7c4.66699 0 8.83398 -0.5 12.501 -1.5s7.5 -2.83301 11.5 -5.5l114 -75c14.667 -10.667 22 -24 22 -40
c0 -11.333 -4.33301 -20.666 -13 -27.999s-19.667 -11 -33 -11c-6 0 -11.167 0.833008 -15.5 2.5s-9.16602 4.16699 -14.499 7.5l-84 59l-84 -59c-8.66699 -6.66699 -18.334 -10 -29.001 -10z" />
    <glyph glyph-name="udieresis" unicode="&#xfc;" horiz-adv-x="680" 
d="M323 -5c-46.667 0 -88.3359 9.83203 -125.003 29.499s-65.667 48.5 -87 86.5s-32 84.333 -32 139v252c0 12.667 4.5 23.5 13.5 32.5s19.833 13.5 32.5 13.5c13.333 0 24.5 -4.5 33.5 -13.5s13.5 -19.833 13.5 -32.5v-252c0 -38.667 7.33301 -70.667 22 -96
s34.5 -44.166 59.5 -56.499s53.167 -18.5 84.5 -18.5c30.667 0 57.834 6 81.501 18s42.667 28.167 57 48.5s21.5 43.166 21.5 68.499h60c-1.33301 -41.333 -12.166 -78.666 -32.499 -111.999s-48.166 -59.5 -83.499 -78.5s-75 -28.5 -119 -28.5zM543.998 -0.000976562
c-13.333 0 -24.333 4.33301 -33 13s-13 19.667 -13 33v456c0 13.333 4.33301 24.333 13 33s19.667 13 33 13s24.333 -4.33301 33 -13s13 -19.667 13 -33v-456c0 -13.333 -4.33301 -24.333 -13 -33s-19.667 -13 -33 -13zM230.998 636.999c-16 0 -29.833 5.66699 -41.5 17
s-17.5 25 -17.5 41c0 15.333 5.83301 28.833 17.5 40.5s25.5 17.5 41.5 17.5s29.667 -5.83301 41 -17.5s17 -25.167 17 -40.5c0 -16 -5.66699 -29.667 -17 -41s-25 -17 -41 -17zM447.998 636.999c-16 0 -29.667 5.66699 -41 17s-17 25 -17 41
c0 15.333 5.66699 28.833 17 40.5s25 17.5 41 17.5s29.667 -5.83301 41 -17.5s17 -25.167 17 -40.5c0 -16 -5.66699 -29.667 -17 -41s-25 -17 -41 -17z" />
    <glyph glyph-name="yacute" unicode="&#xfd;" horiz-adv-x="542" 
d="M186 -239c-6 0 -13 1.66797 -21 5.00098c-26.667 12 -34 31 -22 57l312 698c12 25.333 31 32.666 57 21.999c27.333 -11.333 35 -30.333 23 -57l-313 -697c-8 -18.667 -20 -28 -36 -28zM302 20.001c-12 -5.33301 -22.998 -6.00098 -32.998 -2.00098s-18 11.667 -24 23
l-227 446c-6 11.333 -6.83301 22.333 -2.5 33s12.5 18.334 24.5 23.001c11.333 5.33301 22.166 6.16602 32.499 2.49902s18.166 -11.5 23.499 -23.5l219 -445c6.66699 -12 9 -23.167 7 -33.5s-8.66699 -18.166 -20 -23.499zM276.002 632c-12.667 0 -23.501 4.5 -32.501 13.5
s-13.5 19.833 -13.5 32.5s3.66699 23 11 31l104 104c8.66699 8.66699 19.334 13 32.001 13c14 0 25.333 -4.5 34 -13.5s13 -20.167 13 -33.5c0 -6 -1 -11.667 -3 -17s-5.33301 -10.333 -10 -15l-103 -103c-8 -8 -18.667 -12 -32 -12z" />
    <glyph glyph-name="thorn" unicode="&#xfe;" horiz-adv-x="704" 
d="M136 -234c-13.333 0 -24.335 4.33496 -33.002 13.002s-13 19.667 -13 33v923c0 14 4.33301 25.167 13 33.5s19.667 12.5 33 12.5c14 0 25.333 -4.16699 34 -12.5s12.667 -19.5 12 -33.5l-9 -445l-33 -7c0 45.333 7 84.666 21 117.999s32.667 61.166 56 83.499
s49.333 39 78 50s57.667 16.5 87 16.5c49.333 0 93.833 -11.667 133.5 -35s70.834 -56 93.501 -98s34 -90.333 34 -145c0 -54 -11.167 -102 -33.5 -144s-53.166 -74.667 -92.499 -98s-84.333 -35 -135 -35c-44 0 -83.167 10.167 -117.5 30.5s-61.833 47.833 -82.5 82.5v-297
c0.666992 -13.333 -3.33301 -24.333 -12 -33s-20 -13 -34 -13zM365.998 78.002c36.667 0 69 8.33301 97 25s50 39.667 66 69s24 63 24 101s-8 71.833 -24 101.5s-38 52.834 -66 69.501s-60.333 25 -97 25s-69 -8.33301 -97 -25s-49.833 -39.834 -65.5 -69.501
s-23.5 -63.5 -23.5 -101.5s7.83301 -71.667 23.5 -101s37.5 -52.333 65.5 -69s60.333 -25 97 -25z" />
    <glyph glyph-name="ydieresis" unicode="&#xff;" horiz-adv-x="542" 
d="M186 -239c-6 0 -13 1.66797 -21 5.00098c-26.667 12 -34 31 -22 57l312 698c12 25.333 31 32.666 57 21.999c27.333 -11.333 35 -30.333 23 -57l-313 -697c-8 -18.667 -20 -28 -36 -28zM302 20.001c-12 -5.33301 -22.998 -6.00098 -32.998 -2.00098s-18 11.667 -24 23
l-227 446c-6 11.333 -6.83301 22.333 -2.5 33s12.5 18.334 24.5 23.001c11.333 5.33301 22.166 6.16602 32.499 2.49902s18.166 -11.5 23.499 -23.5l219 -445c6.66699 -12 9 -23.167 7 -33.5s-8.66699 -18.166 -20 -23.499zM168.002 637c-16 0 -29.833 5.66699 -41.5 17
s-17.5 25 -17.5 41c0 15.333 5.83301 28.833 17.5 40.5s25.5 17.5 41.5 17.5s29.667 -5.83301 41 -17.5s17 -25.167 17 -40.5c0 -16 -5.66699 -29.667 -17 -41s-25 -17 -41 -17zM385.002 637c-16 0 -29.667 5.66699 -41 17s-17 25 -17 41c0 15.333 5.66699 28.833 17 40.5
s25 17.5 41 17.5s29.667 -5.83301 41 -17.5s17 -25.167 17 -40.5c0 -16 -5.66699 -29.667 -17 -41s-25 -17 -41 -17z" />
    <glyph glyph-name="Amacron" unicode="&#x100;" horiz-adv-x="703" 
d="M64 0c-17.333 0 -30.333 7.33301 -39 22s-9.33398 30 -2.00098 46l286 681c8.66699 21.333 23.334 32 44.001 32c22 0 37 -10.667 45 -32l287 -683c6.66699 -16 5.5 -31 -3.5 -45s-22.167 -21 -39.5 -21c-8.66699 0 -17 2.5 -25 7.5s-14 12.167 -18 21.5l-259 636h29
l-261 -636c-4 -10 -10 -17.333 -18 -22s-16.667 -7 -26 -7zM122 177l37 79h397l36 -79h-470zM224 884c-13.333 0 -24.333 3.83301 -33 11.5s-13 18.167 -13 31.5c0 12.667 4.33301 22.667 13 30s19.667 11 33 11h254c12.667 0 23.667 -3.66699 33 -11s14 -17.333 14 -30
c0 -13.333 -4.66699 -23.833 -14 -31.5s-20.333 -11.5 -33 -11.5h-254z" />
    <glyph glyph-name="amacron" unicode="&#x101;" 
d="M323 -4c-50 0 -94.666 12.001 -133.999 36.001s-70.333 57 -93 99s-34 89.333 -34 142c0 53.333 12.167 100.833 36.5 142.5s57.333 74.667 99 99s88.5 36.5 140.5 36.5c52.667 0 99.667 -12.167 141 -36.5s74.166 -57.5 98.499 -99.5s36.833 -89.333 37.5 -142l-36 -9
c0 -50.667 -11.333 -96.334 -34 -137.001s-53.167 -72.667 -91.5 -96s-81.833 -35 -130.5 -35zM338.001 78.001c36 0 68 8.5 96 25.5s50.167 40.333 66.5 70s24.5 62.834 24.5 99.501c0 37.333 -8.16699 70.833 -24.5 100.5s-38.5 53 -66.5 70s-60 25.5 -96 25.5
c-34.667 0 -66.334 -8.5 -95.001 -25.5s-51.167 -40.333 -67.5 -70s-24.5 -63.167 -24.5 -100.5c0 -36.667 8.16699 -69.834 24.5 -99.501s38.833 -53 67.5 -70s60.334 -25.5 95.001 -25.5zM568.001 -0.999023c-13.333 0 -24.333 4.33301 -33 13s-13 19.667 -13 33v160
l19 96l74 -28v-228c0 -13.333 -4.5 -24.333 -13.5 -33s-20.167 -13 -33.5 -13zM211.001 650.001c-13.333 0 -24.333 3.83301 -33 11.5s-13 18.167 -13 31.5c0 12.667 4.33301 22.667 13 30s19.667 11 33 11h254c12.667 0 23.667 -3.66699 33 -11s14 -17.333 14 -30
c0 -13.333 -4.66699 -23.833 -14 -31.5s-20.333 -11.5 -33 -11.5h-254z" />
    <glyph glyph-name="Abreve" unicode="&#x102;" horiz-adv-x="703" 
d="M64 0c-17.333 0 -30.333 7.33301 -39 22s-9.33398 30 -2.00098 46l286 681c8.66699 21.333 23.334 32 44.001 32c22 0 37 -10.667 45 -32l287 -683c6.66699 -16 5.5 -31 -3.5 -45s-22.167 -21 -39.5 -21c-8.66699 0 -17 2.5 -25 7.5s-14 12.167 -18 21.5l-259 636h29
l-261 -636c-4 -10 -10 -17.333 -18 -22s-16.667 -7 -26 -7zM122 177l37 79h397l36 -79h-470zM352 849c-29.333 0 -56.166 5.33398 -80.499 16.001s-43.833 25.167 -58.5 43.5s-22 39.166 -22 62.499c0 12.667 4.16699 23.5 12.5 32.5s18.833 13.5 31.5 13.5
c11.333 0 21.5 -3.5 30.5 -10.5s13.5 -16.5 13.5 -28.5c0 -15.333 7.33301 -28.166 22 -38.499s31.667 -15.5 51 -15.5c22 0 39.5 5.16699 52.5 15.5s19.5 23.166 19.5 38.499c0 12 4.5 21.5 13.5 28.5s19.5 10.5 31.5 10.5c12.667 0 23 -4.33301 31 -13s12 -19.667 12 -33
c-0.666992 -23.333 -8.33398 -44.333 -23.001 -63s-34 -33.167 -58 -43.5s-50.333 -15.5 -79 -15.5z" />
    <glyph glyph-name="abreve" unicode="&#x103;" 
d="M323 -4c-50 0 -94.666 12.001 -133.999 36.001s-70.333 57 -93 99s-34 89.333 -34 142c0 53.333 12.167 100.833 36.5 142.5s57.333 74.667 99 99s88.5 36.5 140.5 36.5c52.667 0 99.667 -12.167 141 -36.5s74.166 -57.5 98.499 -99.5s36.833 -89.333 37.5 -142l-36 -9
c0 -50.667 -11.333 -96.334 -34 -137.001s-53.167 -72.667 -91.5 -96s-81.833 -35 -130.5 -35zM338.001 78.001c36 0 68 8.5 96 25.5s50.167 40.333 66.5 70s24.5 62.834 24.5 99.501c0 37.333 -8.16699 70.833 -24.5 100.5s-38.5 53 -66.5 70s-60 25.5 -96 25.5
c-34.667 0 -66.334 -8.5 -95.001 -25.5s-51.167 -40.333 -67.5 -70s-24.5 -63.167 -24.5 -100.5c0 -36.667 8.16699 -69.834 24.5 -99.501s38.833 -53 67.5 -70s60.334 -25.5 95.001 -25.5zM568.001 -0.999023c-13.333 0 -24.333 4.33301 -33 13s-13 19.667 -13 33v160
l19 96l74 -28v-228c0 -13.333 -4.5 -24.333 -13.5 -33s-20.167 -13 -33.5 -13zM338.001 615.001c-29.333 0 -56.166 5.33398 -80.499 16.001s-43.833 25.167 -58.5 43.5s-22 39.166 -22 62.499c0 12.667 4.16699 23.5 12.5 32.5s18.833 13.5 31.5 13.5
c11.333 0 21.5 -3.5 30.5 -10.5s13.5 -16.5 13.5 -28.5c0 -15.333 7.33301 -28.166 22 -38.499s31.667 -15.5 51 -15.5c22 0 39.5 5.16699 52.5 15.5s19.5 23.166 19.5 38.499c0 12 4.5 21.5 13.5 28.5s19.5 10.5 31.5 10.5c12.667 0 23 -4.33301 31 -13s12 -19.667 12 -33
c-0.666992 -23.333 -8.33398 -44.333 -23.001 -63s-34 -33.167 -58 -43.5s-50.333 -15.5 -79 -15.5z" />
    <glyph glyph-name="Aogonek" unicode="&#x104;" horiz-adv-x="703" 
d="M64 0c-17.333 0 -30.333 7.33301 -39 22s-9.33398 30 -2.00098 46l286 681c8.66699 21.333 23.334 32 44.001 32c22 0 37 -10.667 45 -32l287 -683c6.66699 -16 5.5 -31 -3.5 -45s-22.167 -21 -39.5 -21c-8.66699 0 -17 2.5 -25 7.5s-14 12.167 -18 21.5l-259 636h29
l-261 -636c-4 -10 -10 -17.333 -18 -22s-16.667 -7 -26 -7zM122 177l37 79h397l36 -79h-470zM638 -243c-21.333 0 -41.333 5.50098 -60 16.501s-33.5 25.667 -44.5 44s-16.5 38.833 -16.5 61.5c0 38 16.667 71 50 99c8.66699 6 15.334 12 20.001 18
s8.33398 11.667 11.001 17c8.66699 16 22 24 40 24c13.333 0 24.333 -4.16699 33 -12.5s13.334 -19.166 14.001 -32.499c0 -14.667 -5.33301 -29.334 -16 -44.001s-26.334 -29.667 -47.001 -45c-4.66699 -2.66699 -8 -6.33398 -10 -11.001s-3 -9 -3 -13
c0 -8.66699 2.83301 -15.667 8.5 -21s12.5 -8 20.5 -8c3.33301 0 6.33301 0.333008 9 1s5 1.66699 7 3l32 24c9.33301 6 18.666 9 27.999 9c14 0 25.167 -4.33301 33.5 -13s12.5 -19.667 12.5 -33c0 -14.667 -5.33301 -27 -16 -37l-38 -26
c-20.667 -14 -43.334 -21 -68.001 -21z" />
    <glyph glyph-name="aogonek" unicode="&#x105;" 
d="M323 -4c-50 0 -94.666 12.001 -133.999 36.001s-70.333 57 -93 99s-34 89.333 -34 142c0 53.333 12.167 100.833 36.5 142.5s57.333 74.667 99 99s88.5 36.5 140.5 36.5c52.667 0 99.667 -12.167 141 -36.5s74.166 -57.5 98.499 -99.5s36.833 -89.333 37.5 -142l-36 -9
c0 -50.667 -11.333 -96.334 -34 -137.001s-53.167 -72.667 -91.5 -96s-81.833 -35 -130.5 -35zM338.001 78.001c36 0 68 8.5 96 25.5s50.167 40.333 66.5 70s24.5 62.834 24.5 99.501c0 37.333 -8.16699 70.833 -24.5 100.5s-38.5 53 -66.5 70s-60 25.5 -96 25.5
c-34.667 0 -66.334 -8.5 -95.001 -25.5s-51.167 -40.333 -67.5 -70s-24.5 -63.167 -24.5 -100.5c0 -36.667 8.16699 -69.834 24.5 -99.501s38.833 -53 67.5 -70s60.334 -25.5 95.001 -25.5zM568.001 -0.999023c-13.333 0 -24.333 4.33301 -33 13s-13 19.667 -13 33v160
l19 96l74 -28v-228c0 -13.333 -4.5 -24.333 -13.5 -33s-20.167 -13 -33.5 -13zM608.001 -269.999c-21.333 0 -41.333 5.50098 -60 16.501s-33.5 25.667 -44.5 44s-16.5 38.833 -16.5 61.5c0 38 16.667 71 50 99c8.66699 6 15.334 12 20.001 18s8.33398 11.667 11.001 17
c8.66699 16 22 24 40 24c13.333 0 24.333 -4.16699 33 -12.5s13.334 -19.166 14.001 -32.499c0 -14.667 -5.33301 -29.334 -16 -44.001s-26.334 -29.667 -47.001 -45c-4.66699 -2.66699 -8 -6.33398 -10 -11.001s-3 -9 -3 -13c0 -8.66699 2.83301 -15.667 8.5 -21
s12.5 -8 20.5 -8c3.33301 0 6.33301 0.333008 9 1s5 1.66699 7 3l32 24c9.33301 6 18.666 9 27.999 9c14 0 25.167 -4.33301 33.5 -13s12.5 -19.667 12.5 -33c0 -14.667 -5.33301 -27 -16 -37l-38 -26c-20.667 -14 -43.334 -21 -68.001 -21z" />
    <glyph glyph-name="Cacute" unicode="&#x106;" horiz-adv-x="774" 
d="M450 -10c-54 0 -104.498 10.1689 -151.498 30.502s-88 48.833 -123 85.5s-62.5 79.334 -82.5 128.001s-30 101 -30 157c0 55.333 9.83301 107.166 29.5 155.499s47.167 90.833 82.5 127.5s76.333 65.334 123 86.001s97.334 31 152.001 31c50 0 94 -6.83301 132 -20.5
s75.667 -35.834 113 -66.501c5.33301 -4 9.16602 -8.5 11.499 -13.5s3.33301 -10 3 -15s-1.5 -9.83301 -3.5 -14.5c-0.666992 -10 -4.83398 -18 -12.501 -24s-16.667 -9.16699 -27 -9.5s-20.5 3.16699 -30.5 10.5c-25.333 22 -52 38.667 -80 50s-63.333 17 -106 17
c-40.667 0 -78.834 -8.33301 -114.501 -25s-67.167 -39.334 -94.5 -68.001s-48.666 -62 -63.999 -100s-23 -78.333 -23 -121c0 -44 7.66699 -84.833 23 -122.5s36.666 -71 63.999 -100s58.833 -51.5 94.5 -67.5s73.834 -24 114.501 -24c35.333 0 68.666 5.83301 99.999 17.5
s61 28.167 89 49.5c10.667 8 21.334 11.5 32.001 10.5s19.667 -5.33301 27 -13s11 -18.167 11 -31.5c0 -6 -1 -11.833 -3 -17.5s-5.66699 -10.834 -11 -15.501c-34.667 -30 -72.834 -52 -114.501 -66s-85.167 -21 -130.5 -21zM447.002 866.002
c-12.667 0 -23.501 4.5 -32.501 13.5s-13.5 19.833 -13.5 32.5s3.66699 23 11 31l104 104c8.66699 8.66699 19.334 13 32.001 13c14 0 25.333 -4.5 34 -13.5s13 -20.167 13 -33.5c0 -6 -1 -11.667 -3 -17s-5.33301 -10.333 -10 -15l-103 -103c-8 -8 -18.667 -12 -32 -12z
" />
    <glyph glyph-name="cacute" unicode="&#x107;" horiz-adv-x="599" 
d="M336 -4c-52.667 0 -99.665 12.166 -140.998 36.499s-73.833 57.333 -97.5 99s-35.5 88.834 -35.5 141.501c0 54 11.5 102 34.5 144s54.5 74.833 94.5 98.5s86.333 35.5 139 35.5c39.333 0 75.666 -7.66699 108.999 -23s63 -38.333 89 -69
c8.66699 -9.33301 11.834 -19.333 9.50098 -30s-9.16602 -20 -20.499 -28c-8 -6 -17.333 -8 -28 -6s-20 7.66699 -28 17c-35.333 38 -79 57 -131 57c-35.333 0 -66.5 -8.33301 -93.5 -25s-48 -39.5 -63 -68.5s-22.5 -63.167 -22.5 -102.5
c0 -37.333 7.83301 -70.666 23.5 -99.999s37.5 -52.5 65.5 -69.5s60 -25.5 96 -25.5c24.667 0 46.667 3 66 9s36.666 15.667 51.999 29c9.33301 8 19.166 12.333 29.499 13s19.5 -2.33301 27.5 -9c10 -8.66699 15.667 -18.334 17 -29.001s-2.33398 -20 -11.001 -28
c-48 -44.667 -108.333 -67 -181 -67zM329.002 631.999c-12.667 0 -23.501 4.5 -32.501 13.5s-13.5 19.833 -13.5 32.5s3.66699 23 11 31l104 104c8.66699 8.66699 19.334 13 32.001 13c14 0 25.333 -4.5 34 -13.5s13 -20.167 13 -33.5c0 -6 -1 -11.667 -3 -17
s-5.33301 -10.333 -10 -15l-103 -103c-8 -8 -18.667 -12 -32 -12z" />
    <glyph glyph-name="Ccircumflex" unicode="&#x108;" horiz-adv-x="774" 
d="M450 -10c-54 0 -104.498 10.1689 -151.498 30.502s-88 48.833 -123 85.5s-62.5 79.334 -82.5 128.001s-30 101 -30 157c0 55.333 9.83301 107.166 29.5 155.499s47.167 90.833 82.5 127.5s76.333 65.334 123 86.001s97.334 31 152.001 31c50 0 94 -6.83301 132 -20.5
s75.667 -35.834 113 -66.501c5.33301 -4 9.16602 -8.5 11.499 -13.5s3.33301 -10 3 -15s-1.5 -9.83301 -3.5 -14.5c-0.666992 -10 -4.83398 -18 -12.501 -24s-16.667 -9.16699 -27 -9.5s-20.5 3.16699 -30.5 10.5c-25.333 22 -52 38.667 -80 50s-63.333 17 -106 17
c-40.667 0 -78.834 -8.33301 -114.501 -25s-67.167 -39.334 -94.5 -68.001s-48.666 -62 -63.999 -100s-23 -78.333 -23 -121c0 -44 7.66699 -84.833 23 -122.5s36.666 -71 63.999 -100s58.833 -51.5 94.5 -67.5s73.834 -24 114.501 -24c35.333 0 68.666 5.83301 99.999 17.5
s61 28.167 89 49.5c10.667 8 21.334 11.5 32.001 10.5s19.667 -5.33301 27 -13s11 -18.167 11 -31.5c0 -6 -1 -11.833 -3 -17.5s-5.66699 -10.834 -11 -15.501c-34.667 -30 -72.834 -52 -114.501 -66s-85.167 -21 -130.5 -21zM335.002 856.002
c-13.333 0 -24.501 3.66699 -33.501 11s-13.5 16.666 -13.5 27.999c0 16 7.33301 29.333 22 40l115 75c7.33301 4.66699 15 7 23 7c4.66699 0 8.83398 -0.5 12.501 -1.5s7.5 -2.83301 11.5 -5.5l114 -75c14.667 -10.667 22 -24 22 -40
c0 -11.333 -4.33301 -20.666 -13 -27.999s-19.667 -11 -33 -11c-6 0 -11.167 0.833008 -15.5 2.5s-9.16602 4.16699 -14.499 7.5l-84 59l-84 -59c-8.66699 -6.66699 -18.334 -10 -29.001 -10z" />
    <glyph glyph-name="ccircumflex" unicode="&#x109;" horiz-adv-x="599" 
d="M336 -4c-52.667 0 -99.665 12.166 -140.998 36.499s-73.833 57.333 -97.5 99s-35.5 88.834 -35.5 141.501c0 54 11.5 102 34.5 144s54.5 74.833 94.5 98.5s86.333 35.5 139 35.5c39.333 0 75.666 -7.66699 108.999 -23s63 -38.333 89 -69
c8.66699 -9.33301 11.834 -19.333 9.50098 -30s-9.16602 -20 -20.499 -28c-8 -6 -17.333 -8 -28 -6s-20 7.66699 -28 17c-35.333 38 -79 57 -131 57c-35.333 0 -66.5 -8.33301 -93.5 -25s-48 -39.5 -63 -68.5s-22.5 -63.167 -22.5 -102.5
c0 -37.333 7.83301 -70.666 23.5 -99.999s37.5 -52.5 65.5 -69.5s60 -25.5 96 -25.5c24.667 0 46.667 3 66 9s36.666 15.667 51.999 29c9.33301 8 19.166 12.333 29.499 13s19.5 -2.33301 27.5 -9c10 -8.66699 15.667 -18.334 17 -29.001s-2.33398 -20 -11.001 -28
c-48 -44.667 -108.333 -67 -181 -67zM217.002 621.999c-13.333 0 -24.501 3.66699 -33.501 11s-13.5 16.666 -13.5 27.999c0 16 7.33301 29.333 22 40l115 75c7.33301 4.66699 15 7 23 7c4.66699 0 8.83398 -0.5 12.501 -1.5s7.5 -2.83301 11.5 -5.5l114 -75
c14.667 -10.667 22 -24 22 -40c0 -11.333 -4.33301 -20.666 -13 -27.999s-19.667 -11 -33 -11c-6 0 -11.167 0.833008 -15.5 2.5s-9.16602 4.16699 -14.499 7.5l-84 59l-84 -59c-8.66699 -6.66699 -18.334 -10 -29.001 -10z" />
    <glyph glyph-name="Cdotaccent" unicode="&#x10a;" horiz-adv-x="774" 
d="M450 -10c-54 0 -104.498 10.1689 -151.498 30.502s-88 48.833 -123 85.5s-62.5 79.334 -82.5 128.001s-30 101 -30 157c0 55.333 9.83301 107.166 29.5 155.499s47.167 90.833 82.5 127.5s76.333 65.334 123 86.001s97.334 31 152.001 31c50 0 94 -6.83301 132 -20.5
s75.667 -35.834 113 -66.501c5.33301 -4 9.16602 -8.5 11.499 -13.5s3.33301 -10 3 -15s-1.5 -9.83301 -3.5 -14.5c-0.666992 -10 -4.83398 -18 -12.501 -24s-16.667 -9.16699 -27 -9.5s-20.5 3.16699 -30.5 10.5c-25.333 22 -52 38.667 -80 50s-63.333 17 -106 17
c-40.667 0 -78.834 -8.33301 -114.501 -25s-67.167 -39.334 -94.5 -68.001s-48.666 -62 -63.999 -100s-23 -78.333 -23 -121c0 -44 7.66699 -84.833 23 -122.5s36.666 -71 63.999 -100s58.833 -51.5 94.5 -67.5s73.834 -24 114.501 -24c35.333 0 68.666 5.83301 99.999 17.5
s61 28.167 89 49.5c10.667 8 21.334 11.5 32.001 10.5s19.667 -5.33301 27 -13s11 -18.167 11 -31.5c0 -6 -1 -11.833 -3 -17.5s-5.66699 -10.834 -11 -15.501c-34.667 -30 -72.834 -52 -114.501 -66s-85.167 -21 -130.5 -21zM447.002 876.002c-16.667 0 -31 6 -43 18
s-18 26.667 -18 44s6.16699 31.833 18.5 43.5s26.833 17.5 43.5 17.5c16 0 30.167 -5.83301 42.5 -17.5s18.5 -26.167 18.5 -43.5s-6 -32 -18 -44s-26.667 -18 -44 -18z" />
    <glyph glyph-name="cdotaccent" unicode="&#x10b;" horiz-adv-x="599" 
d="M336 -4c-52.667 0 -99.665 12.166 -140.998 36.499s-73.833 57.333 -97.5 99s-35.5 88.834 -35.5 141.501c0 54 11.5 102 34.5 144s54.5 74.833 94.5 98.5s86.333 35.5 139 35.5c39.333 0 75.666 -7.66699 108.999 -23s63 -38.333 89 -69
c8.66699 -9.33301 11.834 -19.333 9.50098 -30s-9.16602 -20 -20.499 -28c-8 -6 -17.333 -8 -28 -6s-20 7.66699 -28 17c-35.333 38 -79 57 -131 57c-35.333 0 -66.5 -8.33301 -93.5 -25s-48 -39.5 -63 -68.5s-22.5 -63.167 -22.5 -102.5
c0 -37.333 7.83301 -70.666 23.5 -99.999s37.5 -52.5 65.5 -69.5s60 -25.5 96 -25.5c24.667 0 46.667 3 66 9s36.666 15.667 51.999 29c9.33301 8 19.166 12.333 29.499 13s19.5 -2.33301 27.5 -9c10 -8.66699 15.667 -18.334 17 -29.001s-2.33398 -20 -11.001 -28
c-48 -44.667 -108.333 -67 -181 -67zM329.002 641.999c-16.667 0 -31 6 -43 18s-18 26.667 -18 44s6.16699 31.833 18.5 43.5s26.833 17.5 43.5 17.5c16 0 30.167 -5.83301 42.5 -17.5s18.5 -26.167 18.5 -43.5s-6 -32 -18 -44s-26.667 -18 -44 -18z" />
    <glyph glyph-name="Ccaron" unicode="&#x10c;" horiz-adv-x="774" 
d="M450 -10c-54 0 -104.498 10.1689 -151.498 30.502s-88 48.833 -123 85.5s-62.5 79.334 -82.5 128.001s-30 101 -30 157c0 55.333 9.83301 107.166 29.5 155.499s47.167 90.833 82.5 127.5s76.333 65.334 123 86.001s97.334 31 152.001 31c50 0 94 -6.83301 132 -20.5
s75.667 -35.834 113 -66.501c5.33301 -4 9.16602 -8.5 11.499 -13.5s3.33301 -10 3 -15s-1.5 -9.83301 -3.5 -14.5c-0.666992 -10 -4.83398 -18 -12.501 -24s-16.667 -9.16699 -27 -9.5s-20.5 3.16699 -30.5 10.5c-25.333 22 -52 38.667 -80 50s-63.333 17 -106 17
c-40.667 0 -78.834 -8.33301 -114.501 -25s-67.167 -39.334 -94.5 -68.001s-48.666 -62 -63.999 -100s-23 -78.333 -23 -121c0 -44 7.66699 -84.833 23 -122.5s36.666 -71 63.999 -100s58.833 -51.5 94.5 -67.5s73.834 -24 114.501 -24c35.333 0 68.666 5.83301 99.999 17.5
s61 28.167 89 49.5c10.667 8 21.334 11.5 32.001 10.5s19.667 -5.33301 27 -13s11 -18.167 11 -31.5c0 -6 -1 -11.833 -3 -17.5s-5.66699 -10.834 -11 -15.501c-34.667 -30 -72.834 -52 -114.501 -66s-85.167 -21 -130.5 -21zM448.002 864.002
c-9.33301 0 -17 2.33496 -23 7.00195l-115 76c-14.667 10.667 -22 23.667 -22 39c0 13.333 7.5 22.833 22.5 28.5s32.833 1.5 53.5 -12.5l84 -57l84 57c23.333 15.333 41.833 19.666 55.5 12.999s20.5 -16.334 20.5 -29.001c0 -15.333 -7.33301 -28.333 -22 -39l-114 -76
c-6.66699 -4.66699 -14.667 -7 -24 -7z" />
    <glyph glyph-name="ccaron" unicode="&#x10d;" horiz-adv-x="599" 
d="M336 -4c-52.667 0 -99.665 12.166 -140.998 36.499s-73.833 57.333 -97.5 99s-35.5 88.834 -35.5 141.501c0 54 11.5 102 34.5 144s54.5 74.833 94.5 98.5s86.333 35.5 139 35.5c39.333 0 75.666 -7.66699 108.999 -23s63 -38.333 89 -69
c8.66699 -9.33301 11.834 -19.333 9.50098 -30s-9.16602 -20 -20.499 -28c-8 -6 -17.333 -8 -28 -6s-20 7.66699 -28 17c-35.333 38 -79 57 -131 57c-35.333 0 -66.5 -8.33301 -93.5 -25s-48 -39.5 -63 -68.5s-22.5 -63.167 -22.5 -102.5
c0 -37.333 7.83301 -70.666 23.5 -99.999s37.5 -52.5 65.5 -69.5s60 -25.5 96 -25.5c24.667 0 46.667 3 66 9s36.666 15.667 51.999 29c9.33301 8 19.166 12.333 29.499 13s19.5 -2.33301 27.5 -9c10 -8.66699 15.667 -18.334 17 -29.001s-2.33398 -20 -11.001 -28
c-48 -44.667 -108.333 -67 -181 -67zM330.002 629.999c-9.33301 0 -17 2.33496 -23 7.00195l-115 76c-14.667 10.667 -22 23.667 -22 39c0 13.333 7.5 22.833 22.5 28.5s32.833 1.5 53.5 -12.5l84 -57l84 57c23.333 15.333 41.833 19.666 55.5 12.999
s20.5 -16.334 20.5 -29.001c0 -15.333 -7.33301 -28.333 -22 -39l-114 -76c-6.66699 -4.66699 -14.667 -7 -24 -7z" />
    <glyph glyph-name="Dcaron" unicode="&#x10e;" horiz-adv-x="778" 
d="M147 0c-13.333 0 -24.5 4.49902 -33.5 13.499s-13.5 20.167 -13.5 33.5v687c0 14 4.5 25.333 13.5 34s20.167 13 33.5 13h181c57.333 0 109.5 -9.5 156.5 -28.5s87.833 -46 122.5 -81s61.5 -76.167 80.5 -123.5s28.5 -99.666 28.5 -156.999s-9.5 -109.833 -28.5 -157.5
s-45.833 -89 -80.5 -124s-75.5 -62 -122.5 -81s-99.167 -28.5 -156.5 -28.5h-181zM194 83.999l134 0.00195312c58 0 109.167 13.167 153.5 39.5s79.333 62.666 105 108.999s38.5 99.166 38.5 158.499c0 60 -12.833 113 -38.5 159s-60.667 82 -105 108s-95.5 39 -153.5 39
h-134v-613zM390 864.001c-9.33301 0 -17 2.33496 -23 7.00195l-115 76c-14.667 10.667 -22 23.667 -22 39c0 13.333 7.5 22.833 22.5 28.5s32.833 1.5 53.5 -12.5l84 -57l84 57c23.333 15.333 41.833 19.666 55.5 12.999s20.5 -16.334 20.5 -29.001
c0 -15.333 -7.33301 -28.333 -22 -39l-114 -76c-6.66699 -4.66699 -14.667 -7 -24 -7z" />
    <glyph glyph-name="dcaron" unicode="&#x10f;" horiz-adv-x="799" 
d="M338 -4c-52 0 -98.832 12.165 -140.499 36.498s-74.667 57.5 -99 99.5s-36.5 89.333 -36.5 142s11.333 99.834 34 141.501s53.667 74.667 93 99s84 36.5 134 36.5c41.333 0 79.166 -8.66699 113.499 -26s62.833 -40.666 85.5 -69.999v280c0 14 4.33301 25.167 13 33.5
s19.667 12.5 33 12.5c14 0 25.333 -4.16699 34 -12.5s13 -19.5 13 -33.5v-463c-0.666992 -52 -13.167 -99 -37.5 -141s-57.333 -75 -99 -99s-88.5 -36 -140.5 -36zM338.001 77.998c36 0 68 8.5 96 25.5s50.167 40.333 66.5 70s24.5 63.167 24.5 100.5
s-8.16699 70.666 -24.5 99.999s-38.5 52.5 -66.5 69.5s-60 25.5 -96 25.5c-34.667 0 -66.334 -8.5 -95.001 -25.5s-51.167 -40.167 -67.5 -69.5s-24.5 -62.666 -24.5 -99.999s8.16699 -70.833 24.5 -100.5s38.833 -53 67.5 -70s60.334 -25.5 95.001 -25.5zM684.001 510.998
c-8 1.33301 -14 4.00098 -18 8.00098s-5.66699 10 -5 18c1.33301 10.667 6.16602 21.834 14.499 33.501l25.5 37.5c8.66699 13.333 14 28.333 16 45c2 13.333 1.5 24.5 -1.5 33.5s-6.16699 17.833 -9.5 26.5s-5 19.667 -5 33c0 14 4.66699 24.333 14 31s20.666 10 33.999 10
c20.667 0 36.334 -9.5 47.001 -28.5s14.334 -41.167 11.001 -66.5c-2 -21.333 -7.83301 -43 -17.5 -65s-21 -41.833 -34 -59.5s-25.833 -31.834 -38.5 -42.501s-23.667 -15.334 -33 -14.001z" />
    <glyph glyph-name="Dcroat" unicode="&#x110;" horiz-adv-x="778" 
d="M45 350c-13.333 0 -24.333 3.66699 -33 11s-13 17.333 -13 30s4.33301 22.667 13 30s19.667 11 33 11h285c14 0 25.333 -3.66699 34 -11s13 -17.333 13 -30s-4.33301 -22.667 -13 -30s-20 -11 -34 -11h-285zM147 0c-13.333 0 -24.5 4.49902 -33.5 13.499
s-13.5 20.167 -13.5 33.5v687c0 14 4.5 25.333 13.5 34s20.167 13 33.5 13h181c57.333 0 109.5 -9.5 156.5 -28.5s87.833 -46 122.5 -81s61.5 -76.167 80.5 -123.5s28.5 -99.666 28.5 -156.999s-9.5 -109.833 -28.5 -157.5s-45.833 -89 -80.5 -124s-75.5 -62 -122.5 -81
s-99.167 -28.5 -156.5 -28.5h-181zM194 83.999l134 0.00195312c58 0 109.167 13.167 153.5 39.5s79.333 62.666 105 108.999s38.5 99.166 38.5 158.499c0 60 -12.833 113 -38.5 159s-60.667 82 -105 108s-95.5 39 -153.5 39h-134v-613z" />
    <glyph glyph-name="dcroat" unicode="&#x111;" horiz-adv-x="705" 
d="M372 614c-12.667 0 -23.334 3.66699 -32.001 11s-13 16 -13 26c0 12.667 4.33301 22 13 28s19.334 9 32.001 9h286c14 0 25.333 -3 34 -9s13 -15.333 13 -28c0 -10 -4.33301 -18.667 -13 -26s-20 -11 -34 -11h-286zM338 -4c-52 0 -98.832 12.165 -140.499 36.498
s-74.667 57.5 -99 99.5s-36.5 89.333 -36.5 142s11.333 99.834 34 141.501s53.667 74.667 93 99s84 36.5 134 36.5c41.333 0 79.166 -8.66699 113.499 -26s62.833 -40.666 85.5 -69.999v280c0 14 4.33301 25.167 13 33.5s19.667 12.5 33 12.5c14 0 25.333 -4.16699 34 -12.5
s13 -19.5 13 -33.5v-463c-0.666992 -52 -13.167 -99 -37.5 -141s-57.333 -75 -99 -99s-88.5 -36 -140.5 -36zM338.001 77.998c36 0 68 8.5 96 25.5s50.167 40.333 66.5 70s24.5 63.167 24.5 100.5s-8.16699 70.666 -24.5 99.999s-38.5 52.5 -66.5 69.5s-60 25.5 -96 25.5
c-34.667 0 -66.334 -8.5 -95.001 -25.5s-51.167 -40.167 -67.5 -69.5s-24.5 -62.666 -24.5 -99.999s8.16699 -70.833 24.5 -100.5s38.833 -53 67.5 -70s60.334 -25.5 95.001 -25.5z" />
    <glyph glyph-name="Emacron" unicode="&#x112;" horiz-adv-x="697" 
d="M147 0c-13.333 0 -24.5 4.49805 -33.5 13.498s-13.5 20.167 -13.5 33.5v687c0 14 4.5 25.333 13.5 34s20.167 13 33.5 13h459c13.333 0 24.333 -4.16699 33 -12.5s13 -19.166 13 -32.499c0 -12 -4.33301 -22.167 -13 -30.5s-19.667 -12.5 -33 -12.5h-412v-256h297
c14 0 25.167 -4.16699 33.5 -12.5s12.5 -18.833 12.5 -31.5s-4.16699 -23.167 -12.5 -31.5s-19.5 -12.5 -33.5 -12.5h-297v-261h412c13.333 0 24.333 -4.16699 33 -12.5s13 -18.5 13 -30.5c0 -13.333 -4.33301 -24.166 -13 -32.499s-19.667 -12.5 -33 -12.5h-459z
M259 883.998c-13.333 0 -24.333 3.83301 -33 11.5s-13 18.167 -13 31.5c0 12.667 4.33301 22.667 13 30s19.667 11 33 11h254c12.667 0 23.667 -3.66699 33 -11s14 -17.333 14 -30c0 -13.333 -4.66699 -23.833 -14 -31.5s-20.333 -11.5 -33 -11.5h-254z" />
    <glyph glyph-name="emacron" unicode="&#x113;" horiz-adv-x="618" 
d="M344 -4c-55.333 0 -104.161 11.832 -146.494 35.499s-75.5 56.334 -99.5 98.001s-36 89.5 -36 143.5c0 54.667 11.333 102.834 34 144.501s54 74.334 94 98.001s86.333 35.5 139 35.5c51.333 0 95.666 -11.5 132.999 -34.5s66 -54.667 86 -95s30 -86.833 30 -139.5
c0 -11.333 -3.83301 -20.833 -11.5 -28.5s-17.834 -11.5 -30.501 -11.5h-411v74h412l-41 -29c-0.666992 35.333 -7.66699 67 -21 95s-32.333 50 -57 66s-54.334 24 -89.001 24c-38 0 -70.833 -8.66699 -98.5 -26s-48.834 -41 -63.501 -71s-22 -64 -22 -102
s8.5 -71.833 25.5 -101.5s40.333 -53.167 70 -70.5s64.167 -26 103.5 -26c21.333 0 43.5 4 66.5 12s41.167 17.333 54.5 28c9.33301 7.33301 19.333 11.166 30 11.499s20 -2.83398 28 -9.50098c10 -9.33301 15.333 -19.5 16 -30.5s-4 -20.5 -14 -28.5
c-22.667 -18 -50.834 -32.833 -84.501 -44.5s-65.834 -17.5 -96.501 -17.5zM193.005 649.999c-13.333 0 -24.333 3.83301 -33 11.5s-13 18.167 -13 31.5c0 12.667 4.33301 22.667 13 30s19.667 11 33 11h254c12.667 0 23.667 -3.66699 33 -11s14 -17.333 14 -30
c0 -13.333 -4.66699 -23.833 -14 -31.5s-20.333 -11.5 -33 -11.5h-254z" />
    <glyph glyph-name="Ebreve" unicode="&#x114;" horiz-adv-x="697" 
d="M147 0c-13.333 0 -24.5 4.49805 -33.5 13.498s-13.5 20.167 -13.5 33.5v687c0 14 4.5 25.333 13.5 34s20.167 13 33.5 13h459c13.333 0 24.333 -4.16699 33 -12.5s13 -19.166 13 -32.499c0 -12 -4.33301 -22.167 -13 -30.5s-19.667 -12.5 -33 -12.5h-412v-256h297
c14 0 25.167 -4.16699 33.5 -12.5s12.5 -18.833 12.5 -31.5s-4.16699 -23.167 -12.5 -31.5s-19.5 -12.5 -33.5 -12.5h-297v-261h412c13.333 0 24.333 -4.16699 33 -12.5s13 -18.5 13 -30.5c0 -13.333 -4.33301 -24.166 -13 -32.499s-19.667 -12.5 -33 -12.5h-459z
M387 848.998c-29.333 0 -56.166 5.33398 -80.499 16.001s-43.833 25.167 -58.5 43.5s-22 39.166 -22 62.499c0 12.667 4.16699 23.5 12.5 32.5s18.833 13.5 31.5 13.5c11.333 0 21.5 -3.5 30.5 -10.5s13.5 -16.5 13.5 -28.5c0 -15.333 7.33301 -28.166 22 -38.499
s31.667 -15.5 51 -15.5c22 0 39.5 5.16699 52.5 15.5s19.5 23.166 19.5 38.499c0 12 4.5 21.5 13.5 28.5s19.5 10.5 31.5 10.5c12.667 0 23 -4.33301 31 -13s12 -19.667 12 -33c-0.666992 -23.333 -8.33398 -44.333 -23.001 -63s-34 -33.167 -58 -43.5
s-50.333 -15.5 -79 -15.5z" />
    <glyph glyph-name="ebreve" unicode="&#x115;" horiz-adv-x="618" 
d="M344 -4c-55.333 0 -104.161 11.832 -146.494 35.499s-75.5 56.334 -99.5 98.001s-36 89.5 -36 143.5c0 54.667 11.333 102.834 34 144.501s54 74.334 94 98.001s86.333 35.5 139 35.5c51.333 0 95.666 -11.5 132.999 -34.5s66 -54.667 86 -95s30 -86.833 30 -139.5
c0 -11.333 -3.83301 -20.833 -11.5 -28.5s-17.834 -11.5 -30.501 -11.5h-411v74h412l-41 -29c-0.666992 35.333 -7.66699 67 -21 95s-32.333 50 -57 66s-54.334 24 -89.001 24c-38 0 -70.833 -8.66699 -98.5 -26s-48.834 -41 -63.501 -71s-22 -64 -22 -102
s8.5 -71.833 25.5 -101.5s40.333 -53.167 70 -70.5s64.167 -26 103.5 -26c21.333 0 43.5 4 66.5 12s41.167 17.333 54.5 28c9.33301 7.33301 19.333 11.166 30 11.499s20 -2.83398 28 -9.50098c10 -9.33301 15.333 -19.5 16 -30.5s-4 -20.5 -14 -28.5
c-22.667 -18 -50.834 -32.833 -84.501 -44.5s-65.834 -17.5 -96.501 -17.5zM320.005 614.999c-29.333 0 -56.166 5.33398 -80.499 16.001s-43.833 25.167 -58.5 43.5s-22 39.166 -22 62.499c0 12.667 4.16699 23.5 12.5 32.5s18.833 13.5 31.5 13.5
c11.333 0 21.5 -3.5 30.5 -10.5s13.5 -16.5 13.5 -28.5c0 -15.333 7.33301 -28.166 22 -38.499s31.667 -15.5 51 -15.5c22 0 39.5 5.16699 52.5 15.5s19.5 23.166 19.5 38.499c0 12 4.5 21.5 13.5 28.5s19.5 10.5 31.5 10.5c12.667 0 23 -4.33301 31 -13s12 -19.667 12 -33
c-0.666992 -23.333 -8.33398 -44.333 -23.001 -63s-34 -33.167 -58 -43.5s-50.333 -15.5 -79 -15.5z" />
    <glyph glyph-name="Edotaccent" unicode="&#x116;" horiz-adv-x="697" 
d="M147 0c-13.333 0 -24.5 4.49805 -33.5 13.498s-13.5 20.167 -13.5 33.5v687c0 14 4.5 25.333 13.5 34s20.167 13 33.5 13h459c13.333 0 24.333 -4.16699 33 -12.5s13 -19.166 13 -32.499c0 -12 -4.33301 -22.167 -13 -30.5s-19.667 -12.5 -33 -12.5h-412v-256h297
c14 0 25.167 -4.16699 33.5 -12.5s12.5 -18.833 12.5 -31.5s-4.16699 -23.167 -12.5 -31.5s-19.5 -12.5 -33.5 -12.5h-297v-261h412c13.333 0 24.333 -4.16699 33 -12.5s13 -18.5 13 -30.5c0 -13.333 -4.33301 -24.166 -13 -32.499s-19.667 -12.5 -33 -12.5h-459z
M386 875.998c-16.667 0 -31 6 -43 18s-18 26.667 -18 44s6.16699 31.833 18.5 43.5s26.833 17.5 43.5 17.5c16 0 30.167 -5.83301 42.5 -17.5s18.5 -26.167 18.5 -43.5s-6 -32 -18 -44s-26.667 -18 -44 -18z" />
    <glyph glyph-name="edotaccent" unicode="&#x117;" horiz-adv-x="618" 
d="M344 -4c-55.333 0 -104.161 11.832 -146.494 35.499s-75.5 56.334 -99.5 98.001s-36 89.5 -36 143.5c0 54.667 11.333 102.834 34 144.501s54 74.334 94 98.001s86.333 35.5 139 35.5c51.333 0 95.666 -11.5 132.999 -34.5s66 -54.667 86 -95s30 -86.833 30 -139.5
c0 -11.333 -3.83301 -20.833 -11.5 -28.5s-17.834 -11.5 -30.501 -11.5h-411v74h412l-41 -29c-0.666992 35.333 -7.66699 67 -21 95s-32.333 50 -57 66s-54.334 24 -89.001 24c-38 0 -70.833 -8.66699 -98.5 -26s-48.834 -41 -63.501 -71s-22 -64 -22 -102
s8.5 -71.833 25.5 -101.5s40.333 -53.167 70 -70.5s64.167 -26 103.5 -26c21.333 0 43.5 4 66.5 12s41.167 17.333 54.5 28c9.33301 7.33301 19.333 11.166 30 11.499s20 -2.83398 28 -9.50098c10 -9.33301 15.333 -19.5 16 -30.5s-4 -20.5 -14 -28.5
c-22.667 -18 -50.834 -32.833 -84.501 -44.5s-65.834 -17.5 -96.501 -17.5zM320.005 641.999c-16.667 0 -31 6 -43 18s-18 26.667 -18 44s6.16699 31.833 18.5 43.5s26.833 17.5 43.5 17.5c16 0 30.167 -5.83301 42.5 -17.5s18.5 -26.167 18.5 -43.5s-6 -32 -18 -44
s-26.667 -18 -44 -18z" />
    <glyph glyph-name="Eogonek" unicode="&#x118;" horiz-adv-x="697" 
d="M147 0c-13.333 0 -24.5 4.49805 -33.5 13.498s-13.5 20.167 -13.5 33.5v687c0 14 4.5 25.333 13.5 34s20.167 13 33.5 13h459c13.333 0 24.333 -4.16699 33 -12.5s13 -19.166 13 -32.499c0 -12 -4.33301 -22.167 -13 -30.5s-19.667 -12.5 -33 -12.5h-412v-256h297
c14 0 25.167 -4.16699 33.5 -12.5s12.5 -18.833 12.5 -31.5s-4.16699 -23.167 -12.5 -31.5s-19.5 -12.5 -33.5 -12.5h-297v-261h412c13.333 0 24.333 -4.16699 33 -12.5s13 -18.5 13 -30.5c0 -13.333 -4.33301 -24.166 -13 -32.499s-19.667 -12.5 -33 -12.5h-459z
M628 -270.002c-21.333 0 -41.333 5.50098 -60 16.501s-33.5 25.667 -44.5 44s-16.5 38.833 -16.5 61.5c0 38 16.667 71 50 99c8.66699 6 15.334 12 20.001 18s8.33398 11.667 11.001 17c8.66699 16 22 24 40 24c13.333 0 24.333 -4.16699 33 -12.5
s13.334 -19.166 14.001 -32.499c0 -14.667 -5.33301 -29.334 -16 -44.001s-26.334 -29.667 -47.001 -45c-4.66699 -2.66699 -8 -6.33398 -10 -11.001s-3 -9 -3 -13c0 -8.66699 2.83301 -15.667 8.5 -21s12.5 -8 20.5 -8c3.33301 0 6.33301 0.333008 9 1s5 1.66699 7 3l32 24
c9.33301 6 18.666 9 27.999 9c14 0 25.167 -4.33301 33.5 -13s12.5 -19.667 12.5 -33c0 -14.667 -5.33301 -27 -16 -37l-38 -26c-20.667 -14 -43.334 -21 -68.001 -21z" />
    <glyph glyph-name="eogonek" unicode="&#x119;" horiz-adv-x="618" 
d="M344 -4c-55.333 0 -104.161 11.832 -146.494 35.499s-75.5 56.334 -99.5 98.001s-36 89.5 -36 143.5c0 54.667 11.333 102.834 34 144.501s54 74.334 94 98.001s86.333 35.5 139 35.5c51.333 0 95.666 -11.5 132.999 -34.5s66 -54.667 86 -95s30 -86.833 30 -139.5
c0 -11.333 -3.83301 -20.833 -11.5 -28.5s-17.834 -11.5 -30.501 -11.5h-411v74h412l-41 -29c-0.666992 35.333 -7.66699 67 -21 95s-32.333 50 -57 66s-54.334 24 -89.001 24c-38 0 -70.833 -8.66699 -98.5 -26s-48.834 -41 -63.501 -71s-22 -64 -22 -102
s8.5 -71.833 25.5 -101.5s40.333 -53.167 70 -70.5s64.167 -26 103.5 -26c21.333 0 43.5 4 66.5 12s41.167 17.333 54.5 28c9.33301 7.33301 19.333 11.166 30 11.499s20 -2.83398 28 -9.50098c10 -9.33301 15.333 -19.5 16 -30.5s-4 -20.5 -14 -28.5
c-22.667 -18 -50.834 -32.833 -84.501 -44.5s-65.834 -17.5 -96.501 -17.5zM411.005 -195.001c-21.333 0 -41.333 5.50098 -60 16.501s-33.5 25.667 -44.5 44s-16.5 38.833 -16.5 61.5c0 38 16.667 71 50 99c8.66699 6 15.334 12 20.001 18s8.33398 11.667 11.001 17
c8.66699 16 22 24 40 24c13.333 0 24.333 -4.16699 33 -12.5s13.334 -19.166 14.001 -32.499c0 -14.667 -5.33301 -29.334 -16 -44.001s-26.334 -29.667 -47.001 -45c-4.66699 -2.66699 -8 -6.33398 -10 -11.001s-3 -9 -3 -13c0 -8.66699 2.83301 -15.667 8.5 -21
s12.5 -8 20.5 -8c3.33301 0 6.33301 0.333008 9 1s5 1.66699 7 3l32 24c9.33301 6 18.666 9 27.999 9c14 0 25.167 -4.33301 33.5 -13s12.5 -19.667 12.5 -33c0 -14.667 -5.33301 -27 -16 -37l-38 -26c-20.667 -14 -43.334 -21 -68.001 -21z" />
    <glyph glyph-name="Ecaron" unicode="&#x11a;" horiz-adv-x="697" 
d="M147 0c-13.333 0 -24.5 4.49805 -33.5 13.498s-13.5 20.167 -13.5 33.5v687c0 14 4.5 25.333 13.5 34s20.167 13 33.5 13h459c13.333 0 24.333 -4.16699 33 -12.5s13 -19.166 13 -32.499c0 -12 -4.33301 -22.167 -13 -30.5s-19.667 -12.5 -33 -12.5h-412v-256h297
c14 0 25.167 -4.16699 33.5 -12.5s12.5 -18.833 12.5 -31.5s-4.16699 -23.167 -12.5 -31.5s-19.5 -12.5 -33.5 -12.5h-297v-261h412c13.333 0 24.333 -4.16699 33 -12.5s13 -18.5 13 -30.5c0 -13.333 -4.33301 -24.166 -13 -32.499s-19.667 -12.5 -33 -12.5h-459z
M387 863.998c-9.33301 0 -17 2.33496 -23 7.00195l-115 76c-14.667 10.667 -22 23.667 -22 39c0 13.333 7.5 22.833 22.5 28.5s32.833 1.5 53.5 -12.5l84 -57l84 57c23.333 15.333 41.833 19.666 55.5 12.999s20.5 -16.334 20.5 -29.001c0 -15.333 -7.33301 -28.333 -22 -39
l-114 -76c-6.66699 -4.66699 -14.667 -7 -24 -7z" />
    <glyph glyph-name="ecaron" unicode="&#x11b;" horiz-adv-x="618" 
d="M344 -4c-55.333 0 -104.161 11.832 -146.494 35.499s-75.5 56.334 -99.5 98.001s-36 89.5 -36 143.5c0 54.667 11.333 102.834 34 144.501s54 74.334 94 98.001s86.333 35.5 139 35.5c51.333 0 95.666 -11.5 132.999 -34.5s66 -54.667 86 -95s30 -86.833 30 -139.5
c0 -11.333 -3.83301 -20.833 -11.5 -28.5s-17.834 -11.5 -30.501 -11.5h-411v74h412l-41 -29c-0.666992 35.333 -7.66699 67 -21 95s-32.333 50 -57 66s-54.334 24 -89.001 24c-38 0 -70.833 -8.66699 -98.5 -26s-48.834 -41 -63.501 -71s-22 -64 -22 -102
s8.5 -71.833 25.5 -101.5s40.333 -53.167 70 -70.5s64.167 -26 103.5 -26c21.333 0 43.5 4 66.5 12s41.167 17.333 54.5 28c9.33301 7.33301 19.333 11.166 30 11.499s20 -2.83398 28 -9.50098c10 -9.33301 15.333 -19.5 16 -30.5s-4 -20.5 -14 -28.5
c-22.667 -18 -50.834 -32.833 -84.501 -44.5s-65.834 -17.5 -96.501 -17.5zM320.005 629.999c-9.33301 0 -17 2.33496 -23 7.00195l-115 76c-14.667 10.667 -22 23.667 -22 39c0 13.333 7.5 22.833 22.5 28.5s32.833 1.5 53.5 -12.5l84 -57l84 57
c23.333 15.333 41.833 19.666 55.5 12.999s20.5 -16.334 20.5 -29.001c0 -15.333 -7.33301 -28.333 -22 -39l-114 -76c-6.66699 -4.66699 -14.667 -7 -24 -7z" />
    <glyph glyph-name="Gcircumflex" unicode="&#x11c;" horiz-adv-x="774" 
d="M450 -10c-54 0 -104.497 10.1699 -151.497 30.5029s-88 48.833 -123 85.5s-62.5 79.334 -82.5 128.001s-30 101 -30 157c0 55.333 9.83301 107.166 29.5 155.499s47.167 90.833 82.5 127.5s76.333 65.334 123 86.001s97.334 31 152.001 31c50 0 94 -6.83301 132 -20.5
s75.667 -35.834 113 -66.501c5.33301 -4 9.16602 -8.5 11.499 -13.5s3.33301 -10 3 -15s-1.5 -9.83301 -3.5 -14.5c-0.666992 -10 -4.83398 -18.167 -12.501 -24.5s-16.834 -9.5 -27.501 -9.5s-20.667 3.66699 -30 11c-25.333 22 -52 38.667 -80 50s-63.333 17 -106 17
c-40.667 0 -78.834 -8.33301 -114.501 -25s-67.167 -39.334 -94.5 -68.001s-48.666 -62 -63.999 -100s-23 -78.333 -23 -121c0 -44 7.66699 -84.833 23 -122.5s36.666 -71 63.999 -100s58.833 -51.5 94.5 -67.5s73.834 -24 114.501 -24c35.333 0 68.666 5.83301 99.999 17.5
s61 28.167 89 49.5c10.667 8 21.334 11.5 32.001 10.5s19.667 -5.33301 27 -13s11 -18.167 11 -31.5c0 -6 -0.833008 -11.833 -2.5 -17.5s-5.5 -10.834 -11.5 -15.501c-34.667 -30.667 -72.834 -52.834 -114.501 -66.501s-85.167 -20.5 -130.5 -20.5zM709.003 110.003
l-90 19v187h-145c-13.333 0 -24.5 4 -33.5 12s-13.5 18 -13.5 30s4.5 21.833 13.5 29.5s20.167 11.5 33.5 11.5h189c14 0 25.167 -4.33301 33.5 -13s12.5 -19.667 12.5 -33v-243zM333.003 856.003c-13.333 0 -24.501 3.66699 -33.501 11s-13.5 16.666 -13.5 27.999
c0 16 7.33301 29.333 22 40l115 75c7.33301 4.66699 15 7 23 7c4.66699 0 8.83398 -0.5 12.501 -1.5s7.5 -2.83301 11.5 -5.5l114 -75c14.667 -10.667 22 -24 22 -40c0 -11.333 -4.33301 -20.666 -13 -27.999s-19.667 -11 -33 -11c-6 0 -11.167 0.833008 -15.5 2.5
s-9.16602 4.16699 -14.499 7.5l-84 59l-84 -59c-8.66699 -6.66699 -18.334 -10 -29.001 -10z" />
    </font>
</defs>
</svg>
